Manrope-Bold.ufo
<glyph name="numbersign" format="2">
  <advance width="931"/>
  <unicode hex="0023"/>
  <note>
numbersign
</note>
  <outline>
    <contour>
      <point x="189" y="1" type="line"/>
      <point x="306" y="1" type="line"/>
      <point x="358" y="196" type="line"/>
      <point x="480" y="196" type="line"/>
      <point x="429" y="1" type="line"/>
      <point x="546" y="1" type="line"/>
      <point x="598" y="196" type="line"/>
      <point x="779" y="196" type="line"/>
      <point x="809" y="310" type="line"/>
      <point x="628" y="310" type="line"/>
      <point x="660" y="427" type="line"/>
      <point x="841" y="427" type="line"/>
      <point x="871" y="540" type="line"/>
      <point x="690" y="540" type="line"/>
      <point x="739" y="720" type="line"/>
      <point x="622" y="720" type="line"/>
      <point x="573" y="540" type="line"/>
      <point x="450" y="540" type="line"/>
      <point x="499" y="720" type="line"/>
      <point x="382" y="720" type="line"/>
      <point x="333" y="540" type="line"/>
      <point x="152" y="540" type="line"/>
      <point x="121" y="427" type="line"/>
      <point x="302" y="427" type="line"/>
      <point x="272" y="310" type="line"/>
      <point x="90" y="310" type="line"/>
      <point x="60" y="196" type="line"/>
      <point x="241" y="196" type="line"/>
    </contour>
    <contour>
      <point x="389" y="310" type="line"/>
      <point x="420" y="427" type="line"/>
      <point x="542" y="427" type="line"/>
      <point x="511" y="310" type="line"/>
    </contour>
  </outline>
</glyph>
<glyph name="dollar" format="2">
  <advance width="600"/>
  <unicode hex="0024"/>
  <note>
dollar
</note>
  <outline>
    <contour>
      <point x="239" y="-100" type="line"/>
      <point x="359" y="-100" type="line"/>
      <point x="359" y="20" type="line"/>
      <point x="239" y="20" type="line"/>
    </contour>
    <contour>
      <point x="239" y="700" type="line"/>
      <point x="359" y="700" type="line"/>
      <point x="359" y="819" type="line"/>
      <point x="239" y="819" type="line"/>
    </contour>
    <contour>
      <point x="303" y="-15" type="curve" smooth="yes"/>
      <point x="441" y="-15"/>
      <point x="570" y="58"/>
      <point x="570" y="210" type="curve" smooth="yes"/>
      <point x="570" y="355"/>
      <point x="449" y="389"/>
      <point x="387" y="408" type="curve" smooth="yes"/>
      <point x="265" y="443" type="line" smooth="yes"/>
      <point x="217" y="458"/>
      <point x="165" y="476"/>
      <point x="165" y="529" type="curve" smooth="yes"/>
      <point x="165" y="586"/>
      <point x="226" y="623"/>
      <point x="294" y="621" type="curve" smooth="yes"/>
      <point x="364" y="620"/>
      <point x="427" y="578"/>
      <point x="442" y="501" type="curve"/>
      <point x="566" y="523" type="line"/>
      <point x="534" y="660"/>
      <point x="431" y="733"/>
      <point x="295" y="734" type="curve" smooth="yes"/>
      <point x="158" y="735"/>
      <point x="46" y="664"/>
      <point x="46" y="523" type="curve" smooth="yes"/>
      <point x="46" y="388"/>
      <point x="150" y="354"/>
      <point x="198" y="339" type="curve" smooth="yes"/>
      <point x="371" y="286" type="line" smooth="yes"/>
      <point x="405" y="276"/>
      <point x="451" y="257"/>
      <point x="451" y="202" type="curve" smooth="yes"/>
      <point x="451" y="134"/>
      <point x="381" y="98"/>
      <point x="310" y="98" type="curve" smooth="yes"/>
      <point x="228" y="98"/>
      <point x="158" y="146"/>
      <point x="138" y="232" type="curve"/>
      <point x="19" y="213" type="line"/>
      <point x="41" y="71"/>
      <point x="154" y="-15"/>
    </contour>
  </outline>
</glyph>
<glyph name="ampersand" format="2">
  <advance width="668"/>
  <unicode hex="0026"/>
  <note>
ampersand
</note>
  <outline>
    <contour>
      <point x="309" y="-15" type="curve" smooth="yes"/>
      <point x="337" y="-15"/>
      <point x="364" y="-13"/>
      <point x="394" y="-6" type="curve" smooth="yes"/>
      <point x="435" y="2"/>
      <point x="477" y="22"/>
      <point x="511" y="54" type="curve"/>
      <point x="580" y="-12" type="line"/>
      <point x="658" y="71" type="line"/>
      <point x="569" y="153" type="line"/>
      <point x="574" y="175"/>
      <point x="576" y="211"/>
      <point x="576" y="247" type="curve" smooth="yes"/>
      <point x="576" y="378" type="line"/>
      <point x="470" y="378" type="line"/>
      <point x="470" y="290" type="line" smooth="yes"/>
      <point x="470" y="276"/>
      <point x="470" y="258"/>
      <point x="469" y="246" type="curve"/>
      <point x="289" y="413" type="line" smooth="yes"/>
      <point x="270" y="430"/>
      <point x="252" y="447"/>
      <point x="240" y="460" type="curve" smooth="yes"/>
      <point x="221" y="480"/>
      <point x="207" y="497"/>
      <point x="207" y="530" type="curve" smooth="yes"/>
      <point x="207" y="568"/>
      <point x="223" y="593"/>
      <point x="255" y="609" type="curve" smooth="yes"/>
      <point x="272" y="617"/>
      <point x="291" y="620"/>
      <point x="312" y="620" type="curve" smooth="yes"/>
      <point x="338" y="620"/>
      <point x="367" y="616"/>
      <point x="388" y="596" type="curve" smooth="yes"/>
      <point x="399" y="587"/>
      <point x="408" y="573"/>
      <point x="412" y="558" type="curve"/>
      <point x="532" y="584" type="line"/>
      <point x="523" y="616"/>
      <point x="505" y="648"/>
      <point x="480" y="673" type="curve" smooth="yes"/>
      <point x="439" y="716"/>
      <point x="378" y="733"/>
      <point x="315" y="733" type="curve" smooth="yes"/>
      <point x="281" y="733"/>
      <point x="246" y="730"/>
      <point x="212" y="717" type="curve" smooth="yes"/>
      <point x="134" y="688"/>
      <point x="86" y="616"/>
      <point x="86" y="532" type="curve" smooth="yes"/>
      <point x="86" y="476"/>
      <point x="106" y="439"/>
      <point x="145" y="395" type="curve"/>
      <point x="129" y="385"/>
      <point x="113" y="373"/>
      <point x="100" y="357" type="curve" smooth="yes"/>
      <point x="66" y="316"/>
      <point x="50" y="263"/>
      <point x="50" y="208" type="curve" smooth="yes"/>
      <point x="52" y="151"/>
      <point x="68" y="101"/>
      <point x="106" y="59" type="curve" smooth="yes"/>
      <point x="154" y="8"/>
      <point x="228" y="-15"/>
    </contour>
    <contour>
      <point x="313" y="100" type="curve" smooth="yes"/>
      <point x="272" y="100"/>
      <point x="222" y="112"/>
      <point x="197" y="142" type="curve"/>
      <point x="182" y="160"/>
      <point x="172" y="184"/>
      <point x="172" y="214" type="curve" smooth="yes"/>
      <point x="172" y="241"/>
      <point x="178" y="263"/>
      <point x="192" y="281" type="curve" smooth="yes"/>
      <point x="202" y="293"/>
      <point x="216" y="304"/>
      <point x="234" y="310" type="curve"/>
      <point x="424" y="136" type="line"/>
      <point x="411" y="125"/>
      <point x="394" y="115"/>
      <point x="370" y="107" type="curve" smooth="yes"/>
      <point x="352" y="101"/>
      <point x="334" y="100"/>
    </contour>
  </outline>
</glyph>
<glyph name="parenleft" format="2">
  <advance width="453"/>
  <unicode hex="0028"/>
  <note>
parenleft
</note>
  <outline>
    <contour>
      <point x="323" y="-190" type="curve"/>
      <point x="412" y="-124" type="line"/>
      <point x="292" y="20"/>
      <point x="250" y="170"/>
      <point x="249" y="330" type="curve" smooth="yes"/>
      <point x="250" y="491"/>
      <point x="292" y="640"/>
      <point x="412" y="784" type="curve"/>
      <point x="323" y="850" type="line"/>
      <point x="206" y="715"/>
      <point x="137" y="516"/>
      <point x="140" y="330" type="curve" smooth="yes"/>
      <point x="137" y="144"/>
      <point x="206" y="-55"/>
    </contour>
  </outline>
</glyph>
<glyph name="asterisk" format="2">
  <advance width="465"/>
  <unicode hex="002A"/>
  <note>
asterisk
</note>
  <outline>
    <contour>
      <point x="155" y="364" type="line"/>
      <point x="217" y="461" type="line"/>
      <point x="280" y="364" type="line"/>
      <point x="366" y="426" type="line"/>
      <point x="291" y="515" type="line"/>
      <point x="405" y="545" type="line"/>
      <point x="372" y="647" type="line"/>
      <point x="263" y="602" type="line"/>
      <point x="271" y="720" type="line"/>
      <point x="164" y="720" type="line"/>
      <point x="171" y="602" type="line"/>
      <point x="63" y="647" type="line"/>
      <point x="30" y="545" type="line"/>
      <point x="143" y="515" type="line"/>
      <point x="68" y="426" type="line"/>
    </contour>
  </outline>
</glyph>
<glyph name="plus" format="2">
  <advance width="572"/>
  <unicode hex="002B"/>
  <note>
plus
</note>
  <outline>
    <contour>
      <point x="239" y="134" type="line"/>
      <point x="334" y="134" type="line"/>
      <point x="334" y="313" type="line"/>
      <point x="512" y="313" type="line"/>
      <point x="512" y="408" type="line"/>
      <point x="334" y="408" type="line"/>
      <point x="334" y="586" type="line"/>
      <point x="239" y="586" type="line"/>
      <point x="239" y="408" type="line"/>
      <point x="60" y="408" type="line"/>
      <point x="60" y="313" type="line"/>
      <point x="239" y="313" type="line"/>
    </contour>
  </outline>
</glyph>
<glyph name="comma" format="2">
  <advance width="303"/>
  <unicode hex="002C"/>
  <note>
comma
</note>
  <outline>
    <contour>
      <point x="60" y="-127" type="line"/>
      <point x="142" y="-141"/>
      <point x="183" y="-92"/>
      <point x="183" y="-5" type="curve" smooth="yes"/>
      <point x="183" y="128" type="line"/>
      <point x="60" y="128" type="line"/>
      <point x="60" y="0" type="line"/>
      <point x="124" y="0" type="line"/>
      <point x="130" y="-45"/>
      <point x="113" y="-79"/>
      <point x="67" y="-76" type="curve"/>
    </contour>
  </outline>
</glyph>
<glyph name="zero" format="2">
  <advance width="658"/>
  <unicode hex="0030"/>
  <outline>
    <contour>
      <point x="329" y="-15" type="curve" smooth="yes"/>
      <point x="482" y="-15"/>
      <point x="588" y="91"/>
      <point x="588" y="244" type="curve" smooth="yes"/>
      <point x="588" y="476" type="line" smooth="yes"/>
      <point x="588" y="629"/>
      <point x="482" y="735"/>
      <point x="329" y="735" type="curve" smooth="yes"/>
      <point x="176" y="735"/>
      <point x="70" y="629"/>
      <point x="70" y="476" type="curve" smooth="yes"/>
      <point x="70" y="244" type="line" smooth="yes"/>
      <point x="70" y="91"/>
      <point x="176" y="-15"/>
    </contour>
    <contour>
      <point x="329" y="100" type="curve" smooth="yes"/>
      <point x="253" y="100"/>
      <point x="193" y="160"/>
      <point x="193" y="236" type="curve" smooth="yes"/>
      <point x="193" y="485" type="line" smooth="yes"/>
      <point x="193" y="561"/>
      <point x="253" y="621"/>
      <point x="329" y="621" type="curve" smooth="yes"/>
      <point x="405" y="621"/>
      <point x="465" y="561"/>
      <point x="465" y="485" type="curve" smooth="yes"/>
      <point x="465" y="236" type="line" smooth="yes"/>
      <point x="465" y="160"/>
      <point x="405" y="100"/>
    </contour>
  </outline>
</glyph>
<glyph name="two" format="2">
  <advance width="596"/>
  <unicode hex="0032"/>
  <note>
two
</note>
  <outline>
    <contour>
      <point x="50" y="1" type="line"/>
      <point x="546" y="1" type="line"/>
      <point x="546" y="114" type="line"/>
      <point x="191" y="114" type="line"/>
      <point x="202" y="84" type="line"/>
      <point x="421" y="278" type="line" smooth="yes"/>
      <point x="503" y="350"/>
      <point x="546" y="392"/>
      <point x="546" y="494" type="curve" smooth="yes"/>
      <point x="546" y="635"/>
      <point x="442" y="735"/>
      <point x="303" y="735" type="curve" smooth="yes"/>
      <point x="154" y="735"/>
      <point x="51" y="641"/>
      <point x="51" y="497" type="curve"/>
      <point x="175" y="497" type="line"/>
      <point x="173" y="563"/>
      <point x="226" y="621"/>
      <point x="301" y="621" type="curve" smooth="yes"/>
      <point x="372" y="621"/>
      <point x="422" y="568"/>
      <point x="422" y="496" type="curve" smooth="yes"/>
      <point x="422" y="460"/>
      <point x="406" y="423"/>
      <point x="358" y="381" type="curve" smooth="yes"/>
      <point x="50" y="106" type="line"/>
    </contour>
  </outline>
</glyph>
<glyph name="three" format="2">
  <advance width="582"/>
  <unicode hex="0033"/>
  <note>
three
</note>
  <outline>
    <contour>
      <point x="276" y="-13" type="curve" smooth="yes"/>
      <point x="411" y="-13"/>
      <point x="522" y="88"/>
      <point x="522" y="225" type="curve" smooth="yes"/>
      <point x="522" y="345"/>
      <point x="444" y="445"/>
      <point x="314" y="455" type="curve"/>
      <point x="315" y="419" type="line"/>
      <point x="510" y="606" type="line"/>
      <point x="510" y="720" type="line"/>
      <point x="68" y="720" type="line"/>
      <point x="68" y="606" type="line"/>
      <point x="410" y="606" type="line"/>
      <point x="400" y="636" type="line"/>
      <point x="158" y="428" type="line"/>
      <point x="213" y="334" type="line"/>
      <point x="232" y="344"/>
      <point x="254" y="351"/>
      <point x="275" y="351" type="curve" smooth="yes"/>
      <point x="348" y="351"/>
      <point x="399" y="296"/>
      <point x="399" y="225" type="curve" smooth="yes"/>
      <point x="399" y="154"/>
      <point x="346" y="101"/>
      <point x="276" y="100" type="curve" smooth="yes"/>
      <point x="222" y="100"/>
      <point x="173" y="132"/>
      <point x="156" y="190" type="curve"/>
      <point x="40" y="158" type="line"/>
      <point x="71" y="53"/>
      <point x="168" y="-13"/>
    </contour>
  </outline>
</glyph>
<glyph name="four" format="2">
  <advance width="609"/>
  <unicode hex="0034"/>
  <note>
four
</note>
  <outline>
    <contour>
      <point x="369" y="0" type="line"/>
      <point x="491" y="0" type="line"/>
      <point x="491" y="119" type="line"/>
      <point x="559" y="119" type="line"/>
      <point x="559" y="232" type="line"/>
      <point x="491" y="232" type="line"/>
      <point x="491" y="419" type="line"/>
      <point x="369" y="419" type="line"/>
      <point x="369" y="232" type="line"/>
      <point x="188" y="232" type="line"/>
      <point x="418" y="720" type="line"/>
      <point x="280" y="720" type="line"/>
      <point x="50" y="232" type="line"/>
      <point x="50" y="119" type="line"/>
      <point x="369" y="119" type="line"/>
    </contour>
  </outline>
</glyph>
<glyph name="five" format="2">
  <advance width="586"/>
  <unicode hex="0035"/>
  <note>
five
</note>
  <outline>
    <contour>
      <point x="284" y="-15" type="curve" smooth="yes"/>
      <point x="419" y="-15"/>
      <point x="536" y="92"/>
      <point x="536" y="227" type="curve" smooth="yes"/>
      <point x="536" y="362"/>
      <point x="440" y="462"/>
      <point x="304" y="462" type="curve" smooth="yes"/>
      <point x="258" y="462"/>
      <point x="205" y="445"/>
      <point x="168" y="412" type="curve"/>
      <point x="190" y="384" type="line"/>
      <point x="206" y="650" type="line"/>
      <point x="161" y="607" type="line"/>
      <point x="488" y="607" type="line"/>
      <point x="488" y="720" type="line"/>
      <point x="97" y="720" type="line"/>
      <point x="75" y="339" type="line"/>
      <point x="178" y="306" type="line"/>
      <point x="197" y="328"/>
      <point x="233" y="353"/>
      <point x="288" y="353" type="curve" smooth="yes"/>
      <point x="357" y="353"/>
      <point x="415" y="297"/>
      <point x="415" y="227" type="curve" smooth="yes"/>
      <point x="415" y="157"/>
      <point x="358" y="100"/>
      <point x="288" y="100" type="curve" smooth="yes"/>
      <point x="234" y="100"/>
      <point x="180" y="137"/>
      <point x="166" y="194" type="curve"/>
      <point x="50" y="163" type="line"/>
      <point x="80" y="58"/>
      <point x="174" y="-15"/>
    </contour>
  </outline>
</glyph>
<glyph name="six" format="2">
  <advance width="622"/>
  <unicode hex="0036"/>
  <note>
six
</note>
  <outline>
    <contour>
      <point x="319" y="-15" type="curve" smooth="yes"/>
      <point x="454" y="-15"/>
      <point x="568" y="91"/>
      <point x="568" y="227" type="curve" smooth="yes"/>
      <point x="568" y="362"/>
      <point x="472" y="462"/>
      <point x="337" y="462" type="curve" smooth="yes"/>
      <point x="273" y="462"/>
      <point x="212" y="434"/>
      <point x="171" y="386" type="curve"/>
      <point x="193" y="362" type="line"/>
      <point x="193" y="482" type="line" smooth="yes"/>
      <point x="193" y="554"/>
      <point x="249" y="621"/>
      <point x="332" y="621" type="curve" smooth="yes"/>
      <point x="372" y="621"/>
      <point x="410" y="603"/>
      <point x="436" y="573" type="curve"/>
      <point x="523" y="658" type="line"/>
      <point x="472" y="710"/>
      <point x="406" y="734"/>
      <point x="332" y="734" type="curve" smooth="yes"/>
      <point x="175" y="734"/>
      <point x="70" y="629"/>
      <point x="70" y="465" type="curve" smooth="yes"/>
      <point x="70" y="246" type="line" smooth="yes"/>
      <point x="70" y="93"/>
      <point x="178" y="-15"/>
    </contour>
    <contour>
      <point x="319" y="100" type="curve" smooth="yes"/>
      <point x="249" y="100"/>
      <point x="193" y="158"/>
      <point x="193" y="227" type="curve" smooth="yes"/>
      <point x="193" y="297"/>
      <point x="250" y="354"/>
      <point x="320" y="354" type="curve" smooth="yes"/>
      <point x="390" y="354"/>
      <point x="446" y="297"/>
      <point x="446" y="227" type="curve" smooth="yes"/>
      <point x="446" y="157"/>
      <point x="389" y="100"/>
    </contour>
  </outline>
</glyph>
<glyph name="eight" format="2">
  <advance width="612"/>
  <unicode hex="0038"/>
  <note>
eight
</note>
  <outline>
    <contour>
      <point x="306" y="-15" type="curve" smooth="yes"/>
      <point x="449" y="-15"/>
      <point x="552" y="79"/>
      <point x="552" y="212" type="curve" smooth="yes"/>
      <point x="552" y="292"/>
      <point x="514" y="365"/>
      <point x="445" y="404" type="curve"/>
      <point x="446" y="365" type="line"/>
      <point x="504" y="409"/>
      <point x="533" y="463"/>
      <point x="533" y="531" type="curve" smooth="yes"/>
      <point x="533" y="655"/>
      <point x="439" y="735"/>
      <point x="306" y="735" type="curve" smooth="yes"/>
      <point x="173" y="735"/>
      <point x="78" y="655"/>
      <point x="78" y="531" type="curve" smooth="yes"/>
      <point x="78" y="463"/>
      <point x="110" y="408"/>
      <point x="165" y="366" type="curve"/>
      <point x="168" y="405" type="line"/>
      <point x="97" y="363"/>
      <point x="60" y="292"/>
      <point x="60" y="212" type="curve" smooth="yes"/>
      <point x="60" y="79"/>
      <point x="162" y="-15"/>
    </contour>
    <contour>
      <point x="306" y="99" type="curve" smooth="yes"/>
      <point x="235" y="99"/>
      <point x="187" y="138"/>
      <point x="187" y="212" type="curve" smooth="yes"/>
      <point x="187" y="287"/>
      <point x="235" y="327"/>
      <point x="306" y="327" type="curve" smooth="yes"/>
      <point x="377" y="327"/>
      <point x="425" y="287"/>
      <point x="425" y="212" type="curve" smooth="yes"/>
      <point x="425" y="138"/>
      <point x="376" y="99"/>
    </contour>
    <contour>
      <point x="306" y="442" type="curve" smooth="yes"/>
      <point x="247" y="442"/>
      <point x="206" y="471"/>
      <point x="206" y="531" type="curve" smooth="yes"/>
      <point x="206" y="592"/>
      <point x="247" y="622"/>
      <point x="306" y="622" type="curve" smooth="yes"/>
      <point x="365" y="622"/>
      <point x="405" y="592"/>
      <point x="405" y="531" type="curve" smooth="yes"/>
      <point x="405" y="471"/>
      <point x="365" y="442"/>
    </contour>
  </outline>
</glyph>
<glyph name="less" format="2">
  <advance width="637"/>
  <unicode hex="003C"/>
  <note>
less
</note>
  <outline>
    <contour>
      <point x="380" y="75" type="line"/>
      <point x="455" y="149" type="line"/>
      <point x="284" y="315" type="line"/>
      <point x="455" y="481" type="line"/>
      <point x="380" y="555" type="line"/>
      <point x="140" y="315" type="line"/>
    </contour>
  </outline>
</glyph>
<glyph name="equal" format="2">
  <advance width="750"/>
  <unicode hex="003D"/>
  <note>
equal
</note>
  <outline>
    <contour>
      <point x="120" y="407" type="line"/>
      <point x="630" y="407" type="line"/>
      <point x="630" y="502" type="line"/>
      <point x="120" y="502" type="line"/>
    </contour>
    <contour>
      <point x="120" y="218" type="line"/>
      <point x="630" y="218" type="line"/>
      <point x="630" y="313" type="line"/>
      <point x="120" y="313" type="line"/>
    </contour>
  </outline>
</glyph>
<glyph name="question" format="2">
  <advance width="553"/>
  <unicode hex="003F"/>
  <note>
question
</note>
  <outline>
    <contour>
      <point x="200" y="195" type="curve"/>
      <point x="328" y="195" type="line"/>
      <point x="328" y="234"/>
      <point x="328" y="249"/>
      <point x="347" y="280" type="curve" smooth="yes"/>
      <point x="364" y="308"/>
      <point x="393" y="328"/>
      <point x="425" y="362" type="curve" smooth="yes"/>
      <point x="470" y="409"/>
      <point x="503" y="465"/>
      <point x="503" y="534" type="curve" smooth="yes"/>
      <point x="503" y="580"/>
      <point x="487" y="627"/>
      <point x="457" y="661" type="curve" smooth="yes"/>
      <point x="414" y="713"/>
      <point x="345" y="734"/>
      <point x="272" y="734" type="curve" smooth="yes"/>
      <point x="224" y="734"/>
      <point x="174" y="720"/>
      <point x="136" y="692" type="curve" smooth="yes"/>
      <point x="87" y="658"/>
      <point x="57" y="597"/>
      <point x="50" y="531" type="curve"/>
      <point x="177" y="531" type="line"/>
      <point x="176" y="559"/>
      <point x="185" y="583"/>
      <point x="205" y="599" type="curve" smooth="yes"/>
      <point x="222" y="614"/>
      <point x="249" y="620"/>
      <point x="277" y="620" type="curve" smooth="yes"/>
      <point x="310" y="620"/>
      <point x="341" y="611"/>
      <point x="360" y="587" type="curve" smooth="yes"/>
      <point x="371" y="572"/>
      <point x="376" y="552"/>
      <point x="376" y="531" type="curve" smooth="yes"/>
      <point x="376" y="496"/>
      <point x="369" y="468"/>
      <point x="342" y="438" type="curve" smooth="yes"/>
      <point x="292" y="385"/>
      <point x="256" y="374"/>
      <point x="230" y="322" type="curve" smooth="yes"/>
      <point x="208" y="285"/>
      <point x="200" y="241"/>
    </contour>
    <contour>
      <point x="201" y="0" type="line"/>
      <point x="328" y="0" type="line"/>
      <point x="328" y="132" type="line"/>
      <point x="201" y="132" type="line"/>
    </contour>
  </outline>
</glyph>
<glyph name="at" format="2">
  <advance width="916"/>
  <unicode hex="0040"/>
  <note>
at
</note>
  <outline>
    <contour>
      <point x="456" y="-105" type="curve" smooth="yes"/>
      <point x="511" y="-105"/>
      <point x="564" y="-96"/>
      <point x="613" y="-77" type="curve"/>
      <point x="581" y="13" type="line"/>
      <point x="544" y="-3"/>
      <point x="502" y="-10"/>
      <point x="461" y="-10" type="curve" smooth="yes"/>
      <point x="293" y="-10"/>
      <point x="186" y="84"/>
      <point x="181" y="259" type="curve" smooth="yes"/>
      <point x="176" y="447"/>
      <point x="288" y="550"/>
      <point x="459" y="550" type="curve" smooth="yes"/>
      <point x="575" y="550"/>
      <point x="734" y="494"/>
      <point x="734" y="270" type="curve" smooth="yes"/>
      <point x="735" y="220"/>
      <point x="724" y="157"/>
      <point x="678" y="157" type="curve" smooth="yes"/>
      <point x="645" y="157"/>
      <point x="625" y="179"/>
      <point x="625" y="222" type="curve"/>
      <point x="626" y="440" type="line"/>
      <point x="552" y="440" type="line"/>
      <point x="552" y="378" type="line"/>
      <point x="573" y="406" type="line"/>
      <point x="546" y="435"/>
      <point x="493" y="454"/>
      <point x="450" y="454" type="curve" smooth="yes"/>
      <point x="347" y="454"/>
      <point x="267" y="382"/>
      <point x="267" y="270" type="curve" smooth="yes"/>
      <point x="268" y="159"/>
      <point x="342" y="86"/>
      <point x="448" y="86" type="curve" smooth="yes"/>
      <point x="498" y="86"/>
      <point x="550" y="105"/>
      <point x="579" y="141" type="curve"/>
      <point x="543" y="148" type="line"/>
      <point x="566" y="92"/>
      <point x="621" y="62"/>
      <point x="682" y="62" type="curve" smooth="yes"/>
      <point x="780" y="62"/>
      <point x="836" y="157"/>
      <point x="836" y="270" type="curve" smooth="yes"/>
      <point x="836" y="487"/>
      <point x="697" y="645"/>
      <point x="450" y="645" type="curve" smooth="yes"/>
      <point x="251" y="645"/>
      <point x="79" y="519"/>
      <point x="80" y="256" type="curve" smooth="yes"/>
      <point x="81" y="44"/>
      <point x="231" y="-105"/>
    </contour>
    <contour>
      <point x="455" y="181" type="curve" smooth="yes"/>
      <point x="400" y="181"/>
      <point x="368" y="214"/>
      <point x="368" y="270" type="curve" smooth="yes"/>
      <point x="368" y="324"/>
      <point x="398" y="359"/>
      <point x="458" y="359" type="curve" smooth="yes"/>
      <point x="509" y="359"/>
      <point x="536" y="328"/>
      <point x="536" y="270" type="curve" smooth="yes"/>
      <point x="536" y="203"/>
      <point x="506" y="181"/>
    </contour>
  </outline>
</glyph>
<glyph name="A" format="2">
  <advance width="671"/>
  <unicode hex="0041"/>
  <note>
A
</note>
  <outline>
    <contour>
      <point x="20" y="0" type="line"/>
      <point x="144" y="0" type="line"/>
      <point x="347" y="646" type="line"/>
      <point x="321" y="646" type="line"/>
      <point x="526" y="0" type="line"/>
      <point x="651" y="0" type="line"/>
      <point x="424" y="720" type="line"/>
      <point x="247" y="720" type="line"/>
    </contour>
    <contour>
      <point x="147" y="156" type="line"/>
      <point x="525" y="156" type="line"/>
      <point x="525" y="269" type="line"/>
      <point x="147" y="269" type="line"/>
    </contour>
  </outline>
</glyph>
<glyph name="B" format="2">
  <advance width="631"/>
  <unicode hex="0042"/>
  <note>
B
</note>
  <outline>
    <contour>
      <point x="70" y="0" type="line"/>
      <point x="384" y="0" type="line" smooth="yes"/>
      <point x="526" y="0"/>
      <point x="601" y="86"/>
      <point x="601" y="214" type="curve" smooth="yes"/>
      <point x="601" y="298"/>
      <point x="553" y="369"/>
      <point x="462" y="390" type="curve"/>
      <point x="463" y="365" type="line"/>
      <point x="527" y="384"/>
      <point x="568" y="442"/>
      <point x="568" y="522" type="curve" smooth="yes"/>
      <point x="568" y="619"/>
      <point x="501" y="720"/>
      <point x="356" y="720" type="curve" smooth="yes"/>
      <point x="70" y="720" type="line"/>
    </contour>
    <contour>
      <point x="192" y="114" type="line"/>
      <point x="192" y="320" type="line"/>
      <point x="373" y="320" type="line" smooth="yes"/>
      <point x="440" y="320"/>
      <point x="479" y="276"/>
      <point x="479" y="218" type="curve" smooth="yes"/>
      <point x="479" y="154"/>
      <point x="433" y="114"/>
      <point x="370" y="114" type="curve" smooth="yes"/>
    </contour>
    <contour>
      <point x="192" y="432" type="line"/>
      <point x="192" y="607" type="line"/>
      <point x="354" y="607" type="line" smooth="yes"/>
      <point x="411" y="607"/>
      <point x="445" y="570"/>
      <point x="445" y="520" type="curve" smooth="yes"/>
      <point x="445" y="462"/>
      <point x="406" y="432"/>
      <point x="354" y="432" type="curve" smooth="yes"/>
    </contour>
  </outline>
</glyph>
<glyph name="C" format="2">
  <advance width="721"/>
  <unicode hex="0043"/>
  <note>
C
</note>
  <outline>
    <contour>
      <point x="372" y="-15" type="curve" smooth="yes"/>
      <point x="530" y="-15"/>
      <point x="644" y="68"/>
      <point x="684" y="213" type="curve"/>
      <point x="567" y="242" type="line"/>
      <point x="538" y="154"/>
      <point x="472" y="99"/>
      <point x="371" y="99" type="curve" smooth="yes"/>
      <point x="236" y="99"/>
      <point x="157" y="200"/>
      <point x="157" y="360" type="curve" smooth="yes"/>
      <point x="157" y="513"/>
      <point x="231" y="624"/>
      <point x="375" y="621" type="curve" smooth="yes"/>
      <point x="475" y="619"/>
      <point x="544" y="562"/>
      <point x="569" y="471" type="curve"/>
      <point x="690" y="488" type="line"/>
      <point x="655" y="641"/>
      <point x="538" y="735"/>
      <point x="371" y="735" type="curve" smooth="yes"/>
      <point x="158" y="735"/>
      <point x="30" y="583"/>
      <point x="30" y="362" type="curve" smooth="yes"/>
      <point x="30" y="150"/>
      <point x="150" y="-15"/>
    </contour>
  </outline>
</glyph>
<glyph name="D" format="2">
  <advance width="700"/>
  <unicode hex="0044"/>
  <note>
D
</note>
  <outline>
    <contour>
      <point x="70" y="0" type="line"/>
      <point x="299" y="0" type="line" smooth="yes"/>
      <point x="311" y="0"/>
      <point x="354" y="0"/>
      <point x="387" y="4" type="curve" smooth="yes"/>
      <point x="558" y="26"/>
      <point x="652" y="177"/>
      <point x="652" y="360" type="curve" smooth="yes"/>
      <point x="652" y="543"/>
      <point x="558" y="694"/>
      <point x="387" y="716" type="curve" smooth="yes"/>
      <point x="354" y="720"/>
      <point x="311" y="720"/>
      <point x="299" y="720" type="curve" smooth="yes"/>
      <point x="70" y="720" type="line"/>
    </contour>
    <contour>
      <point x="192" y="114" type="line"/>
      <point x="192" y="606" type="line"/>
      <point x="299" y="606" type="line" smooth="yes"/>
      <point x="319" y="606"/>
      <point x="355" y="606"/>
      <point x="379" y="601" type="curve" smooth="yes"/>
      <point x="479" y="582"/>
      <point x="524" y="477"/>
      <point x="524" y="360" type="curve" smooth="yes"/>
      <point x="524" y="247"/>
      <point x="481" y="139"/>
      <point x="379" y="119" type="curve" smooth="yes"/>
      <point x="355" y="114"/>
      <point x="320" y="114"/>
      <point x="299" y="114" type="curve" smooth="yes"/>
    </contour>
  </outline>
</glyph>
<glyph name="E" format="2">
  <advance width="585"/>
  <unicode hex="0045"/>
  <note>
E
</note>
  <outline>
    <contour>
      <point x="70" y="0" type="line"/>
      <point x="535" y="0" type="line"/>
      <point x="535" y="113" type="line"/>
      <point x="190" y="113" type="line"/>
      <point x="190" y="316" type="line"/>
      <point x="475" y="316" type="line"/>
      <point x="475" y="429" type="line"/>
      <point x="190" y="429" type="line"/>
      <point x="190" y="607" type="line"/>
      <point x="535" y="607" type="line"/>
      <point x="535" y="720" type="line"/>
      <point x="70" y="720" type="line"/>
    </contour>
  </outline>
</glyph>
<glyph name="G" format="2">
  <advance width="732"/>
  <unicode hex="0047"/>
  <note>
G
</note>
  <outline>
    <contour>
      <point x="367" y="-15" type="curve" smooth="yes"/>
      <point x="576" y="-15"/>
      <point x="702" y="132"/>
      <point x="702" y="335" type="curve" smooth="yes"/>
      <point x="702" y="339"/>
      <point x="701" y="367"/>
      <point x="700" y="378" type="curve"/>
      <point x="445" y="378" type="line"/>
      <point x="445" y="283" type="line"/>
      <point x="572" y="283" type="line"/>
      <point x="554" y="159"/>
      <point x="483" y="97"/>
      <point x="375" y="99" type="curve" smooth="yes"/>
      <point x="230" y="100"/>
      <point x="157" y="202"/>
      <point x="158" y="360" type="curve" smooth="yes"/>
      <point x="158" y="518"/>
      <point x="230" y="623"/>
      <point x="375" y="621" type="curve" smooth="yes"/>
      <point x="470" y="620"/>
      <point x="533" y="566"/>
      <point x="560" y="481" type="curve"/>
      <point x="683" y="500" type="line"/>
      <point x="646" y="648"/>
      <point x="544" y="735"/>
      <point x="367" y="735" type="curve" smooth="yes"/>
      <point x="175" y="735"/>
      <point x="30" y="596"/>
      <point x="30" y="360" type="curve" smooth="yes"/>
      <point x="30" y="120"/>
      <point x="180" y="-15"/>
    </contour>
  </outline>
</glyph>
<glyph name="H" format="2">
  <advance width="722"/>
  <unicode hex="0048"/>
  <note>
H
</note>
  <outline>
    <contour>
      <point x="70" y="0" type="line"/>
      <point x="190" y="0" type="line"/>
      <point x="190" y="304" type="line"/>
      <point x="531" y="304" type="line"/>
      <point x="531" y="0" type="line"/>
      <point x="652" y="0" type="line"/>
      <point x="652" y="720" type="line"/>
      <point x="531" y="720" type="line"/>
      <point x="531" y="417" type="line"/>
      <point x="190" y="417" type="line"/>
      <point x="190" y="720" type="line"/>
      <point x="70" y="720" type="line"/>
    </contour>
  </outline>
</glyph>
<glyph name="J" format="2">
  <advance width="501"/>
  <unicode hex="004A"/>
  <note>
J
</note>
  <outline>
    <contour>
      <point x="214" y="-15" type="curve" smooth="yes"/>
      <point x="291" y="-15"/>
      <point x="357" y="15"/>
      <point x="397" y="84" type="curve" smooth="yes"/>
      <point x="424" y="131"/>
      <point x="420" y="169"/>
      <point x="420" y="235" type="curve" smooth="yes"/>
      <point x="420" y="720" type="line"/>
      <point x="298" y="720" type="line"/>
      <point x="298" y="235" type="line" smooth="yes"/>
      <point x="298" y="196"/>
      <point x="298" y="167"/>
      <point x="289" y="146" type="curve" smooth="yes"/>
      <point x="274" y="112"/>
      <point x="237" y="98"/>
      <point x="209" y="98" type="curve" smooth="yes"/>
      <point x="167" y="98"/>
      <point x="126" y="132"/>
      <point x="119" y="172" type="curve"/>
      <point x="0" y="144" type="line"/>
      <point x="29" y="47"/>
      <point x="104" y="-15"/>
    </contour>
  </outline>
</glyph>
<glyph name="M" format="2">
  <advance width="855"/>
  <unicode hex="004D"/>
  <note>
M
</note>
  <outline>
    <contour>
      <point x="70" y="0" type="line"/>
      <point x="183" y="0" type="line"/>
      <point x="183" y="462" type="line"/>
      <point x="404" y="0" type="line"/>
      <point x="452" y="0" type="line"/>
      <point x="672" y="462" type="line"/>
      <point x="672" y="0" type="line"/>
      <point x="785" y="0" type="line"/>
      <point x="785" y="720" type="line"/>
      <point x="676" y="720" type="line"/>
      <point x="428" y="210" type="line"/>
      <point x="178" y="720" type="line"/>
      <point x="70" y="720" type="line"/>
    </contour>
  </outline>
</glyph>
<glyph name="O" format="2">
  <advance width="749"/>
  <unicode hex="004F"/>
  <outline>
    <contour>
      <point x="375" y="-15" type="curve" smooth="yes"/>
      <point x="590" y="-15"/>
      <point x="719" y="137"/>
      <point x="719" y="360" type="curve" smooth="yes"/>
      <point x="719" y="583"/>
      <point x="590" y="735"/>
      <point x="375" y="735" type="curve" smooth="yes"/>
      <point x="159" y="735"/>
      <point x="30" y="583"/>
      <point x="30" y="360" type="curve" smooth="yes"/>
      <point x="30" y="137"/>
      <point x="159" y="-15"/>
    </contour>
    <contour>
      <point x="375" y="99" type="curve" smooth="yes"/>
      <point x="230" y="100"/>
      <point x="157" y="202"/>
      <point x="158" y="360" type="curve" smooth="yes"/>
      <point x="158" y="518"/>
      <point x="230" y="623"/>
      <point x="375" y="621" type="curve" smooth="yes"/>
      <point x="520" y="620"/>
      <point x="592" y="518"/>
      <point x="592" y="360" type="curve" smooth="yes"/>
      <point x="592" y="202"/>
      <point x="520" y="97"/>
    </contour>
  </outline>
</glyph>
<glyph name="P" format="2">
  <advance width="638"/>
  <unicode hex="0050"/>
  <note>
P
</note>
  <outline>
    <contour>
      <point x="70" y="0" type="line"/>
      <point x="190" y="0" type="line"/>
      <point x="190" y="251" type="line"/>
      <point x="368" y="251" type="line" smooth="yes"/>
      <point x="381" y="251"/>
      <point x="406" y="252"/>
      <point x="425" y="255" type="curve" smooth="yes"/>
      <point x="549" y="275"/>
      <point x="608" y="367"/>
      <point x="608" y="486" type="curve" smooth="yes"/>
      <point x="608" y="604"/>
      <point x="550" y="697"/>
      <point x="425" y="716" type="curve" smooth="yes"/>
      <point x="406" y="719"/>
      <point x="382" y="720"/>
      <point x="368" y="720" type="curve" smooth="yes"/>
      <point x="70" y="720" type="line"/>
    </contour>
    <contour>
      <point x="190" y="364" type="line"/>
      <point x="190" y="607" type="line"/>
      <point x="362" y="607" type="line" smooth="yes"/>
      <point x="376" y="607"/>
      <point x="394" y="606"/>
      <point x="408" y="602" type="curve" smooth="yes"/>
      <point x="468" y="587"/>
      <point x="487" y="532"/>
      <point x="487" y="486" type="curve" smooth="yes"/>
      <point x="487" y="440"/>
      <point x="468" y="384"/>
      <point x="408" y="369" type="curve" smooth="yes"/>
      <point x="394" y="365"/>
      <point x="376" y="364"/>
      <point x="362" y="364" type="curve" smooth="yes"/>
    </contour>
  </outline>
</glyph>
<glyph name="Q" format="2">
  <advance width="749"/>
  <unicode hex="0051"/>
  <note>
Q
</note>
  <outline>
    <contour>
      <point x="634" y="-15" type="line"/>
      <point x="708" y="61" type="line"/>
      <point x="504" y="265" type="line"/>
      <point x="428" y="190" type="line"/>
    </contour>
    <component base="O"/>
  </outline>
</glyph>
<glyph name="R" format="2">
  <advance width="660"/>
  <unicode hex="0052"/>
  <note>
R
</note>
  <outline>
    <contour>
      <point x="70" y="0" type="line"/>
      <point x="190" y="0" type="line"/>
      <point x="190" y="251" type="line"/>
      <point x="376" y="251" type="line"/>
      <point x="428" y="256" type="line"/>
      <point x="550" y="276"/>
      <point x="608" y="368"/>
      <point x="608" y="486" type="curve" smooth="yes"/>
      <point x="608" y="604"/>
      <point x="550" y="697"/>
      <point x="425" y="716" type="curve" smooth="yes"/>
      <point x="406" y="719"/>
      <point x="382" y="720"/>
      <point x="368" y="720" type="curve" smooth="yes"/>
      <point x="70" y="720" type="line"/>
    </contour>
    <contour>
      <point x="484" y="0" type="line"/>
      <point x="620" y="0" type="line"/>
      <point x="464" y="320" type="line"/>
      <point x="342" y="293" type="line"/>
    </contour>
    <contour>
      <point x="190" y="364" type="line"/>
      <point x="190" y="607" type="line"/>
      <point x="362" y="607" type="line" smooth="yes"/>
      <point x="376" y="607"/>
      <point x="394" y="606"/>
      <point x="408" y="602" type="curve" smooth="yes"/>
      <point x="468" y="587"/>
      <point x="487" y="532"/>
      <point x="487" y="486" type="curve" smooth="yes"/>
      <point x="487" y="440"/>
      <point x="468" y="384"/>
      <point x="408" y="369" type="curve" smooth="yes"/>
      <point x="394" y="365"/>
      <point x="376" y="364"/>
      <point x="362" y="364" type="curve" smooth="yes"/>
    </contour>
  </outline>
</glyph>
<glyph name="S" format="2">
  <advance width="657"/>
  <unicode hex="0053"/>
  <note>
S
</note>
  <outline>
    <contour>
      <point x="336" y="-15" type="curve" smooth="yes"/>
      <point x="482" y="-15"/>
      <point x="619" y="58"/>
      <point x="619" y="210" type="curve" smooth="yes"/>
      <point x="619" y="352"/>
      <point x="497" y="388"/>
      <point x="426" y="408" type="curve" smooth="yes"/>
      <point x="297" y="443" type="line" smooth="yes"/>
      <point x="245" y="458"/>
      <point x="193" y="477"/>
      <point x="193" y="529" type="curve" smooth="yes"/>
      <point x="193" y="586"/>
      <point x="257" y="623"/>
      <point x="328" y="621" type="curve" smooth="yes"/>
      <point x="401" y="620"/>
      <point x="468" y="578"/>
      <point x="484" y="501" type="curve"/>
      <point x="614" y="523" type="line"/>
      <point x="581" y="658"/>
      <point x="476" y="732"/>
      <point x="330" y="734" type="curve" smooth="yes"/>
      <point x="184" y="735"/>
      <point x="66" y="664"/>
      <point x="66" y="523" type="curve" smooth="yes"/>
      <point x="66" y="390"/>
      <point x="173" y="355"/>
      <point x="227" y="339" type="curve" smooth="yes"/>
      <point x="409" y="286" type="line" smooth="yes"/>
      <point x="468" y="268"/>
      <point x="493" y="242"/>
      <point x="493" y="202" type="curve" smooth="yes"/>
      <point x="493" y="134"/>
      <point x="419" y="98"/>
      <point x="344" y="98" type="curve" smooth="yes"/>
      <point x="258" y="98"/>
      <point x="185" y="146"/>
      <point x="164" y="232" type="curve"/>
      <point x="38" y="213" type="line"/>
      <point x="61" y="71"/>
      <point x="180" y="-15"/>
    </contour>
  </outline>
</glyph>
<glyph name="T" format="2">
  <advance width="607"/>
  <unicode hex="0054"/>
  <note>
T
</note>
  <outline>
    <contour>
      <point x="243" y="0" type="line"/>
      <point x="364" y="0" type="line"/>
      <point x="364" y="607" type="line"/>
      <point x="597" y="607" type="line"/>
      <point x="597" y="720" type="line"/>
      <point x="10" y="720" type="line"/>
      <point x="10" y="607" type="line"/>
      <point x="243" y="607" type="line"/>
    </contour>
  </outline>
</glyph>
<glyph name="U" format="2">
  <advance width="720"/>
  <unicode hex="0055"/>
  <note>
U
</note>
  <outline>
    <contour>
      <point x="360" y="-15" type="curve" smooth="yes"/>
      <point x="532" y="-15"/>
      <point x="650" y="96"/>
      <point x="650" y="268" type="curve" smooth="yes"/>
      <point x="650" y="720" type="line"/>
      <point x="528" y="720" type="line"/>
      <point x="528" y="271" type="line" smooth="yes"/>
      <point x="528" y="164"/>
      <point x="449" y="98"/>
      <point x="360" y="98" type="curve" smooth="yes"/>
      <point x="272" y="98"/>
      <point x="192" y="162"/>
      <point x="192" y="271" type="curve" smooth="yes"/>
      <point x="192" y="720" type="line"/>
      <point x="70" y="719" type="line"/>
      <point x="70" y="268" type="line" smooth="yes"/>
      <point x="70" y="96"/>
      <point x="188" y="-15"/>
    </contour>
  </outline>
</glyph>
<glyph name="W" format="2">
  <advance width="976"/>
  <unicode hex="0057"/>
  <note>
W
</note>
  <outline>
    <contour>
      <point x="222" y="0" type="line"/>
      <point x="341" y="0" type="line"/>
      <point x="487" y="512" type="line"/>
      <point x="635" y="0" type="line"/>
      <point x="754" y="0" type="line"/>
      <point x="964" y="720" type="line"/>
      <point x="838" y="720" type="line"/>
      <point x="694" y="200" type="line"/>
      <point x="550" y="720" type="line"/>
      <point x="424" y="719" type="line"/>
      <point x="281" y="200" type="line"/>
      <point x="138" y="720" type="line"/>
      <point x="12" y="720" type="line"/>
    </contour>
  </outline>
</glyph>
<glyph name="X" format="2">
  <advance width="656"/>
  <unicode hex="0058"/>
  <note>
X
</note>
  <outline>
    <contour>
      <point x="10" y="0" type="line"/>
      <point x="158" y="0" type="line"/>
      <point x="328" y="262" type="line"/>
      <point x="498" y="0" type="line"/>
      <point x="646" y="0" type="line"/>
      <point x="402" y="364" type="line"/>
      <point x="640" y="720" type="line"/>
      <point x="491" y="720" type="line"/>
      <point x="328" y="466" type="line"/>
      <point x="164" y="720" type="line"/>
      <point x="17" y="720" type="line"/>
      <point x="254" y="364" type="line"/>
    </contour>
  </outline>
</glyph>
<glyph name="Y" format="2">
  <advance width="612"/>
  <unicode hex="0059"/>
  <note>
Y
</note>
  <outline>
    <contour>
      <point x="245" y="0" type="line"/>
      <point x="367" y="0" type="line"/>
      <point x="367" y="295" type="line"/>
      <point x="612" y="720" type="line"/>
      <point x="471" y="720" type="line"/>
      <point x="306" y="433" type="line"/>
      <point x="140" y="720" type="line"/>
      <point x="0" y="720" type="line"/>
      <point x="245" y="295" type="line"/>
    </contour>
  </outline>
</glyph>
<glyph name="Z" format="2">
  <advance width="664"/>
  <unicode hex="005A"/>
  <note>
Z
</note>
  <outline>
    <contour>
      <point x="50" y="0" type="line"/>
      <point x="605" y="0" type="line"/>
      <point x="605" y="114" type="line"/>
      <point x="261" y="114" type="line"/>
      <point x="614" y="703" type="line"/>
      <point x="614" y="720" type="line"/>
      <point x="75" y="720" type="line"/>
      <point x="75" y="607" type="line"/>
      <point x="405" y="607" type="line"/>
      <point x="50" y="17" type="line"/>
    </contour>
  </outline>
</glyph>
<glyph name="bracketleft" format="2">
  <advance width="424"/>
  <unicode hex="005B"/>
  <outline>
    <contour>
      <point x="140" y="-212" type="line"/>
      <point x="358" y="-212" type="line"/>
      <point x="358" y="-105" type="line"/>
      <point x="247" y="-105" type="line"/>
      <point x="247" y="790" type="line"/>
      <point x="358" y="790" type="line"/>
      <point x="358" y="897" type="line"/>
      <point x="140" y="897" type="line"/>
    </contour>
  </outline>
</glyph>
<glyph name="backslash" format="2">
  <advance width="433"/>
  <unicode hex="005C"/>
  <outline>
    <contour>
      <point x="181" y="720" type="line"/>
      <point x="60" y="720" type="line"/>
      <point x="252" y="0" type="line"/>
      <point x="373" y="0" type="line"/>
    </contour>
  </outline>
</glyph>
<glyph name="a" format="2">
  <advance width="576"/>
  <unicode hex="0061"/>
  <note>
a
</note>
  <outline>
    <contour>
      <point x="227" y="-15" type="curve" smooth="yes"/>
      <point x="325" y="-15"/>
      <point x="384" y="30"/>
      <point x="428" y="94" type="curve"/>
      <point x="410" y="116" type="line"/>
      <point x="410" y="0" type="line"/>
      <point x="516" y="0" type="line"/>
      <point x="516" y="325" type="line"/>
      <point x="516" y="345"/>
      <point x="516" y="383"/>
      <point x="505" y="420" type="curve" smooth="yes"/>
      <point x="479" y="504"/>
      <point x="407" y="555"/>
      <point x="291" y="555" type="curve" smooth="yes"/>
      <point x="174" y="555"/>
      <point x="93" y="488"/>
      <point x="59" y="404" type="curve"/>
      <point x="168" y="370" type="line"/>
      <point x="188" y="422"/>
      <point x="235" y="445"/>
      <point x="287" y="445" type="curve" smooth="yes"/>
      <point x="356" y="445"/>
      <point x="406" y="408"/>
      <point x="396" y="316" type="curve"/>
      <point x="423" y="340" type="line"/>
      <point x="290" y="322" type="line" smooth="yes"/>
      <point x="200" y="311"/>
      <point x="40" y="288"/>
      <point x="40" y="145" type="curve" smooth="yes"/>
      <point x="40" y="52"/>
      <point x="107" y="-15"/>
    </contour>
    <contour>
      <point x="245" y="80" type="curve" smooth="yes"/>
      <point x="190" y="80"/>
      <point x="158" y="108"/>
      <point x="158" y="148" type="curve" smooth="yes"/>
      <point x="158" y="221"/>
      <point x="265" y="236"/>
      <point x="322" y="242" type="curve" smooth="yes"/>
      <point x="440" y="256" type="line"/>
      <point x="398" y="273" type="line"/>
      <point x="399" y="229"/>
      <point x="396" y="185"/>
      <point x="378" y="152" type="curve" smooth="yes"/>
      <point x="357" y="115"/>
      <point x="306" y="80"/>
    </contour>
  </outline>
</glyph>
<glyph name="c" format="2">
  <advance width="576"/>
  <unicode hex="0063"/>
  <note>
c
</note>
  <outline>
    <contour>
      <point x="304" y="-15" type="curve" smooth="yes"/>
      <point x="425" y="-15"/>
      <point x="512" y="46"/>
      <point x="545" y="156" type="curve"/>
      <point x="422" y="183" type="line"/>
      <point x="403" y="128"/>
      <point x="368" y="98"/>
      <point x="304" y="98" type="curve" smooth="yes"/>
      <point x="214" y="98"/>
      <point x="168" y="167"/>
      <point x="168" y="270" type="curve" smooth="yes"/>
      <point x="168" y="369"/>
      <point x="210" y="442"/>
      <point x="304" y="442" type="curve" smooth="yes"/>
      <point x="360" y="442"/>
      <point x="406" y="408"/>
      <point x="425" y="350" type="curve"/>
      <point x="545" y="383" type="line"/>
      <point x="519" y="489"/>
      <point x="429" y="555"/>
      <point x="306" y="555" type="curve" smooth="yes"/>
      <point x="142" y="555"/>
      <point x="40" y="436"/>
      <point x="40" y="270" type="curve" smooth="yes"/>
      <point x="40" y="107"/>
      <point x="138" y="-15"/>
    </contour>
  </outline>
</glyph>
<glyph name="e" format="2">
  <advance width="602"/>
  <unicode hex="0065"/>
  <note>
e
</note>
  <outline>
    <contour>
      <point x="315" y="-15" type="curve" smooth="yes"/>
      <point x="417" y="-15"/>
      <point x="514" y="42"/>
      <point x="554" y="139" type="curve"/>
      <point x="435" y="175" type="line"/>
      <point x="411" y="124"/>
      <point x="365" y="98"/>
      <point x="309" y="98" type="curve" smooth="yes"/>
      <point x="216" y="98"/>
      <point x="168" y="165"/>
      <point x="168" y="270" type="curve" smooth="yes"/>
      <point x="168" y="374"/>
      <point x="205" y="450"/>
      <point x="309" y="450" type="curve" smooth="yes"/>
      <point x="412" y="450"/>
      <point x="440" y="387"/>
      <point x="440" y="280" type="curve"/>
      <point x="440" y="236" type="line"/>
      <point x="560" y="236" type="line"/>
      <point x="573" y="422"/>
      <point x="484" y="555"/>
      <point x="309" y="555" type="curve" smooth="yes"/>
      <point x="146" y="555"/>
      <point x="40" y="438"/>
      <point x="40" y="264" type="curve" smooth="yes"/>
      <point x="40" y="102"/>
      <point x="148" y="-15"/>
    </contour>
    <contour>
      <point x="130" y="236" type="line"/>
      <point x="501" y="236" type="line"/>
      <point x="501" y="331" type="line"/>
      <point x="130" y="331" type="line"/>
    </contour>
  </outline>
</glyph>
<glyph name="f" format="2">
  <advance width="378"/>
  <unicode hex="0066"/>
  <note>
f
</note>
  <outline>
    <contour>
      <point x="117" y="0" type="line"/>
      <point x="238" y="0" type="line"/>
      <point x="238" y="574" type="line" smooth="yes"/>
      <point x="238" y="612"/>
      <point x="259" y="637"/>
      <point x="306" y="637" type="curve" smooth="yes"/>
      <point x="368" y="637" type="line"/>
      <point x="368" y="735" type="line"/>
      <point x="301" y="735" type="line" smooth="yes"/>
      <point x="261" y="735"/>
      <point x="198" y="738"/>
      <point x="152" y="688" type="curve" smooth="yes"/>
      <point x="116" y="647"/>
      <point x="117" y="590"/>
      <point x="117" y="548" type="curve" smooth="yes"/>
    </contour>
    <contour>
      <point x="30" y="446" type="line"/>
      <point x="368" y="446" type="line"/>
      <point x="368" y="540" type="line"/>
      <point x="30" y="540" type="line"/>
    </contour>
  </outline>
</glyph>
<glyph name="g" format="2">
  <advance width="616"/>
  <unicode hex="0067"/>
  <note>
g
</note>
  <outline>
    <contour>
      <point x="297" y="-255" type="curve" smooth="yes"/>
      <point x="419" y="-255"/>
      <point x="514" y="-206"/>
      <point x="538" y="-102" type="curve" smooth="yes"/>
      <point x="544" y="-78"/>
      <point x="546" y="-54"/>
      <point x="546" y="-26" type="curve" smooth="yes"/>
      <point x="546" y="540" type="line"/>
      <point x="440" y="540" type="line"/>
      <point x="440" y="130" type="line"/>
      <point x="426" y="130" type="line"/>
      <point x="426" y="-24" type="line" smooth="yes"/>
      <point x="427" y="-101"/>
      <point x="373" y="-140"/>
      <point x="298" y="-140" type="curve" smooth="yes"/>
      <point x="255" y="-140"/>
      <point x="214" y="-122"/>
      <point x="194" y="-82" type="curve"/>
      <point x="82" y="-138" type="line"/>
      <point x="125" y="-211"/>
      <point x="207" y="-255"/>
    </contour>
    <contour>
      <point x="287" y="-15" type="curve" smooth="yes"/>
      <point x="445" y="-15"/>
      <point x="526" y="108"/>
      <point x="526" y="270" type="curve" smooth="yes"/>
      <point x="526" y="432"/>
      <point x="445" y="555"/>
      <point x="291" y="555" type="curve" smooth="yes"/>
      <point x="138" y="555"/>
      <point x="40" y="434"/>
      <point x="40" y="270" type="curve" smooth="yes"/>
      <point x="40" y="108"/>
      <point x="137" y="-15"/>
    </contour>
    <contour>
      <point x="305" y="93" type="curve" smooth="yes"/>
      <point x="211" y="93"/>
      <point x="168" y="171"/>
      <point x="168" y="270" type="curve" smooth="yes"/>
      <point x="168" y="368"/>
      <point x="212" y="447"/>
      <point x="309" y="447" type="curve" smooth="yes"/>
      <point x="401" y="447"/>
      <point x="440" y="375"/>
      <point x="440" y="270" type="curve" smooth="yes"/>
      <point x="440" y="165"/>
      <point x="402" y="93"/>
    </contour>
  </outline>
</glyph>
<glyph name="h" format="2">
  <advance width="626"/>
  <unicode hex="0068"/>
  <note>
h
</note>
  <outline>
    <contour>
      <point x="444" y="0" type="line"/>
      <point x="566" y="0" type="line"/>
      <point x="566" y="302" type="line" smooth="yes"/>
      <point x="566" y="366"/>
      <point x="552" y="555"/>
      <point x="353" y="555" type="curve" smooth="yes"/>
      <point x="201" y="555"/>
      <point x="120" y="446"/>
      <point x="120" y="308" type="curve"/>
      <point x="191" y="278" type="line"/>
      <point x="191" y="408"/>
      <point x="256" y="442"/>
      <point x="317" y="442" type="curve" smooth="yes"/>
      <point x="433" y="442"/>
      <point x="444" y="327"/>
      <point x="444" y="260" type="curve" smooth="yes"/>
    </contour>
    <contour>
      <point x="70" y="0" type="line"/>
      <point x="191" y="0" type="line"/>
      <point x="191" y="341" type="line"/>
      <point x="176" y="341" type="line"/>
      <point x="176" y="720" type="line"/>
      <point x="70" y="720" type="line"/>
    </contour>
  </outline>
</glyph>
<glyph name="j" format="2">
  <advance width="288"/>
  <unicode hex="006A"/>
  <note>
j
</note>
  <outline>
    <contour>
      <point x="-10" y="-240" type="line"/>
      <point x="72" y="-240" type="line" smooth="yes"/>
      <point x="162" y="-240"/>
      <point x="217" y="-187"/>
      <point x="217" y="-100" type="curve" smooth="yes"/>
      <point x="217" y="540" type="line"/>
      <point x="96" y="540" type="line"/>
      <point x="96" y="-46" type="line" smooth="yes"/>
      <point x="96" y="-100"/>
      <point x="74" y="-127"/>
      <point x="16" y="-127" type="curve" smooth="yes"/>
      <point x="-10" y="-127" type="line"/>
    </contour>
    <contour>
      <point x="96" y="608" type="line"/>
      <point x="217" y="608" type="line"/>
      <point x="217" y="718" type="line"/>
      <point x="96" y="718" type="line"/>
    </contour>
  </outline>
</glyph>
<glyph name="k" format="2">
  <advance width="539"/>
  <unicode hex="006B"/>
  <note>
k
</note>
  <outline>
    <contour>
      <point x="70" y="0" type="line"/>
      <point x="193" y="0" type="line"/>
      <point x="193" y="260" type="line"/>
      <point x="399" y="0" type="line"/>
      <point x="559" y="0" type="line"/>
      <point x="331" y="270" type="line"/>
      <point x="541" y="540" type="line"/>
      <point x="390" y="540" type="line"/>
      <point x="193" y="280" type="line"/>
      <point x="193" y="720" type="line"/>
      <point x="71" y="720" type="line"/>
    </contour>
  </outline>
</glyph>
<glyph name="m" format="2">
  <advance width="900"/>
  <unicode hex="006D"/>
  <note>
m
</note>
  <outline>
    <contour>
      <point x="719" y="0" type="line"/>
      <point x="840" y="0" type="line"/>
      <point x="840" y="358" type="line" smooth="yes"/>
      <point x="840" y="475"/>
      <point x="774" y="553"/>
      <point x="655" y="553" type="curve" smooth="yes"/>
      <point x="547" y="553"/>
      <point x="461" y="476"/>
      <point x="462" y="364" type="curve"/>
      <point x="516" y="332" type="line"/>
      <point x="516" y="404"/>
      <point x="559" y="446"/>
      <point x="618" y="446" type="curve" smooth="yes"/>
      <point x="680" y="446"/>
      <point x="720" y="402"/>
      <point x="720" y="328" type="curve" smooth="yes"/>
    </contour>
    <contour>
      <point x="70" y="0" type="line"/>
      <point x="191" y="0" type="line"/>
      <point x="191" y="372" type="line"/>
      <point x="176" y="372" type="line"/>
      <point x="176" y="540" type="line"/>
      <point x="70" y="540" type="line"/>
    </contour>
    <contour>
      <point x="395" y="0" type="line"/>
      <point x="515" y="0" type="line"/>
      <point x="516" y="358" type="line" smooth="yes"/>
      <point x="516" y="469"/>
      <point x="454" y="553"/>
      <point x="333" y="553" type="curve" smooth="yes"/>
      <point x="223" y="553"/>
      <point x="138" y="474"/>
      <point x="138" y="368" type="curve"/>
      <point x="191" y="332" type="line"/>
      <point x="191" y="400"/>
      <point x="232" y="446"/>
      <point x="293" y="446" type="curve" smooth="yes"/>
      <point x="356" y="446"/>
      <point x="395" y="401"/>
      <point x="395" y="327" type="curve" smooth="yes"/>
    </contour>
  </outline>
</glyph>
<glyph name="n" format="2">
  <advance width="626"/>
  <unicode hex="006E"/>
  <note>
n
</note>
  <outline>
    <contour>
      <point x="444" y="0" type="line"/>
      <point x="566" y="0" type="line"/>
      <point x="566" y="302" type="line" smooth="yes"/>
      <point x="566" y="366"/>
      <point x="552" y="555"/>
      <point x="353" y="555" type="curve" smooth="yes"/>
      <point x="201" y="555"/>
      <point x="120" y="446"/>
      <point x="120" y="308" type="curve"/>
      <point x="191" y="278" type="line"/>
      <point x="191" y="408"/>
      <point x="256" y="442"/>
      <point x="317" y="442" type="curve" smooth="yes"/>
      <point x="433" y="442"/>
      <point x="444" y="327"/>
      <point x="444" y="260" type="curve" smooth="yes"/>
    </contour>
    <contour>
      <point x="70" y="0" type="line"/>
      <point x="191" y="0" type="line"/>
      <point x="191" y="372" type="line"/>
      <point x="176" y="372" type="line"/>
      <point x="176" y="540" type="line"/>
      <point x="70" y="540" type="line"/>
    </contour>
  </outline>
</glyph>
<glyph name="o" format="2">
  <advance width="618"/>
  <unicode hex="006F"/>
  <note>
o
</note>
  <outline>
    <contour>
      <point x="309" y="-15" type="curve" smooth="yes"/>
      <point x="470" y="-15"/>
      <point x="578" y="102"/>
      <point x="578" y="270" type="curve" smooth="yes"/>
      <point x="578" y="437"/>
      <point x="471" y="555"/>
      <point x="309" y="555" type="curve" smooth="yes"/>
      <point x="149" y="555"/>
      <point x="40" y="439"/>
      <point x="40" y="270" type="curve" smooth="yes"/>
      <point x="40" y="103"/>
      <point x="146" y="-15"/>
    </contour>
    <contour>
      <point x="309" y="98" type="curve" smooth="yes"/>
      <point x="216" y="98"/>
      <point x="168" y="165"/>
      <point x="168" y="270" type="curve" smooth="yes"/>
      <point x="168" y="372"/>
      <point x="212" y="442"/>
      <point x="309" y="442" type="curve" smooth="yes"/>
      <point x="403" y="442"/>
      <point x="451" y="375"/>
      <point x="451" y="270" type="curve" smooth="yes"/>
      <point x="451" y="168"/>
      <point x="404" y="98"/>
    </contour>
  </outline>
</glyph>
<glyph name="p" format="2">
  <advance width="617"/>
  <unicode hex="0070"/>
  <note>
p
</note>
  <outline>
    <contour>
      <point x="330" y="-15" type="curve" smooth="yes"/>
      <point x="480" y="-15"/>
      <point x="577" y="108"/>
      <point x="577" y="270" type="curve" smooth="yes"/>
      <point x="577" y="434"/>
      <point x="479" y="555"/>
      <point x="326" y="555" type="curve" smooth="yes"/>
      <point x="172" y="555"/>
      <point x="90" y="432"/>
      <point x="90" y="270" type="curve" smooth="yes"/>
      <point x="90" y="108"/>
      <point x="172" y="-15"/>
    </contour>
    <contour>
      <point x="70" y="-240" type="line"/>
      <point x="191" y="-240" type="line"/>
      <point x="191" y="161" type="line"/>
      <point x="176" y="161" type="line"/>
      <point x="176" y="540" type="line"/>
      <point x="70" y="540" type="line"/>
    </contour>
    <contour>
      <point x="312" y="93" type="curve" smooth="yes"/>
      <point x="215" y="93"/>
      <point x="176" y="165"/>
      <point x="176" y="270" type="curve" smooth="yes"/>
      <point x="176" y="375"/>
      <point x="216" y="447"/>
      <point x="308" y="447" type="curve" smooth="yes"/>
      <point x="405" y="447"/>
      <point x="449" y="368"/>
      <point x="449" y="270" type="curve" smooth="yes"/>
      <point x="449" y="171"/>
      <point x="406" y="93"/>
    </contour>
  </outline>
</glyph>
<glyph name="q" format="2">
  <advance width="617"/>
  <unicode hex="0071"/>
  <note>
q
</note>
  <outline>
    <contour>
      <point x="287" y="-15" type="curve" smooth="yes"/>
      <point x="445" y="-15"/>
      <point x="526" y="108"/>
      <point x="526" y="270" type="curve" smooth="yes"/>
      <point x="526" y="432"/>
      <point x="445" y="555"/>
      <point x="291" y="555" type="curve" smooth="yes"/>
      <point x="138" y="555"/>
      <point x="40" y="434"/>
      <point x="40" y="270" type="curve" smooth="yes"/>
      <point x="40" y="108"/>
      <point x="137" y="-15"/>
    </contour>
    <contour>
      <point x="305" y="93" type="curve" smooth="yes"/>
      <point x="211" y="93"/>
      <point x="168" y="171"/>
      <point x="168" y="270" type="curve" smooth="yes"/>
      <point x="168" y="368"/>
      <point x="212" y="447"/>
      <point x="309" y="447" type="curve" smooth="yes"/>
      <point x="401" y="447"/>
      <point x="440" y="375"/>
      <point x="440" y="270" type="curve" smooth="yes"/>
      <point x="440" y="165"/>
      <point x="402" y="93"/>
    </contour>
    <contour>
      <point x="426" y="-240" type="line"/>
      <point x="547" y="-240" type="line"/>
      <point x="547" y="540" type="line"/>
      <point x="440" y="540" type="line"/>
      <point x="440" y="161" type="line"/>
      <point x="426" y="161" type="line"/>
    </contour>
  </outline>
</glyph>
<glyph name="r" format="2">
  <advance width="399"/>
  <unicode hex="0072"/>
  <note>
r
</note>
  <outline>
    <contour>
      <point x="70" y="0" type="line"/>
      <point x="191" y="0" type="line"/>
      <point x="191" y="274" type="line" smooth="yes"/>
      <point x="191" y="337"/>
      <point x="213" y="388"/>
      <point x="262" y="415" type="curve" smooth="yes"/>
      <point x="296" y="434"/>
      <point x="342" y="437"/>
      <point x="374" y="428" type="curve"/>
      <point x="374" y="540" type="line"/>
      <point x="326" y="548"/>
      <point x="270" y="539"/>
      <point x="230" y="512" type="curve" smooth="yes"/>
      <point x="199" y="492"/>
      <point x="177" y="461"/>
      <point x="164" y="426" type="curve"/>
      <point x="176" y="408" type="line"/>
      <point x="176" y="540" type="line"/>
      <point x="70" y="540" type="line"/>
    </contour>
  </outline>
</glyph>
<glyph name="s" format="2">
  <advance width="542"/>
  <unicode hex="0073"/>
  <note>
s
</note>
  <outline>
    <contour>
      <point x="279" y="-15" type="curve" smooth="yes"/>
      <point x="411" y="-15"/>
      <point x="501" y="47"/>
      <point x="501" y="160" type="curve" smooth="yes"/>
      <point x="501" y="253"/>
      <point x="438" y="290"/>
      <point x="325" y="320" type="curve" smooth="yes"/>
      <point x="219" y="347"/>
      <point x="178" y="358"/>
      <point x="178" y="395" type="curve" smooth="yes"/>
      <point x="178" y="432"/>
      <point x="216" y="453"/>
      <point x="272" y="450" type="curve" smooth="yes"/>
      <point x="329" y="447"/>
      <point x="368" y="420"/>
      <point x="374" y="374" type="curve"/>
      <point x="497" y="396" type="line"/>
      <point x="483" y="500"/>
      <point x="386" y="555"/>
      <point x="270" y="555" type="curve" smooth="yes"/>
      <point x="159" y="555"/>
      <point x="58" y="504"/>
      <point x="58" y="389" type="curve" smooth="yes"/>
      <point x="58" y="299"/>
      <point x="121" y="263"/>
      <point x="240" y="232" type="curve" smooth="yes"/>
      <point x="342" y="205"/>
      <point x="378" y="197"/>
      <point x="378" y="154" type="curve" smooth="yes"/>
      <point x="378" y="110"/>
      <point x="338" y="90"/>
      <point x="287" y="90" type="curve" smooth="yes"/>
      <point x="226" y="90"/>
      <point x="176" y="118"/>
      <point x="163" y="176" type="curve"/>
      <point x="40" y="157" type="line"/>
      <point x="60" y="40"/>
      <point x="154" y="-15"/>
    </contour>
  </outline>
</glyph>
<glyph name="t" format="2">
  <advance width="433"/>
  <unicode hex="0074"/>
  <note>
t
</note>
  <outline>
    <contour>
      <point x="386" y="0" type="curve"/>
      <point x="386" y="101" type="line"/>
      <point x="319" y="91"/>
      <point x="263" y="91"/>
      <point x="239" y="130" type="curve" smooth="yes"/>
      <point x="226" y="151"/>
      <point x="228" y="184"/>
      <point x="228" y="227" type="curve" smooth="yes"/>
      <point x="228" y="690" type="line"/>
      <point x="108" y="690" type="line"/>
      <point x="108" y="221" type="line" smooth="yes"/>
      <point x="108" y="159"/>
      <point x="104" y="113"/>
      <point x="129" y="66" type="curve" smooth="yes"/>
      <point x="170" y="-11"/>
      <point x="280" y="-20"/>
    </contour>
    <contour>
      <point x="10" y="446" type="line"/>
      <point x="386" y="446" type="line"/>
      <point x="386" y="540" type="line"/>
      <point x="10" y="540" type="line"/>
    </contour>
  </outline>
</glyph>
<glyph name="u" format="2">
  <advance width="626"/>
  <unicode hex="0075"/>
  <note>
u
</note>
  <outline>
    <contour>
      <point x="272" y="-15" type="curve" smooth="yes"/>
      <point x="425" y="-15"/>
      <point x="506" y="94"/>
      <point x="506" y="232" type="curve"/>
      <point x="434" y="262" type="line"/>
      <point x="434" y="132"/>
      <point x="369" y="98"/>
      <point x="308" y="98" type="curve" smooth="yes"/>
      <point x="193" y="98"/>
      <point x="182" y="213"/>
      <point x="182" y="280" type="curve" smooth="yes"/>
      <point x="182" y="540" type="line"/>
      <point x="60" y="540" type="line"/>
      <point x="60" y="238" type="line" smooth="yes"/>
      <point x="60" y="174"/>
      <point x="74" y="-15"/>
    </contour>
    <contour>
      <point x="449" y="0" type="line"/>
      <point x="556" y="0" type="line"/>
      <point x="556" y="540" type="line"/>
      <point x="434" y="540" type="line"/>
      <point x="434" y="168" type="line"/>
      <point x="449" y="168" type="line"/>
    </contour>
  </outline>
</glyph>
<glyph name="v" format="2">
  <advance width="553"/>
  <unicode hex="0076"/>
  <outline>
    <contour>
      <point x="216" y="0" type="line"/>
      <point x="337" y="0" type="line"/>
      <point x="533" y="540" type="line"/>
      <point x="412" y="540" type="line"/>
      <point x="276" y="148" type="line"/>
      <point x="141" y="540" type="line"/>
      <point x="20" y="540" type="line"/>
    </contour>
  </outline>
</glyph>
<glyph name="w" format="2">
  <advance width="802"/>
  <unicode hex="0077"/>
  <note>
w
</note>
  <outline>
    <contour>
      <point x="185" y="0" type="line"/>
      <point x="279" y="0" type="line"/>
      <point x="401" y="372" type="line"/>
      <point x="516" y="0" type="line"/>
      <point x="617" y="0" type="line"/>
      <point x="782" y="540" type="line"/>
      <point x="664" y="540" type="line"/>
      <point x="559" y="194" type="line"/>
      <point x="452" y="540" type="line"/>
      <point x="351" y="540" type="line"/>
      <point x="244" y="194" type="line"/>
      <point x="139" y="540" type="line"/>
      <point x="20" y="541" type="line"/>
    </contour>
  </outline>
</glyph>
<glyph name="x" format="2">
  <advance width="554"/>
  <unicode hex="0078"/>
  <note>
x
</note>
  <outline>
    <contour>
      <point x="10" y="0" type="line"/>
      <point x="152" y="0" type="line"/>
      <point x="278" y="179" type="line"/>
      <point x="402" y="0" type="line"/>
      <point x="544" y="0" type="line"/>
      <point x="346" y="273" type="line"/>
      <point x="539" y="540" type="line"/>
      <point x="397" y="540" type="line"/>
      <point x="278" y="367" type="line"/>
      <point x="156" y="540" type="line"/>
      <point x="14" y="540" type="line"/>
      <point x="208" y="273" type="line"/>
    </contour>
  </outline>
</glyph>
<glyph name="y" format="2">
  <advance width="559"/>
  <unicode hex="0079"/>
  <note>
y
</note>
  <outline>
    <contour>
      <point x="141" y="-240" type="line"/>
      <point x="254" y="-240" type="line"/>
      <point x="555" y="540" type="line"/>
      <point x="434" y="540" type="line"/>
      <point x="272" y="112" type="line"/>
      <point x="304" y="112" type="line"/>
      <point x="137" y="540" type="line"/>
      <point x="12" y="540" type="line"/>
      <point x="247" y="-39" type="line"/>
      <point x="245" y="45" type="line"/>
    </contour>
  </outline>
</glyph>
<glyph name="z" format="2">
  <advance width="534"/>
  <unicode hex="007A"/>
  <note>
z
</note>
  <outline>
    <contour>
      <point x="20" y="0" type="line"/>
      <point x="481" y="0" type="line"/>
      <point x="481" y="106" type="line"/>
      <point x="209" y="106" type="line"/>
      <point x="494" y="523" type="line"/>
      <point x="494" y="540" type="line"/>
      <point x="49" y="540" type="line"/>
      <point x="49" y="434" type="line"/>
      <point x="306" y="434" type="line"/>
      <point x="20" y="17" type="line"/>
    </contour>
  </outline>
</glyph>
<glyph name="braceleft" format="2">
  <advance width="449"/>
  <unicode hex="007B"/>
  <outline>
    <contour>
      <point x="340" y="-212" type="curve" smooth="yes"/>
      <point x="408" y="-212" type="line"/>
      <point x="408" y="-99" type="line"/>
      <point x="348" y="-99" type="line" smooth="yes"/>
      <point x="329" y="-99"/>
      <point x="314" y="-84"/>
      <point x="314" y="-64" type="curve" smooth="yes"/>
      <point x="314" y="228" type="line" smooth="yes"/>
      <point x="314" y="258"/>
      <point x="304" y="288"/>
      <point x="286" y="313" type="curve" smooth="yes"/>
      <point x="265" y="342" type="line"/>
      <point x="286" y="372" type="line" smooth="yes"/>
      <point x="304" y="397"/>
      <point x="314" y="426"/>
      <point x="314" y="457" type="curve" smooth="yes"/>
      <point x="314" y="749" type="line" smooth="yes"/>
      <point x="314" y="768"/>
      <point x="329" y="783"/>
      <point x="348" y="783" type="curve" smooth="yes"/>
      <point x="408" y="783" type="line"/>
      <point x="408" y="897" type="line"/>
      <point x="340" y="897" type="line" smooth="yes"/>
      <point x="254" y="897"/>
      <point x="200" y="842"/>
      <point x="200" y="757" type="curve" smooth="yes"/>
      <point x="200" y="457" type="line" smooth="yes"/>
      <point x="200" y="450"/>
      <point x="198" y="443"/>
      <point x="194" y="437" type="curve" smooth="yes"/>
      <point x="150" y="374" type="line" smooth="yes"/>
      <point x="136" y="355"/>
      <point x="136" y="330"/>
      <point x="150" y="310" type="curve" smooth="yes"/>
      <point x="194" y="248" type="line" smooth="yes"/>
      <point x="198" y="242"/>
      <point x="200" y="236"/>
      <point x="200" y="228" type="curve" smooth="yes"/>
      <point x="200" y="-72" type="line" smooth="yes"/>
      <point x="200" y="-158"/>
      <point x="254" y="-212"/>
    </contour>
  </outline>
</glyph>
<glyph name="bar" format="2">
  <advance width="300"/>
  <unicode hex="007C"/>
  <outline>
    <contour>
      <point x="90" y="0" type="line"/>
      <point x="210" y="0" type="line"/>
      <point x="210" y="720" type="line"/>
      <point x="90" y="720" type="line"/>
    </contour>
  </outline>
</glyph>
<glyph name="cent" format="2">
  <advance width="576"/>
  <unicode hex="00A2"/>
  <outline>
    <contour>
      <point x="263" y="-29" type="line"/>
      <point x="357" y="-29" type="line"/>
      <point x="357" y="64" type="line"/>
      <point x="450" y="80"/>
      <point x="516" y="138"/>
      <point x="545" y="231" type="curve"/>
      <point x="422" y="258" type="line"/>
      <point x="403" y="203"/>
      <point x="368" y="173"/>
      <point x="304" y="173" type="curve" smooth="yes"/>
      <point x="214" y="173"/>
      <point x="168" y="242"/>
      <point x="168" y="345" type="curve" smooth="yes"/>
      <point x="168" y="444"/>
      <point x="210" y="517"/>
      <point x="304" y="517" type="curve" smooth="yes"/>
      <point x="360" y="517"/>
      <point x="406" y="483"/>
      <point x="425" y="425" type="curve"/>
      <point x="545" y="458" type="line"/>
      <point x="523" y="549"/>
      <point x="453" y="610"/>
      <point x="357" y="626" type="curve"/>
      <point x="357" y="720" type="line"/>
      <point x="263" y="720" type="line"/>
      <point x="263" y="626" type="line"/>
      <point x="124" y="608"/>
      <point x="40" y="495"/>
      <point x="40" y="345" type="curve" smooth="yes"/>
      <point x="40" y="196"/>
      <point x="122" y="82"/>
      <point x="263" y="63" type="curve"/>
    </contour>
  </outline>
</glyph>
<glyph name="sterling" format="2">
  <advance width="542"/>
  <unicode hex="00A3"/>
  <outline>
    <contour>
      <point x="19" y="0" type="line"/>
      <point x="466" y="0" type="line"/>
      <point x="466" y="113" type="line"/>
      <point x="228" y="113" type="line"/>
      <point x="229" y="537" type="line" smooth="yes"/>
      <point x="229" y="586"/>
      <point x="262" y="621"/>
      <point x="310" y="621" type="curve" smooth="yes"/>
      <point x="358" y="621"/>
      <point x="385" y="582"/>
      <point x="405" y="517" type="curve"/>
      <point x="513" y="553" type="line"/>
      <point x="476" y="659"/>
      <point x="415" y="735"/>
      <point x="310" y="735" type="curve" smooth="yes"/>
      <point x="196" y="735"/>
      <point x="106" y="652"/>
      <point x="106" y="542" type="curve" smooth="yes"/>
      <point x="106" y="188" type="line" smooth="yes"/>
      <point x="106" y="148"/>
      <point x="73" y="113"/>
      <point x="32" y="113" type="curve" smooth="yes"/>
      <point x="19" y="113" type="line"/>
    </contour>
    <contour>
      <point x="19" y="304" type="line"/>
      <point x="380" y="304" type="line"/>
      <point x="380" y="418" type="line"/>
      <point x="19" y="418" type="line"/>
    </contour>
  </outline>
</glyph>
<glyph name="currency" format="2">
  <advance width="670"/>
  <unicode hex="00A4"/>
  <outline>
    <contour>
      <point x="335" y="98" type="curve" smooth="yes"/>
      <point x="480" y="98"/>
      <point x="598" y="216"/>
      <point x="598" y="361" type="curve" smooth="yes"/>
      <point x="598" y="505"/>
      <point x="480" y="623"/>
      <point x="335" y="623" type="curve" smooth="yes"/>
      <point x="191" y="623"/>
      <point x="73" y="505"/>
      <point x="73" y="361" type="curve" smooth="yes"/>
      <point x="73" y="216"/>
      <point x="191" y="98"/>
    </contour>
    <contour>
      <point x="110" y="55" type="line"/>
      <point x="233" y="177" type="line"/>
      <point x="152" y="257" type="line"/>
      <point x="30" y="135" type="line"/>
    </contour>
    <contour>
      <point x="152" y="462" type="line"/>
      <point x="232" y="543" type="line"/>
      <point x="110" y="665" type="line"/>
      <point x="30" y="584" type="line"/>
    </contour>
    <contour>
      <point x="560" y="55" type="line"/>
      <point x="640" y="135" type="line"/>
      <point x="518" y="257" type="line"/>
      <point x="438" y="177" type="line"/>
    </contour>
    <contour>
      <point x="335" y="200" type="curve" smooth="yes"/>
      <point x="246" y="200"/>
      <point x="175" y="274"/>
      <point x="175" y="360" type="curve" smooth="yes"/>
      <point x="175" y="449"/>
      <point x="246" y="520"/>
      <point x="335" y="520" type="curve" smooth="yes"/>
      <point x="422" y="520"/>
      <point x="495" y="449"/>
      <point x="495" y="360" type="curve" smooth="yes"/>
      <point x="495" y="274"/>
      <point x="424" y="200"/>
    </contour>
    <contour>
      <point x="519" y="463" type="line"/>
      <point x="640" y="584" type="line"/>
      <point x="560" y="665" type="line"/>
      <point x="438" y="543" type="line"/>
    </contour>
  </outline>
</glyph>
<glyph name="yen" format="2">
  <advance width="612"/>
  <unicode hex="00A5"/>
  <outline>
    <contour>
      <point x="101" y="262" type="line"/>
      <point x="511" y="262" type="line"/>
      <point x="511" y="356" type="line"/>
      <point x="101" y="356" type="line"/>
    </contour>
    <contour>
      <point x="101" y="99" type="line"/>
      <point x="511" y="99" type="line"/>
      <point x="511" y="193" type="line"/>
      <point x="101" y="193" type="line"/>
    </contour>
    <component base="Y"/>
  </outline>
</glyph>
<glyph name="section" format="2">
  <advance width="542"/>
  <unicode hex="00A7"/>
  <outline>
    <contour>
      <point x="278" y="-140" type="curve" smooth="yes"/>
      <point x="400" y="-140"/>
      <point x="491" y="-78"/>
      <point x="491" y="36" type="curve" smooth="yes"/>
      <point x="491" y="129"/>
      <point x="430" y="163"/>
      <point x="315" y="195" type="curve" smooth="yes"/>
      <point x="224" y="219"/>
      <point x="168" y="227"/>
      <point x="168" y="273" type="curve" smooth="yes"/>
      <point x="168" y="307"/>
      <point x="198" y="328"/>
      <point x="252" y="346" type="curve"/>
      <point x="242" y="394" type="line"/>
      <point x="150" y="397"/>
      <point x="48" y="355"/>
      <point x="48" y="256" type="curve" smooth="yes"/>
      <point x="48" y="177"/>
      <point x="111" y="138"/>
      <point x="230" y="107" type="curve" smooth="yes"/>
      <point x="332" y="81"/>
      <point x="368" y="72"/>
      <point x="368" y="29" type="curve" smooth="yes"/>
      <point x="368" y="-15"/>
      <point x="328" y="-35"/>
      <point x="286" y="-35" type="curve" smooth="yes"/>
      <point x="236" y="-35"/>
      <point x="188" y="-7"/>
      <point x="175" y="50" type="curve"/>
      <point x="52" y="32" type="line"/>
      <point x="72" y="-86"/>
      <point x="165" y="-140"/>
    </contour>
    <contour>
      <point x="305" y="134" type="line"/>
      <point x="426" y="121"/>
      <point x="503" y="173"/>
      <point x="503" y="273" type="curve" smooth="yes"/>
      <point x="503" y="362"/>
      <point x="441" y="396"/>
      <point x="327" y="428" type="curve" smooth="yes"/>
      <point x="240" y="452"/>
      <point x="179" y="459"/>
      <point x="179" y="506" type="curve" smooth="yes"/>
      <point x="179" y="541"/>
      <point x="213" y="560"/>
      <point x="255" y="560" type="curve" smooth="yes"/>
      <point x="303" y="560"/>
      <point x="336" y="536"/>
      <point x="346" y="482" type="curve"/>
      <point x="469" y="504" type="line"/>
      <point x="455" y="608"/>
      <point x="360" y="663"/>
      <point x="259" y="663" type="curve" smooth="yes"/>
      <point x="161" y="663"/>
      <point x="59" y="612"/>
      <point x="59" y="497" type="curve" smooth="yes"/>
      <point x="59" y="407"/>
      <point x="122" y="372"/>
      <point x="242" y="340" type="curve" smooth="yes"/>
      <point x="344" y="314"/>
      <point x="380" y="305"/>
      <point x="380" y="262" type="curve" smooth="yes"/>
      <point x="380" y="218"/>
      <point x="340" y="190"/>
      <point x="302" y="181" type="curve"/>
    </contour>
  </outline>
</glyph>
<glyph name="copyright" format="2">
  <advance width="886"/>
  <unicode hex="00A9"/>
  <outline>
    <contour>
      <point x="443" y="-59" type="curve" smooth="yes"/>
      <point x="672" y="-59"/>
      <point x="856" y="126"/>
      <point x="856" y="354" type="curve" smooth="yes"/>
      <point x="856" y="582"/>
      <point x="672" y="767"/>
      <point x="443" y="767" type="curve" smooth="yes"/>
      <point x="215" y="767"/>
      <point x="30" y="582"/>
      <point x="30" y="354" type="curve" smooth="yes"/>
      <point x="30" y="126"/>
      <point x="215" y="-59"/>
    </contour>
    <contour>
      <point x="451" y="141" type="curve" smooth="yes"/>
      <point x="502" y="141"/>
      <point x="536" y="152"/>
      <point x="566" y="175" type="curve" smooth="yes"/>
      <point x="596" y="198"/>
      <point x="619" y="232"/>
      <point x="631" y="270" type="curve"/>
      <point x="537" y="290" type="line"/>
      <point x="530" y="272"/>
      <point x="523" y="259"/>
      <point x="508" y="245" type="curve" smooth="yes"/>
      <point x="494" y="233"/>
      <point x="476" y="228"/>
      <point x="452" y="228" type="curve" smooth="yes"/>
      <point x="417" y="228"/>
      <point x="392" y="240"/>
      <point x="374" y="264" type="curve" smooth="yes"/>
      <point x="356" y="289"/>
      <point x="350" y="321"/>
      <point x="350" y="354" type="curve" smooth="yes"/>
      <point x="350" y="387"/>
      <point x="355" y="420"/>
      <point x="374" y="445" type="curve" smooth="yes"/>
      <point x="393" y="468"/>
      <point x="418" y="482"/>
      <point x="450" y="482" type="curve" smooth="yes"/>
      <point x="470" y="482"/>
      <point x="490" y="476"/>
      <point x="506" y="462" type="curve" smooth="yes"/>
      <point x="523" y="448"/>
      <point x="533" y="431"/>
      <point x="539" y="413" type="curve"/>
      <point x="631" y="438" type="line"/>
      <point x="620" y="484"/>
      <point x="592" y="519"/>
      <point x="556" y="541" type="curve" smooth="yes"/>
      <point x="522" y="561"/>
      <point x="493" y="568"/>
      <point x="456" y="568" type="curve" smooth="yes"/>
      <point x="385" y="568"/>
      <point x="338" y="545"/>
      <point x="301" y="500" type="curve" smooth="yes"/>
      <point x="268" y="460"/>
      <point x="252" y="410"/>
      <point x="252" y="354" type="curve" smooth="yes"/>
      <point x="252" y="300"/>
      <point x="266" y="251"/>
      <point x="301" y="207" type="curve" smooth="yes"/>
      <point x="338" y="161"/>
      <point x="384" y="141"/>
    </contour>
    <contour>
      <point x="443" y="54" type="curve" smooth="yes"/>
      <point x="277" y="54"/>
      <point x="143" y="188"/>
      <point x="143" y="354" type="curve" smooth="yes"/>
      <point x="143" y="520"/>
      <point x="277" y="654"/>
      <point x="443" y="654" type="curve" smooth="yes"/>
      <point x="609" y="654"/>
      <point x="743" y="520"/>
      <point x="743" y="354" type="curve" smooth="yes"/>
      <point x="743" y="188"/>
      <point x="609" y="54"/>
    </contour>
  </outline>
</glyph>
<glyph name="guillemetleft" format="2">
  <advance width="586"/>
  <unicode hex="00AB"/>
  <outline>
    <contour>
      <point x="460" y="94" type="line"/>
      <point x="524" y="144" type="line"/>
      <point x="388" y="315" type="line"/>
      <point x="524" y="486" type="line"/>
      <point x="460" y="537" type="line"/>
      <point x="284" y="315" type="line"/>
    </contour>
    <contour>
      <point x="256" y="94" type="line"/>
      <point x="320" y="144" type="line"/>
      <point x="184" y="315" type="line"/>
      <point x="320" y="486" type="line"/>
      <point x="256" y="537" type="line"/>
      <point x="80" y="315" type="line"/>
    </contour>
  </outline>
</glyph>
<glyph name="registered" format="2">
  <advance width="655"/>
  <unicode hex="00AE"/>
  <outline>
    <contour>
      <point x="327" y="273" type="curve" smooth="yes"/>
      <point x="469" y="273"/>
      <point x="585" y="388"/>
      <point x="585" y="531" type="curve" smooth="yes"/>
      <point x="585" y="672"/>
      <point x="469" y="788"/>
      <point x="327" y="788" type="curve" smooth="yes"/>
      <point x="186" y="788"/>
      <point x="70" y="672"/>
      <point x="70" y="531" type="curve" smooth="yes"/>
      <point x="70" y="388"/>
      <point x="186" y="273"/>
    </contour>
    <contour>
      <point x="328" y="353" type="curve" smooth="yes"/>
      <point x="230" y="353"/>
      <point x="150" y="434"/>
      <point x="150" y="531" type="curve" smooth="yes"/>
      <point x="150" y="629"/>
      <point x="230" y="708"/>
      <point x="328" y="708" type="curve" smooth="yes"/>
      <point x="425" y="708"/>
      <point x="506" y="629"/>
      <point x="506" y="531" type="curve" smooth="yes"/>
      <point x="506" y="434"/>
      <point x="425" y="353"/>
    </contour>
    <contour>
      <point x="244" y="413" type="line"/>
      <point x="288" y="413" type="line"/>
      <point x="288" y="494" type="line"/>
      <point x="340" y="494" type="line"/>
      <point x="379" y="413" type="line"/>
      <point x="428" y="413" type="line"/>
      <point x="384" y="502" type="line"/>
      <point x="412" y="517"/>
      <point x="426" y="543"/>
      <point x="426" y="571" type="curve" smooth="yes"/>
      <point x="424" y="618"/>
      <point x="394" y="650"/>
      <point x="345" y="650" type="curve" smooth="yes"/>
      <point x="244" y="650" type="line"/>
    </contour>
    <contour>
      <point x="288" y="535" type="line"/>
      <point x="288" y="608" type="line"/>
      <point x="346" y="608" type="line" smooth="yes"/>
      <point x="368" y="608"/>
      <point x="381" y="594"/>
      <point x="381" y="571" type="curve" smooth="yes"/>
      <point x="381" y="550"/>
      <point x="366" y="535"/>
      <point x="346" y="535" type="curve" smooth="yes"/>
    </contour>
  </outline>
</glyph>
<glyph name="degree" format="2">
  <advance width="450"/>
  <unicode hex="00B0"/>
  <outline>
    <contour>
      <point x="210" y="375" type="curve" smooth="yes"/>
      <point x="309" y="375"/>
      <point x="390" y="455"/>
      <point x="390" y="555" type="curve" smooth="yes"/>
      <point x="390" y="655"/>
      <point x="309" y="735"/>
      <point x="210" y="735" type="curve" smooth="yes"/>
      <point x="114" y="735"/>
      <point x="30" y="653"/>
      <point x="30" y="555" type="curve" smooth="yes"/>
      <point x="30" y="455"/>
      <point x="111" y="375"/>
    </contour>
    <contour>
      <point x="210" y="478" type="curve" smooth="yes"/>
      <point x="168" y="478"/>
      <point x="133" y="513"/>
      <point x="133" y="555" type="curve" smooth="yes"/>
      <point x="133" y="597"/>
      <point x="168" y="632"/>
      <point x="210" y="632" type="curve" smooth="yes"/>
      <point x="252" y="632"/>
      <point x="287" y="597"/>
      <point x="287" y="555" type="curve" smooth="yes"/>
      <point x="287" y="513"/>
      <point x="252" y="478"/>
    </contour>
  </outline>
</glyph>
<glyph name="twosuperior" format="2">
  <advance width="412"/>
  <unicode hex="00B2"/>
  <outline>
    <contour>
      <point x="50" y="270" type="line"/>
      <point x="362" y="270" type="line"/>
      <point x="362" y="343" type="line"/>
      <point x="140" y="343" type="line"/>
      <point x="148" y="322" type="line"/>
      <point x="282" y="443" type="line" smooth="yes"/>
      <point x="334" y="488"/>
      <point x="362" y="514"/>
      <point x="362" y="579" type="curve" smooth="yes"/>
      <point x="362" y="668"/>
      <point x="297" y="730"/>
      <point x="210" y="730" type="curve" smooth="yes"/>
      <point x="115" y="730"/>
      <point x="50" y="672"/>
      <point x="50" y="580" type="curve"/>
      <point x="131" y="580" type="line"/>
      <point x="129" y="621"/>
      <point x="162" y="657"/>
      <point x="208" y="657" type="curve" smooth="yes"/>
      <point x="252" y="657"/>
      <point x="282" y="624"/>
      <point x="282" y="580" type="curve" smooth="yes"/>
      <point x="282" y="558"/>
      <point x="271" y="535"/>
      <point x="242" y="509" type="curve" smooth="yes"/>
      <point x="50" y="338" type="line"/>
    </contour>
  </outline>
</glyph>
<glyph name="threesuperior" format="2">
  <advance width="404"/>
  <unicode hex="00B3"/>
  <outline>
    <contour>
      <point x="189" y="259" type="curve" smooth="yes"/>
      <point x="274" y="259"/>
      <point x="344" y="323"/>
      <point x="344" y="409" type="curve" smooth="yes"/>
      <point x="344" y="484"/>
      <point x="296" y="547"/>
      <point x="214" y="553" type="curve"/>
      <point x="215" y="529" type="line"/>
      <point x="337" y="646" type="line"/>
      <point x="337" y="720" type="line"/>
      <point x="58" y="720" type="line"/>
      <point x="58" y="646" type="line"/>
      <point x="274" y="646" type="line"/>
      <point x="267" y="667" type="line"/>
      <point x="115" y="537" type="line"/>
      <point x="151" y="476" type="line"/>
      <point x="162" y="482"/>
      <point x="175" y="486"/>
      <point x="189" y="486" type="curve" smooth="yes"/>
      <point x="233" y="486"/>
      <point x="265" y="452"/>
      <point x="265" y="409" type="curve" smooth="yes"/>
      <point x="265" y="366"/>
      <point x="232" y="334"/>
      <point x="189" y="333" type="curve" smooth="yes"/>
      <point x="156" y="333"/>
      <point x="126" y="352"/>
      <point x="116" y="388" type="curve"/>
      <point x="40" y="368" type="line"/>
      <point x="59" y="301"/>
      <point x="121" y="259"/>
    </contour>
  </outline>
</glyph>
<glyph name="paragraph" format="2">
  <advance width="715"/>
  <unicode hex="00B6"/>
  <outline>
    <contour>
      <point x="336" y="-141" type="line"/>
      <point x="457" y="-141" type="line"/>
      <point x="457" y="720" type="line"/>
      <point x="289" y="720" type="line" smooth="yes"/>
      <point x="283" y="720"/>
      <point x="258" y="720"/>
      <point x="232" y="716" type="curve" smooth="yes"/>
      <point x="107" y="698"/>
      <point x="48" y="603"/>
      <point x="48" y="486" type="curve" smooth="yes"/>
      <point x="48" y="367"/>
      <point x="109" y="273"/>
      <point x="232" y="255" type="curve" smooth="yes"/>
      <point x="258" y="252"/>
      <point x="284" y="251"/>
      <point x="289" y="251" type="curve" smooth="yes"/>
      <point x="336" y="251" type="line"/>
    </contour>
    <contour>
      <point x="546" y="-141" type="line"/>
      <point x="667" y="-141" type="line"/>
      <point x="667" y="720" type="line"/>
      <point x="546" y="720" type="line"/>
    </contour>
  </outline>
</glyph>
<glyph name="periodcentered" format="2">
  <advance width="627"/>
  <unicode hex="00B7"/>
  <outline>
    <contour>
      <point x="315" y="242" type="curve" smooth="yes"/>
      <point x="354" y="242"/>
      <point x="387" y="273"/>
      <point x="387" y="315" type="curve" smooth="yes"/>
      <point x="387" y="357"/>
      <point x="354" y="388"/>
      <point x="315" y="388" type="curve" smooth="yes"/>
      <point x="273" y="388"/>
      <point x="240" y="357"/>
      <point x="240" y="315" type="curve" smooth="yes"/>
      <point x="240" y="273"/>
      <point x="273" y="242"/>
    </contour>
  </outline>
</glyph>
<glyph name="AE" format="2">
  <advance width="938"/>
  <unicode hex="00C6"/>
  <outline>
    <contour>
      <point x="20" y="0" type="line"/>
      <point x="144" y="0" type="line"/>
      <point x="182" y="120" type="line"/>
      <point x="423" y="120" type="line"/>
      <point x="423" y="0" type="line"/>
      <point x="888" y="0" type="line"/>
      <point x="888" y="113" type="line"/>
      <point x="544" y="113" type="line"/>
      <point x="544" y="316" type="line"/>
      <point x="828" y="316" type="line"/>
      <point x="828" y="429" type="line"/>
      <point x="544" y="429" type="line"/>
      <point x="544" y="607" type="line"/>
      <point x="888" y="607" type="line"/>
      <point x="888" y="720" type="line"/>
      <point x="247" y="720" type="line"/>
    </contour>
    <contour>
      <point x="217" y="233" type="line"/>
      <point x="334" y="600" type="line"/>
      <point x="423" y="600" type="line"/>
      <point x="423" y="233" type="line"/>
    </contour>
  </outline>
</glyph>
<glyph name="Eth" format="2">
  <advance width="702"/>
  <unicode hex="00D0"/>
  <outline>
    <contour>
      <point x="10" y="313" type="line"/>
      <point x="348" y="313" type="line"/>
      <point x="348" y="408" type="line"/>
      <point x="10" y="408" type="line"/>
    </contour>
    <component base="D" xOffset="2"/>
  </outline>
</glyph>
<glyph name="Thorn" format="2">
  <advance width="630"/>
  <unicode hex="00DE"/>
  <outline>
    <contour>
      <point x="70" y="0" type="line"/>
      <point x="192" y="0" type="line"/>
      <point x="192" y="126" type="line"/>
      <point x="363" y="126" type="line" smooth="yes"/>
      <point x="439" y="126"/>
      <point x="509" y="163"/>
      <point x="551" y="218" type="curve" smooth="yes"/>
      <point x="582" y="258"/>
      <point x="601" y="309"/>
      <point x="600" y="360" type="curve" smooth="yes"/>
      <point x="599" y="411"/>
      <point x="581" y="464"/>
      <point x="549" y="504" type="curve" smooth="yes"/>
      <point x="521" y="541"/>
      <point x="481" y="568"/>
      <point x="437" y="583" type="curve" smooth="yes"/>
      <point x="414" y="590"/>
      <point x="388" y="594"/>
      <point x="363" y="594" type="curve" smooth="yes"/>
      <point x="192" y="594" type="line"/>
      <point x="192" y="720" type="line"/>
      <point x="70" y="720" type="line"/>
    </contour>
    <contour>
      <point x="192" y="239" type="line"/>
      <point x="192" y="481" type="line"/>
      <point x="362" y="481" type="line" smooth="yes"/>
      <point x="393" y="481"/>
      <point x="426" y="463"/>
      <point x="447" y="440" type="curve" smooth="yes"/>
      <point x="467" y="419"/>
      <point x="477" y="390"/>
      <point x="478" y="360" type="curve" smooth="yes"/>
      <point x="479" y="333"/>
      <point x="468" y="307"/>
      <point x="452" y="286" type="curve" smooth="yes"/>
      <point x="430" y="257"/>
      <point x="393" y="239"/>
      <point x="362" y="239" type="curve" smooth="yes"/>
    </contour>
  </outline>
</glyph>
<glyph name="germandbls" format="2">
  <advance width="635"/>
  <unicode hex="00DF"/>
  <outline>
    <contour>
      <point x="345" y="-15" type="curve" smooth="yes"/>
      <point x="494" y="-15"/>
      <point x="575" y="71"/>
      <point x="575" y="212" type="curve" smooth="yes"/>
      <point x="575" y="303"/>
      <point x="524" y="373"/>
      <point x="456" y="398" type="curve"/>
      <point x="497" y="429"/>
      <point x="516" y="477"/>
      <point x="516" y="532" type="curve" smooth="yes"/>
      <point x="516" y="650"/>
      <point x="418" y="735"/>
      <point x="292" y="735" type="curve" smooth="yes"/>
      <point x="197" y="735"/>
      <point x="110" y="695"/>
      <point x="79" y="600" type="curve" smooth="yes"/>
      <point x="72" y="579"/>
      <point x="70" y="557"/>
      <point x="70" y="530" type="curve" smooth="yes"/>
      <point x="70" y="0" type="line"/>
      <point x="192" y="0" type="line"/>
      <point x="192" y="498" type="line" smooth="yes"/>
      <point x="192" y="527"/>
      <point x="196" y="555"/>
      <point x="204" y="573" type="curve" smooth="yes"/>
      <point x="222" y="609"/>
      <point x="256" y="622"/>
      <point x="293" y="622" type="curve" smooth="yes"/>
      <point x="348" y="622"/>
      <point x="395" y="588"/>
      <point x="395" y="530" type="curve" smooth="yes"/>
      <point x="395" y="472"/>
      <point x="356" y="439"/>
      <point x="293" y="434" type="curve"/>
      <point x="293" y="329" type="line"/>
      <point x="388" y="328"/>
      <point x="454" y="293"/>
      <point x="454" y="214" type="curve" smooth="yes"/>
      <point x="454" y="140"/>
      <point x="404" y="103"/>
      <point x="328" y="103" type="curve" smooth="yes"/>
      <point x="297" y="103"/>
      <point x="272" y="110"/>
      <point x="252" y="118" type="curve"/>
      <point x="252" y="0" type="line"/>
      <point x="276" y="-10"/>
      <point x="304" y="-15"/>
    </contour>
  </outline>
</glyph>
<glyph name="ae" format="2">
  <advance width="935"/>
  <unicode hex="00E6"/>
  <outline>
    <contour>
      <point x="663" y="-15" type="curve" smooth="yes"/>
      <point x="759" y="-15"/>
      <point x="850" y="42"/>
      <point x="888" y="139" type="curve"/>
      <point x="776" y="175" type="line"/>
      <point x="753" y="124"/>
      <point x="709" y="98"/>
      <point x="656" y="98" type="curve" smooth="yes"/>
      <point x="568" y="98"/>
      <point x="523" y="165"/>
      <point x="523" y="270" type="curve" smooth="yes"/>
      <point x="523" y="374"/>
      <point x="559" y="450"/>
      <point x="656" y="450" type="curve" smooth="yes"/>
      <point x="754" y="450"/>
      <point x="780" y="387"/>
      <point x="781" y="280" type="curve"/>
      <point x="781" y="236" type="line"/>
      <point x="894" y="236" type="line"/>
      <point x="906" y="423"/>
      <point x="822" y="555"/>
      <point x="657" y="555" type="curve" smooth="yes"/>
      <point x="502" y="555"/>
      <point x="402" y="438"/>
      <point x="402" y="264" type="curve" smooth="yes"/>
      <point x="402" y="102"/>
      <point x="504" y="-15"/>
    </contour>
    <contour>
      <point x="245" y="80" type="curve" smooth="yes"/>
      <point x="190" y="80"/>
      <point x="158" y="108"/>
      <point x="158" y="149" type="curve" smooth="yes"/>
      <point x="158" y="222"/>
      <point x="261" y="234"/>
      <point x="314" y="239" type="curve" smooth="yes"/>
      <point x="439" y="251" type="line"/>
      <point x="398" y="268" type="line"/>
      <point x="399" y="229"/>
      <point x="396" y="185"/>
      <point x="378" y="152" type="curve" smooth="yes"/>
      <point x="357" y="115"/>
      <point x="306" y="80"/>
    </contour>
    <contour>
      <point x="228" y="-15" type="curve" smooth="yes"/>
      <point x="326" y="-15"/>
      <point x="406" y="20"/>
      <point x="456" y="113" type="curve"/>
      <point x="516" y="325" type="line"/>
      <point x="516" y="345"/>
      <point x="516" y="383"/>
      <point x="505" y="420" type="curve" smooth="yes"/>
      <point x="479" y="504"/>
      <point x="407" y="555"/>
      <point x="291" y="555" type="curve" smooth="yes"/>
      <point x="174" y="555"/>
      <point x="93" y="488"/>
      <point x="59" y="404" type="curve"/>
      <point x="168" y="370" type="line"/>
      <point x="188" y="422"/>
      <point x="235" y="445"/>
      <point x="288" y="445" type="curve" smooth="yes"/>
      <point x="356" y="445"/>
      <point x="406" y="408"/>
      <point x="396" y="312" type="curve"/>
      <point x="423" y="334" type="line"/>
      <point x="291" y="321" type="line" smooth="yes"/>
      <point x="202" y="311"/>
      <point x="40" y="291"/>
      <point x="40" y="145" type="curve" smooth="yes"/>
      <point x="40" y="52"/>
      <point x="107" y="-15"/>
    </contour>
    <contour>
      <point x="487" y="236" type="line"/>
      <point x="838" y="236" type="line"/>
      <point x="838" y="331" type="line"/>
      <point x="487" y="331" type="line"/>
    </contour>
  </outline>
</glyph>
<glyph name="oslash" format="2">
  <advance width="618"/>
  <unicode hex="00F8"/>
  <outline>
    <contour>
      <point x="106" y="-12" type="line"/>
      <point x="592" y="472" type="line"/>
      <point x="512" y="552" type="line"/>
      <point x="26" y="68" type="line"/>
    </contour>
    <component base="o"/>
  </outline>
</glyph>
<glyph name="thorn" format="2">
  <advance width="617"/>
  <unicode hex="00FE"/>
  <outline>
    <contour>
      <point x="70" y="425" type="line"/>
      <point x="191" y="425" type="line"/>
      <point x="191" y="720" type="line"/>
      <point x="70" y="720" type="line"/>
    </contour>
    <component base="p"/>
  </outline>
</glyph>
<glyph name="eogonek" format="2">
  <advance width="602"/>
  <unicode hex="0119"/>
  <outline>
    <contour>
      <point x="478" y="-230" type="curve" smooth="yes"/>
      <point x="500" y="-221"/>
      <point x="516" y="-206"/>
      <point x="526" y="-189" type="curve"/>
      <point x="482" y="-133" type="line"/>
      <point x="465" y="-147"/>
      <point x="438" y="-156"/>
      <point x="423" y="-140" type="curve" smooth="yes"/>
      <point x="413" y="-129"/>
      <point x="416" y="-111"/>
      <point x="418" y="-103" type="curve" smooth="yes"/>
      <point x="425" y="-83"/>
      <point x="438" y="-55"/>
      <point x="455" y="-24" type="curve" smooth="yes"/>
      <point x="473" y="6"/>
      <point x="506" y="54"/>
      <point x="536" y="105" type="curve"/>
      <point x="458" y="116" type="line"/>
      <point x="432" y="83"/>
      <point x="398" y="36"/>
      <point x="382" y="13" type="curve" smooth="yes"/>
      <point x="368" y="-9"/>
      <point x="346" y="-42"/>
      <point x="334" y="-72" type="curve" smooth="yes"/>
      <point x="315" y="-116"/>
      <point x="324" y="-167"/>
      <point x="349" y="-198" type="curve" smooth="yes"/>
      <point x="379" y="-236"/>
      <point x="433" y="-250"/>
    </contour>
    <component base="e"/>
  </outline>
</glyph>
<glyph name="idotless" format="2">
  <advance width="280"/>
  <unicode hex="0131"/>
  <outline>
    <contour>
      <point x="80" y="0" type="line"/>
      <point x="200" y="0" type="line"/>
      <point x="200" y="540" type="line"/>
      <point x="80" y="540" type="line"/>
    </contour>
  </outline>
</glyph>
<glyph name="Eng" format="2">
  <advance width="718"/>
  <unicode hex="014A"/>
  <outline>
    <contour>
      <point x="510" y="-229" type="curve" smooth="yes"/>
      <point x="598" y="-229"/>
      <point x="648" y="-188"/>
      <point x="648" y="-89" type="curve" smooth="yes"/>
      <point x="648" y="50" type="line"/>
      <point x="450" y="116" type="line"/>
      <point x="489" y="56" type="line" smooth="yes"/>
      <point x="534" y="-13"/>
      <point x="548" y="-44"/>
      <point x="548" y="-75" type="curve" smooth="yes"/>
      <point x="548" y="-122"/>
      <point x="513" y="-133"/>
      <point x="476" y="-133" type="curve" smooth="yes"/>
      <point x="462" y="-133"/>
      <point x="447" y="-131"/>
      <point x="437" y="-130" type="curve"/>
      <point x="437" y="-220" type="line"/>
      <point x="458" y="-225"/>
      <point x="483" y="-229"/>
    </contour>
    <component base="N"/>
  </outline>
</glyph>
<glyph name="eng" format="2">
  <advance width="626"/>
  <unicode hex="014B"/>
  <outline>
    <contour>
      <point x="469" y="-225" type="curve" smooth="yes"/>
      <point x="529" y="-213"/>
      <point x="566" y="-164"/>
      <point x="566" y="-89" type="curve" smooth="yes"/>
      <point x="566" y="2" type="line"/>
      <point x="444" y="2" type="line"/>
      <point x="444" y="-64" type="line" smooth="yes"/>
      <point x="444" y="-144"/>
      <point x="391" y="-137"/>
      <point x="354" y="-134" type="curve"/>
      <point x="354" y="-220" type="line"/>
      <point x="388" y="-228"/>
      <point x="424" y="-234"/>
    </contour>
    <component base="n"/>
  </outline>
</glyph>
<glyph name="Tbar" format="2">
  <advance width="607"/>
  <unicode hex="0166"/>
  <outline>
    <contour>
      <point x="68" y="300" type="line"/>
      <point x="538" y="300" type="line"/>
      <point x="538" y="420" type="line"/>
      <point x="68" y="420" type="line"/>
    </contour>
    <component base="T"/>
  </outline>
</glyph>
<glyph name="florin" format="2">
  <advance width="680"/>
  <unicode hex="0192"/>
  <outline>
    <contour>
      <point x="153" y="-15" type="curve" smooth="yes"/>
      <point x="263" y="-15"/>
      <point x="339" y="61"/>
      <point x="362" y="200" type="curve" smooth="yes"/>
      <point x="418" y="539" type="line" smooth="yes"/>
      <point x="428" y="599"/>
      <point x="480" y="621"/>
      <point x="524" y="621" type="curve" smooth="yes"/>
      <point x="564" y="621"/>
      <point x="598" y="604"/>
      <point x="596" y="604" type="curve"/>
      <point x="651" y="703" type="line" smooth="yes"/>
      <point x="616" y="720"/>
      <point x="566" y="735"/>
      <point x="512" y="735" type="curve" smooth="yes"/>
      <point x="347" y="735"/>
      <point x="300" y="593"/>
      <point x="288" y="514" type="curve" smooth="yes"/>
      <point x="240" y="217" type="line" smooth="yes"/>
      <point x="230" y="155"/>
      <point x="202" y="99"/>
      <point x="144" y="99" type="curve" smooth="yes"/>
      <point x="117" y="99"/>
      <point x="85" y="109"/>
      <point x="69" y="117" type="curve"/>
      <point x="19" y="16" type="line"/>
      <point x="53" y="0"/>
      <point x="105" y="-15"/>
    </contour>
    <contour>
      <point x="111" y="313" type="line"/>
      <point x="579" y="313" type="line"/>
      <point x="579" y="408" type="line"/>
      <point x="111" y="408" type="line"/>
    </contour>
  </outline>
</glyph>
<glyph name="acutecomb" format="2">
  <unicode hex="0301"/>
  <outline>
    <contour>
      <point x="151" y="785" type="line"/>
      <point x="419" y="881" type="line"/>
      <point x="388" y="969" type="line"/>
      <point x="120" y="873" type="line"/>
    </contour>
  </outline>
</glyph>
<glyph name="circumflexcomb" format="2">
  <unicode hex="0302"/>
  <outline>
    <contour>
      <point x="164" y="786" type="line"/>
      <point x="290" y="855" type="line"/>
      <point x="417" y="786" type="line"/>
      <point x="461" y="869" type="line"/>
      <point x="290" y="962" type="line"/>
      <point x="120" y="869" type="line"/>
    </contour>
  </outline>
</glyph>
<glyph name="tildecomb" format="2">
  <unicode hex="0303"/>
  <outline>
    <contour>
      <point x="362" y="811" type="curve" smooth="yes"/>
      <point x="426" y="811"/>
      <point x="470" y="863"/>
      <point x="454" y="936" type="curve"/>
      <point x="383" y="936" type="line"/>
      <point x="390" y="914"/>
      <point x="382" y="898"/>
      <point x="359" y="898" type="curve" smooth="yes"/>
      <point x="319" y="898"/>
      <point x="276" y="946"/>
      <point x="214" y="946" type="curve" smooth="yes"/>
      <point x="150" y="946"/>
      <point x="108" y="894"/>
      <point x="123" y="822" type="curve"/>
      <point x="195" y="822" type="line"/>
      <point x="188" y="844"/>
      <point x="195" y="860"/>
      <point x="218" y="860" type="curve" smooth="yes"/>
      <point x="259" y="860"/>
      <point x="300" y="811"/>
    </contour>
  </outline>
</glyph>
<glyph name="brevecomb" format="2">
  <unicode hex="0306"/>
  <outline>
    <contour>
      <point x="272" y="780" type="curve" smooth="yes"/>
      <point x="355" y="780"/>
      <point x="423" y="848"/>
      <point x="423" y="932" type="curve"/>
      <point x="329" y="932" type="line"/>
      <point x="329" y="900"/>
      <point x="304" y="874"/>
      <point x="272" y="874" type="curve" smooth="yes"/>
      <point x="240" y="874"/>
      <point x="214" y="900"/>
      <point x="214" y="932" type="curve"/>
      <point x="120" y="932" type="line"/>
      <point x="120" y="848"/>
      <point x="188" y="780"/>
    </contour>
  </outline>
</glyph>
<glyph name="ringcomb" format="2">
  <unicode hex="030A"/>
  <outline>
    <contour>
      <point x="274" y="634" type="curve" smooth="yes"/>
      <point x="354" y="634"/>
      <point x="420" y="700"/>
      <point x="420" y="780" type="curve" smooth="yes"/>
      <point x="420" y="860"/>
      <point x="354" y="926"/>
      <point x="274" y="926" type="curve" smooth="yes"/>
      <point x="194" y="926"/>
      <point x="128" y="860"/>
      <point x="128" y="780" type="curve" smooth="yes"/>
      <point x="128" y="700"/>
      <point x="194" y="634"/>
    </contour>
    <contour>
      <point x="274" y="720" type="curve" smooth="yes"/>
      <point x="241" y="720"/>
      <point x="214" y="747"/>
      <point x="214" y="780" type="curve" smooth="yes"/>
      <point x="214" y="813"/>
      <point x="241" y="840"/>
      <point x="274" y="840" type="curve" smooth="yes"/>
      <point x="307" y="840"/>
      <point x="334" y="813"/>
      <point x="334" y="780" type="curve" smooth="yes"/>
      <point x="334" y="747"/>
      <point x="307" y="720"/>
    </contour>
  </outline>
</glyph>
<glyph name="caroncomb" format="2">
  <unicode hex="030C"/>
  <outline>
    <contour>
      <point x="290" y="786" type="line"/>
      <point x="461" y="880" type="line"/>
      <point x="417" y="962" type="line"/>
      <point x="290" y="893" type="line"/>
      <point x="164" y="962" type="line"/>
      <point x="120" y="880" type="line"/>
    </contour>
  </outline>
</glyph>
<glyph name="cedillacomb" format="2">
  <unicode hex="0327"/>
  <outline>
    <contour>
      <point x="189" y="-242" type="curve" smooth="yes"/>
      <point x="246" y="-242"/>
      <point x="294" y="-198"/>
      <point x="294" y="-135" type="curve" smooth="yes"/>
      <point x="294" y="-92"/>
      <point x="271" y="-61"/>
      <point x="233" y="-42" type="curve"/>
      <point x="253" y="16" type="line"/>
      <point x="180" y="15" type="line"/>
      <point x="144" y="-87" type="line"/>
      <point x="179" y="-97"/>
      <point x="210" y="-106"/>
      <point x="210" y="-132" type="curve" smooth="yes"/>
      <point x="210" y="-145"/>
      <point x="199" y="-159"/>
      <point x="179" y="-159" type="curve" smooth="yes"/>
      <point x="170" y="-159"/>
      <point x="160" y="-156"/>
      <point x="146" y="-152" type="curve"/>
      <point x="120" y="-223" type="line"/>
      <point x="140" y="-234"/>
      <point x="162" y="-242"/>
    </contour>
  </outline>
</glyph>
<glyph name="ogonekcomb" format="2">
  <unicode hex="0328"/>
  <outline>
    <contour>
      <point x="226" y="-240" type="curve" smooth="yes"/>
      <point x="262" y="-240"/>
      <point x="299" y="-222"/>
      <point x="322" y="-189" type="curve"/>
      <point x="279" y="-133" type="line"/>
      <point x="267" y="-144"/>
      <point x="254" y="-150"/>
      <point x="242" y="-150" type="curve" smooth="yes"/>
      <point x="226" y="-150"/>
      <point x="213" y="-138"/>
      <point x="213" y="-121" type="curve" smooth="yes"/>
      <point x="213" y="-87"/>
      <point x="263" y="-32"/>
      <point x="324" y="0" type="curve"/>
      <point x="271" y="60" type="line"/>
      <point x="186" y="20"/>
      <point x="119" y="-59"/>
      <point x="119" y="-130" type="curve" smooth="yes"/>
      <point x="119" y="-188"/>
      <point x="164" y="-240"/>
    </contour>
  </outline>
</glyph>
<glyph name="slashshortcomb" format="2">
  <unicode hex="0337"/>
  <outline>
    <contour>
      <point x="40" y="172" type="line"/>
      <point x="384" y="369" type="line"/>
      <point x="384" y="499" type="line"/>
      <point x="40" y="302" type="line"/>
    </contour>
  </outline>
</glyph>
<glyph name="dieresistonos" format="2">
  <advance width="600"/>
  <unicode hex="0385"/>
  <outline>
    <contour>
      <point x="408" y="610" type="line"/>
      <point x="505" y="610" type="line"/>
      <point x="505" y="720" type="line"/>
      <point x="408" y="720" type="line"/>
    </contour>
    <contour>
      <point x="95" y="610" type="line"/>
      <point x="193" y="610" type="line"/>
      <point x="193" y="720" type="line"/>
      <point x="95" y="720" type="line"/>
    </contour>
    <component base="tonos" xOffset="17"/>
  </outline>
</glyph>
<glyph name="Delta" format="2">
  <advance width="671"/>
  <unicode hex="0394"/>
  <outline>
    <contour>
      <point x="105" y="0" type="line"/>
      <point x="567" y="0" type="line"/>
      <point x="567" y="113" type="line"/>
      <point x="105" y="113" type="line"/>
    </contour>
    <component base="Lambda" xOffset="15"/>
  </outline>
</glyph>
<glyph name="Xi" format="2">
  <advance width="723"/>
  <unicode hex="039E"/>
  <outline>
    <contour>
      <point x="70" y="607" type="line"/>
      <point x="653" y="607" type="line"/>
      <point x="653" y="720" type="line"/>
      <point x="70" y="720" type="line"/>
    </contour>
    <contour>
      <point x="70" y="0" type="line"/>
      <point x="653" y="0" type="line"/>
      <point x="653" y="113" type="line"/>
      <point x="70" y="113" type="line"/>
    </contour>
    <contour>
      <point x="120" y="304" type="line"/>
      <point x="603" y="304" type="line"/>
      <point x="603" y="417" type="line"/>
      <point x="120" y="417" type="line"/>
    </contour>
  </outline>
</glyph>
<glyph name="Sigma" format="2">
  <advance width="635"/>
  <unicode hex="03A3"/>
  <outline>
    <contour>
      <point x="70" y="0" type="line"/>
      <point x="562" y="0" type="line"/>
      <point x="562" y="113" type="line"/>
      <point x="222" y="113" type="line"/>
      <point x="456" y="351" type="line"/>
      <point x="456" y="369" type="line"/>
      <point x="222" y="607" type="line"/>
      <point x="565" y="607" type="line"/>
      <point x="565" y="720" type="line"/>
      <point x="70" y="720" type="line"/>
      <point x="70" y="611" type="line"/>
      <point x="318" y="360" type="line"/>
      <point x="70" y="108" type="line"/>
    </contour>
  </outline>
</glyph>
<glyph name="Psi" format="2">
  <advance width="753"/>
  <unicode hex="03A8"/>
  <outline>
    <contour>
      <point x="316" y="0" type="line"/>
      <point x="437" y="0" type="line"/>
      <point x="437" y="157" type="line"/>
      <point x="550" y="162"/>
      <point x="645" y="210"/>
      <point x="674" y="329" type="curve" smooth="yes"/>
      <point x="682" y="356"/>
      <point x="683" y="382"/>
      <point x="683" y="405" type="curve" smooth="yes"/>
      <point x="683" y="720" type="line"/>
      <point x="570" y="720" type="line"/>
      <point x="570" y="424" type="line" smooth="yes"/>
      <point x="570" y="414"/>
      <point x="570" y="392"/>
      <point x="566" y="368" type="curve" smooth="yes"/>
      <point x="551" y="298"/>
      <point x="500" y="270"/>
      <point x="437" y="269" type="curve"/>
      <point x="437" y="720" type="line"/>
      <point x="316" y="720" type="line"/>
      <point x="316" y="269" type="line"/>
      <point x="256" y="270"/>
      <point x="208" y="292"/>
      <point x="190" y="362" type="curve" smooth="yes"/>
      <point x="183" y="388"/>
      <point x="183" y="412"/>
      <point x="183" y="424" type="curve" smooth="yes"/>
      <point x="183" y="720" type="line"/>
      <point x="70" y="720" type="line"/>
      <point x="70" y="405" type="line" smooth="yes"/>
      <point x="70" y="386"/>
      <point x="72" y="354"/>
      <point x="79" y="327" type="curve" smooth="yes"/>
      <point x="107" y="209"/>
      <point x="202" y="162"/>
      <point x="316" y="157" type="curve"/>
    </contour>
  </outline>
</glyph>
<glyph name="Omega" format="2">
  <advance width="749"/>
  <unicode hex="03A9"/>
  <outline>
    <contour>
      <point x="38" y="0" type="line"/>
      <point x="293" y="0" type="line"/>
      <point x="293" y="113" type="line"/>
      <point x="230" y="145"/>
      <point x="158" y="231"/>
      <point x="158" y="364" type="curve" smooth="yes"/>
      <point x="158" y="506"/>
      <point x="240" y="621"/>
      <point x="375" y="621" type="curve" smooth="yes"/>
      <point x="510" y="621"/>
      <point x="593" y="505"/>
      <point x="592" y="362" type="curve" smooth="yes"/>
      <point x="591" y="235"/>
      <point x="524" y="146"/>
      <point x="460" y="113" type="curve"/>
      <point x="460" y="0" type="line"/>
      <point x="711" y="0" type="line"/>
      <point x="711" y="113" type="line"/>
      <point x="607" y="113" type="line"/>
      <point x="677" y="175"/>
      <point x="719" y="270"/>
      <point x="719" y="381" type="curve" smooth="yes"/>
      <point x="719" y="580"/>
      <point x="583" y="735"/>
      <point x="375" y="735" type="curve" smooth="yes"/>
      <point x="166" y="735"/>
      <point x="30" y="580"/>
      <point x="30" y="381" type="curve" smooth="yes"/>
      <point x="30" y="270"/>
      <point x="72" y="175"/>
      <point x="142" y="113" type="curve"/>
      <point x="38" y="113" type="line"/>
    </contour>
  </outline>
</glyph>
<glyph name="alpha" format="2">
  <advance width="628"/>
  <unicode hex="03B1"/>
  <outline>
    <contour>
      <point x="289" y="-15" type="curve" smooth="yes"/>
      <point x="369" y="-15"/>
      <point x="434" y="21"/>
      <point x="470" y="80" type="curve"/>
      <point x="452" y="106" type="line"/>
      <point x="452" y="0" type="line"/>
      <point x="558" y="0" type="line"/>
      <point x="558" y="540" type="line"/>
      <point x="452" y="540" type="line"/>
      <point x="452" y="436" type="line"/>
      <point x="470" y="461" type="line"/>
      <point x="434" y="520"/>
      <point x="373" y="555"/>
      <point x="293" y="555" type="curve" smooth="yes"/>
      <point x="138" y="555"/>
      <point x="40" y="434"/>
      <point x="40" y="270" type="curve" smooth="yes"/>
      <point x="40" y="108"/>
      <point x="136" y="-15"/>
    </contour>
    <contour>
      <point x="308" y="93" type="curve" smooth="yes"/>
      <point x="210" y="93"/>
      <point x="168" y="172"/>
      <point x="168" y="269" type="curve" smooth="yes"/>
      <point x="168" y="378"/>
      <point x="219" y="447"/>
      <point x="309" y="447" type="curve" smooth="yes"/>
      <point x="401" y="447"/>
      <point x="440" y="375"/>
      <point x="440" y="270" type="curve" smooth="yes"/>
      <point x="440" y="165"/>
      <point x="401" y="93"/>
    </contour>
  </outline>
</glyph>
<glyph name="beta" format="2">
  <advance width="605"/>
  <unicode hex="03B2"/>
  <outline>
    <contour>
      <point x="70" y="-240" type="line"/>
      <point x="191" y="-240" type="line"/>
      <point x="191" y="12" type="line"/>
      <point x="226" y="-6"/>
      <point x="267" y="-15"/>
      <point x="315" y="-15" type="curve" smooth="yes"/>
      <point x="473" y="-15"/>
      <point x="575" y="68"/>
      <point x="575" y="209" type="curve" smooth="yes"/>
      <point x="575" y="304"/>
      <point x="526" y="373"/>
      <point x="456" y="398" type="curve"/>
      <point x="497" y="429"/>
      <point x="516" y="477"/>
      <point x="516" y="530" type="curve" smooth="yes"/>
      <point x="516" y="650"/>
      <point x="420" y="735"/>
      <point x="289" y="735" type="curve" smooth="yes"/>
      <point x="197" y="735"/>
      <point x="107" y="693"/>
      <point x="79" y="600" type="curve" smooth="yes"/>
      <point x="72" y="578"/>
      <point x="70" y="558"/>
      <point x="70" y="540" type="curve" smooth="yes"/>
    </contour>
    <contour>
      <point x="320" y="97" type="curve" smooth="yes"/>
      <point x="270" y="97"/>
      <point x="214" y="117"/>
      <point x="199" y="161" type="curve" smooth="yes"/>
      <point x="192" y="180"/>
      <point x="192" y="208"/>
      <point x="192" y="222" type="curve" smooth="yes"/>
      <point x="192" y="498" type="line" smooth="yes"/>
      <point x="192" y="513"/>
      <point x="192" y="547"/>
      <point x="204" y="573" type="curve" smooth="yes"/>
      <point x="222" y="610"/>
      <point x="259" y="622"/>
      <point x="292" y="622" type="curve" smooth="yes"/>
      <point x="347" y="622"/>
      <point x="395" y="589"/>
      <point x="395" y="528" type="curve" smooth="yes"/>
      <point x="395" y="473"/>
      <point x="357" y="439"/>
      <point x="293" y="434" type="curve"/>
      <point x="293" y="329" type="line"/>
      <point x="389" y="328"/>
      <point x="454" y="292"/>
      <point x="454" y="214" type="curve" smooth="yes"/>
      <point x="454" y="143"/>
      <point x="399" y="97"/>
    </contour>
  </outline>
</glyph>
<glyph name="delta" format="2">
  <advance width="618"/>
  <unicode hex="03B4"/>
  <outline>
    <contour>
      <point x="306" y="-15" type="curve" smooth="yes"/>
      <point x="471" y="-15"/>
      <point x="578" y="92"/>
      <point x="578" y="246" type="curve" smooth="yes"/>
      <point x="578" y="398"/>
      <point x="471" y="505"/>
      <point x="309" y="505" type="curve"/>
      <point x="309" y="461" type="line"/>
      <point x="140" y="492"/>
      <point x="40" y="382"/>
      <point x="40" y="236" type="curve" smooth="yes"/>
      <point x="40" y="85"/>
      <point x="147" y="-15"/>
    </contour>
    <contour>
      <point x="310" y="98" type="curve" smooth="yes"/>
      <point x="225" y="98"/>
      <point x="178" y="152"/>
      <point x="178" y="246" type="curve" smooth="yes"/>
      <point x="178" y="336"/>
      <point x="222" y="393"/>
      <point x="310" y="393" type="curve" smooth="yes"/>
      <point x="394" y="393"/>
      <point x="441" y="337"/>
      <point x="441" y="246" type="curve" smooth="yes"/>
      <point x="441" y="156"/>
      <point x="396" y="98"/>
    </contour>
    <contour>
      <point x="383" y="404" type="curve"/>
      <point x="427" y="483" type="line"/>
      <point x="336" y="520"/>
      <point x="240" y="536"/>
      <point x="240" y="590" type="curve" smooth="yes"/>
      <point x="240" y="613"/>
      <point x="256" y="626"/>
      <point x="278" y="633" type="curve" smooth="yes"/>
      <point x="293" y="637"/>
      <point x="310" y="637"/>
      <point x="332" y="637" type="curve" smooth="yes"/>
      <point x="468" y="637" type="line"/>
      <point x="468" y="735" type="line"/>
      <point x="305" y="735" type="line" smooth="yes"/>
      <point x="274" y="735"/>
      <point x="259" y="735"/>
      <point x="242" y="732" type="curve" smooth="yes"/>
      <point x="146" y="719"/>
      <point x="119" y="650"/>
      <point x="119" y="596" type="curve" smooth="yes"/>
      <point x="119" y="464"/>
      <point x="276" y="433"/>
    </contour>
  </outline>
</glyph>
<glyph name="zeta" format="2">
  <advance width="526"/>
  <unicode hex="03B6"/>
  <outline>
    <contour>
      <point x="411" y="-120" type="curve"/>
      <point x="516" y="-120" type="line"/>
      <point x="535" y="-2"/>
      <point x="496" y="74"/>
      <point x="426" y="99" type="curve" smooth="yes"/>
      <point x="398" y="109"/>
      <point x="359" y="112"/>
      <point x="328" y="112" type="curve" smooth="yes"/>
      <point x="235" y="115"/>
      <point x="167" y="121"/>
      <point x="167" y="209" type="curve" smooth="yes"/>
      <point x="167" y="271"/>
      <point x="201" y="331"/>
      <point x="297" y="421" type="curve" smooth="yes"/>
      <point x="471" y="581"/>
      <point x="475" y="587"/>
      <point x="522" y="631" type="curve"/>
      <point x="522" y="720" type="line"/>
      <point x="70" y="720" type="line"/>
      <point x="70" y="613" type="line"/>
      <point x="337" y="613" type="line"/>
      <point x="280" y="562"/>
      <point x="235" y="522"/>
      <point x="183" y="470" type="curve" smooth="yes"/>
      <point x="71" y="355"/>
      <point x="40" y="284"/>
      <point x="40" y="198" type="curve" smooth="yes"/>
      <point x="40" y="53"/>
      <point x="127" y="7"/>
      <point x="264" y="0" type="curve" smooth="yes"/>
      <point x="344" y="-4"/>
      <point x="412" y="1"/>
    </contour>
  </outline>
</glyph>
<glyph name="iota" format="2">
  <advance width="405"/>
  <unicode hex="03B9"/>
  <outline>
    <contour>
      <point x="211" y="-4" type="curve" smooth="yes"/>
      <point x="249" y="-11"/>
      <point x="318" y="-11"/>
      <point x="359" y="0" type="curve"/>
      <point x="359" y="101" type="line"/>
      <point x="330" y="96"/>
      <point x="297" y="95"/>
      <point x="270" y="97" type="curve" smooth="yes"/>
      <point x="248" y="99"/>
      <point x="225" y="108"/>
      <point x="211" y="130" type="curve" smooth="yes"/>
      <point x="198" y="152"/>
      <point x="200" y="183"/>
      <point x="200" y="227" type="curve" smooth="yes"/>
      <point x="200" y="540" type="line"/>
      <point x="80" y="540" type="line"/>
      <point x="80" y="221" type="line" smooth="yes"/>
      <point x="80" y="152"/>
      <point x="75" y="109"/>
      <point x="102" y="64" type="curve" smooth="yes"/>
      <point x="132" y="17"/>
      <point x="172" y="3"/>
    </contour>
  </outline>
</glyph>
<glyph name="lambda" format="2">
  <advance width="553"/>
  <unicode hex="03BB"/>
  <outline>
    <contour>
      <point x="20" y="0" type="line"/>
      <point x="141" y="0" type="line"/>
      <point x="276" y="392" type="line"/>
      <point x="412" y="0" type="line"/>
      <point x="533" y="0" type="line"/>
      <point x="337" y="540" type="line" smooth="yes"/>
      <point x="306" y="627"/>
      <point x="275" y="708"/>
      <point x="189" y="728" type="curve" smooth="yes"/>
      <point x="159" y="735"/>
      <point x="120" y="735"/>
      <point x="108" y="735" type="curve" smooth="yes"/>
      <point x="71" y="735" type="line"/>
      <point x="71" y="630" type="line"/>
      <point x="97" y="630" type="line" smooth="yes"/>
      <point x="166" y="630"/>
      <point x="190" y="604"/>
      <point x="216" y="540" type="curve"/>
    </contour>
  </outline>
</glyph>
<glyph name="mu" format="2">
  <advance width="636"/>
  <unicode hex="03BC"/>
  <outline>
    <contour>
      <point x="70" y="-240" type="line"/>
      <point x="176" y="-240" type="line"/>
      <point x="176" y="14" type="line"/>
      <point x="204" y="-5"/>
      <point x="239" y="-15"/>
      <point x="282" y="-15" type="curve" smooth="yes"/>
      <point x="360" y="-15"/>
      <point x="420" y="13"/>
      <point x="459" y="61" type="curve"/>
      <point x="459" y="0" type="line"/>
      <point x="566" y="0" type="line"/>
      <point x="566" y="540" type="line"/>
      <point x="444" y="540" type="line"/>
      <point x="444" y="262" type="line" smooth="yes"/>
      <point x="444" y="132"/>
      <point x="379" y="98"/>
      <point x="318" y="98" type="curve" smooth="yes"/>
      <point x="203" y="98"/>
      <point x="192" y="213"/>
      <point x="192" y="280" type="curve" smooth="yes"/>
      <point x="192" y="540" type="line"/>
      <point x="70" y="540" type="line"/>
    </contour>
  </outline>
</glyph>
<glyph name="xi" format="2">
  <advance width="577"/>
  <unicode hex="03BE"/>
  <outline>
    <contour>
      <point x="460" y="-120" type="curve"/>
      <point x="566" y="-120" type="line"/>
      <point x="592" y="2"/>
      <point x="542" y="74"/>
      <point x="468" y="99" type="curve" smooth="yes"/>
      <point x="434" y="111"/>
      <point x="395" y="112"/>
      <point x="353" y="112" type="curve" smooth="yes"/>
      <point x="246" y="114"/>
      <point x="168" y="138"/>
      <point x="168" y="224" type="curve" smooth="yes"/>
      <point x="168" y="298"/>
      <point x="224" y="320"/>
      <point x="316" y="324" type="curve" smooth="yes"/>
      <point x="386" y="326"/>
      <point x="388" y="326"/>
      <point x="397" y="326" type="curve"/>
      <point x="397" y="439" type="line"/>
      <point x="385" y="439"/>
      <point x="345" y="439"/>
      <point x="327" y="440" type="curve" smooth="yes"/>
      <point x="250" y="444"/>
      <point x="196" y="473"/>
      <point x="196" y="535" type="curve" smooth="yes"/>
      <point x="196" y="595"/>
      <point x="247" y="622"/>
      <point x="316" y="622" type="curve" smooth="yes"/>
      <point x="393" y="622"/>
      <point x="445" y="589"/>
      <point x="475" y="543" type="curve"/>
      <point x="560" y="629" type="line"/>
      <point x="508" y="691"/>
      <point x="425" y="735"/>
      <point x="316" y="735" type="curve" smooth="yes"/>
      <point x="193" y="735"/>
      <point x="69" y="679"/>
      <point x="69" y="539" type="curve" smooth="yes"/>
      <point x="69" y="472"/>
      <point x="97" y="420"/>
      <point x="140" y="382" type="curve"/>
      <point x="70" y="356"/>
      <point x="40" y="292"/>
      <point x="40" y="214" type="curve" smooth="yes"/>
      <point x="40" y="85"/>
      <point x="123" y="6"/>
      <point x="312" y="0" type="curve" smooth="yes"/>
      <point x="412" y="-2"/>
      <point x="469" y="-6"/>
    </contour>
  </outline>
</glyph>
<glyph name="pi" format="2">
  <advance width="675"/>
  <unicode hex="03C0"/>
  <outline>
    <contour>
      <point x="123" y="0" type="line"/>
      <point x="244" y="0" type="line"/>
      <point x="244" y="433" type="line"/>
      <point x="431" y="433" type="line"/>
      <point x="431" y="0" type="line"/>
      <point x="552" y="0" type="line"/>
      <point x="552" y="433" type="line"/>
      <point x="638" y="433" type="line"/>
      <point x="638" y="540" type="line"/>
      <point x="37" y="540" type="line"/>
      <point x="37" y="433" type="line"/>
      <point x="123" y="433" type="line"/>
    </contour>
  </outline>
</glyph>
<glyph name="rho" format="2">
  <advance width="636"/>
  <unicode hex="03C1"/>
  <outline>
    <contour>
      <point x="70" y="-240" type="line"/>
      <point x="191" y="-240" type="line"/>
      <point x="191" y="44" type="line"/>
      <point x="226" y="8"/>
      <point x="283" y="-15"/>
      <point x="348" y="-15" type="curve" smooth="yes"/>
      <point x="500" y="-15"/>
      <point x="596" y="107"/>
      <point x="596" y="272" type="curve" smooth="yes"/>
      <point x="596" y="434"/>
      <point x="502" y="555"/>
      <point x="335" y="555" type="curve" smooth="yes"/>
      <point x="191" y="555"/>
      <point x="98" y="466"/>
      <point x="76" y="336" type="curve" smooth="yes"/>
      <point x="70" y="303"/>
      <point x="70" y="268"/>
      <point x="70" y="232" type="curve" smooth="yes"/>
    </contour>
    <contour>
      <point x="332" y="93" type="curve" smooth="yes"/>
      <point x="238" y="93"/>
      <point x="190" y="163"/>
      <point x="190" y="270" type="curve" smooth="yes"/>
      <point x="190" y="376"/>
      <point x="234" y="447"/>
      <point x="332" y="447" type="curve" smooth="yes"/>
      <point x="428" y="447"/>
      <point x="475" y="377"/>
      <point x="475" y="271" type="curve" smooth="yes"/>
      <point x="475" y="166"/>
      <point x="428" y="93"/>
    </contour>
  </outline>
</glyph>
<glyph name="sigmafinal" format="2">
  <advance width="576"/>
  <unicode hex="03C2"/>
  <outline>
    <contour>
      <point x="427" y="-120" type="curve"/>
      <point x="532" y="-120" type="line"/>
      <point x="551" y="-6"/>
      <point x="516" y="73"/>
      <point x="442" y="99" type="curve" smooth="yes"/>
      <point x="402" y="113"/>
      <point x="342" y="112"/>
      <point x="318" y="112" type="curve" smooth="yes"/>
      <point x="200" y="114"/>
      <point x="176" y="183"/>
      <point x="176" y="268" type="curve" smooth="yes"/>
      <point x="176" y="368"/>
      <point x="211" y="442"/>
      <point x="301" y="442" type="curve" smooth="yes"/>
      <point x="362" y="442"/>
      <point x="406" y="408"/>
      <point x="425" y="350" type="curve"/>
      <point x="545" y="383" type="line"/>
      <point x="519" y="490"/>
      <point x="429" y="555"/>
      <point x="306" y="555" type="curve" smooth="yes"/>
      <point x="142" y="555"/>
      <point x="40" y="441"/>
      <point x="40" y="259" type="curve" smooth="yes"/>
      <point x="40" y="93"/>
      <point x="134" y="5"/>
      <point x="273" y="0" type="curve" smooth="yes"/>
      <point x="366" y="-3"/>
      <point x="429" y="-3"/>
    </contour>
  </outline>
</glyph>
<glyph name="sigma" format="2">
  <advance width="628"/>
  <unicode hex="03C3"/>
  <outline>
    <contour>
      <point x="309" y="-15" type="curve" smooth="yes"/>
      <point x="469" y="-15"/>
      <point x="578" y="106"/>
      <point x="578" y="263" type="curve" smooth="yes"/>
      <point x="578" y="346"/>
      <point x="544" y="420"/>
      <point x="498" y="465" type="curve"/>
      <point x="470" y="433" type="line"/>
      <point x="608" y="433" type="line"/>
      <point x="608" y="540" type="line"/>
      <point x="382" y="540" type="line" smooth="yes"/>
      <point x="321" y="540"/>
      <point x="275" y="540"/>
      <point x="240" y="532" type="curve" smooth="yes"/>
      <point x="118" y="503"/>
      <point x="40" y="398"/>
      <point x="40" y="263" type="curve" smooth="yes"/>
      <point x="40" y="107"/>
      <point x="148" y="-15"/>
    </contour>
    <contour>
      <point x="309" y="98" type="curve" smooth="yes"/>
      <point x="216" y="98"/>
      <point x="168" y="165"/>
      <point x="168" y="263" type="curve" smooth="yes"/>
      <point x="168" y="353"/>
      <point x="212" y="427"/>
      <point x="309" y="427" type="curve" smooth="yes"/>
      <point x="402" y="427"/>
      <point x="451" y="356"/>
      <point x="451" y="263" type="curve" smooth="yes"/>
      <point x="451" y="169"/>
      <point x="403" y="98"/>
    </contour>
  </outline>
</glyph>
<glyph name="tau" format="2">
  <advance width="577"/>
  <unicode hex="03C4"/>
  <outline>
    <contour>
      <point x="337" y="-4" type="curve" smooth="yes"/>
      <point x="375" y="-11"/>
      <point x="444" y="-11"/>
      <point x="484" y="0" type="curve"/>
      <point x="484" y="101" type="line"/>
      <point x="456" y="96"/>
      <point x="423" y="95"/>
      <point x="396" y="97" type="curve" smooth="yes"/>
      <point x="373" y="99"/>
      <point x="350" y="108"/>
      <point x="337" y="130" type="curve" smooth="yes"/>
      <point x="324" y="152"/>
      <point x="326" y="183"/>
      <point x="326" y="227" type="curve" smooth="yes"/>
      <point x="326" y="433" type="line"/>
      <point x="507" y="433" type="line"/>
      <point x="507" y="540" type="line"/>
      <point x="25" y="540" type="line"/>
      <point x="25" y="433" type="line"/>
      <point x="206" y="433" type="line"/>
      <point x="206" y="221" type="line" smooth="yes"/>
      <point x="206" y="152"/>
      <point x="200" y="109"/>
      <point x="228" y="64" type="curve" smooth="yes"/>
      <point x="257" y="17"/>
      <point x="297" y="3"/>
    </contour>
  </outline>
</glyph>
<glyph name="upsilon" format="2">
  <advance width="616"/>
  <unicode hex="03C5"/>
  <outline>
    <contour>
      <point x="60" y="247" type="line" smooth="yes"/>
      <point x="60" y="146"/>
      <point x="76" y="-15"/>
      <point x="308" y="-15" type="curve" smooth="yes"/>
      <point x="540" y="-15"/>
      <point x="556" y="146"/>
      <point x="556" y="247" type="curve" smooth="yes"/>
      <point x="556" y="540" type="line"/>
      <point x="434" y="540" type="line"/>
      <point x="434" y="280" type="line" smooth="yes"/>
      <point x="434" y="213"/>
      <point x="424" y="98"/>
      <point x="308" y="98" type="curve" smooth="yes"/>
      <point x="193" y="98"/>
      <point x="182" y="213"/>
      <point x="182" y="280" type="curve" smooth="yes"/>
      <point x="182" y="540" type="line"/>
      <point x="60" y="540" type="line"/>
    </contour>
  </outline>
</glyph>
<glyph name="psi" format="2">
  <advance width="693"/>
  <unicode hex="03C8"/>
  <outline>
    <contour>
      <point x="289" y="-225" type="line"/>
      <point x="404" y="-225" type="line"/>
      <point x="404" y="-27" type="line"/>
      <point x="518" y="-22"/>
      <point x="615" y="26"/>
      <point x="644" y="145" type="curve" smooth="yes"/>
      <point x="652" y="172"/>
      <point x="653" y="198"/>
      <point x="653" y="221" type="curve" smooth="yes"/>
      <point x="653" y="540" type="line"/>
      <point x="540" y="540" type="line"/>
      <point x="540" y="241" type="line" smooth="yes"/>
      <point x="540" y="231"/>
      <point x="540" y="208"/>
      <point x="536" y="185" type="curve" smooth="yes"/>
      <point x="521" y="114"/>
      <point x="467" y="86"/>
      <point x="404" y="85" type="curve"/>
      <point x="404" y="540" type="line"/>
      <point x="289" y="540" type="line"/>
      <point x="289" y="85" type="line"/>
      <point x="229" y="86"/>
      <point x="178" y="107"/>
      <point x="160" y="178" type="curve" smooth="yes"/>
      <point x="153" y="204"/>
      <point x="153" y="229"/>
      <point x="153" y="241" type="curve" smooth="yes"/>
      <point x="153" y="540" type="line"/>
      <point x="40" y="540" type="line"/>
      <point x="40" y="221" type="line" smooth="yes"/>
      <point x="40" y="202"/>
      <point x="42" y="171"/>
      <point x="49" y="144" type="curve" smooth="yes"/>
      <point x="77" y="25"/>
      <point x="174" y="-22"/>
      <point x="289" y="-27" type="curve"/>
    </contour>
  </outline>
</glyph>
<glyph name="omega" format="2">
  <advance width="798"/>
  <unicode hex="03C9"/>
  <outline>
    <contour>
      <point x="252" y="-15" type="curve" smooth="yes"/>
      <point x="320" y="-15"/>
      <point x="384" y="14"/>
      <point x="408" y="99" type="curve"/>
      <point x="390" y="99" type="line"/>
      <point x="414" y="14"/>
      <point x="478" y="-15"/>
      <point x="546" y="-15" type="curve" smooth="yes"/>
      <point x="682" y="-15"/>
      <point x="758" y="104"/>
      <point x="758" y="254" type="curve" smooth="yes"/>
      <point x="758" y="380"/>
      <point x="706" y="492"/>
      <point x="607" y="555" type="curve"/>
      <point x="525" y="459" type="line"/>
      <point x="597" y="404"/>
      <point x="630" y="351"/>
      <point x="630" y="260" type="curve" smooth="yes"/>
      <point x="630" y="171"/>
      <point x="597" y="98"/>
      <point x="529" y="98" type="curve" smooth="yes"/>
      <point x="458" y="98"/>
      <point x="454" y="180"/>
      <point x="454" y="285" type="curve" smooth="yes"/>
      <point x="454" y="342" type="line"/>
      <point x="343" y="342" type="line"/>
      <point x="343" y="285" type="line" smooth="yes"/>
      <point x="343" y="182"/>
      <point x="341" y="98"/>
      <point x="268" y="98" type="curve" smooth="yes"/>
      <point x="203" y="98"/>
      <point x="168" y="168"/>
      <point x="168" y="260" type="curve" smooth="yes"/>
      <point x="168" y="348"/>
      <point x="199" y="402"/>
      <point x="273" y="459" type="curve"/>
      <point x="191" y="555" type="line"/>
      <point x="94" y="494"/>
      <point x="40" y="382"/>
      <point x="40" y="255" type="curve" smooth="yes"/>
      <point x="40" y="107"/>
      <point x="114" y="-15"/>
    </contour>
  </outline>
</glyph>
<glyph name="Dje-cy" format="2">
  <advance width="676"/>
  <unicode hex="0402"/>
  <outline>
    <contour>
      <point x="78" y="0" type="line"/>
      <point x="200" y="0" type="line"/>
      <point x="200" y="256" type="line" smooth="yes"/>
      <point x="200" y="286"/>
      <point x="202" y="322"/>
      <point x="210" y="348" type="curve" smooth="yes"/>
      <point x="227" y="403"/>
      <point x="278" y="439"/>
      <point x="361" y="439" type="curve" smooth="yes"/>
      <point x="450" y="439"/>
      <point x="514" y="397"/>
      <point x="514" y="280" type="curve" smooth="yes"/>
      <point x="514" y="191"/>
      <point x="477" y="122"/>
      <point x="368" y="122" type="curve"/>
      <point x="368" y="0" type="line"/>
      <point x="554" y="0"/>
      <point x="636" y="109"/>
      <point x="636" y="280" type="curve" smooth="yes"/>
      <point x="636" y="460"/>
      <point x="543" y="555"/>
      <point x="378" y="555" type="curve" smooth="yes"/>
      <point x="296" y="555"/>
      <point x="230" y="532"/>
      <point x="185" y="486" type="curve"/>
      <point x="185" y="613" type="line"/>
      <point x="345" y="613" type="line"/>
      <point x="345" y="720" type="line"/>
      <point x="0" y="720" type="line"/>
      <point x="0" y="613" type="line"/>
      <point x="78" y="613" type="line"/>
    </contour>
  </outline>
</glyph>
<glyph name="Kje-cy" format="2">
  <advance width="647"/>
  <unicode hex="040C"/>
  <outline>
    <contour>
      <point x="70" y="0" type="line"/>
      <point x="190" y="0" type="line"/>
      <point x="190" y="336" type="line"/>
      <point x="494" y="0" type="line"/>
      <point x="647" y="0" type="line"/>
      <point x="316" y="367" type="line"/>
      <point x="626" y="720" type="line"/>
      <point x="478" y="720" type="line"/>
      <point x="190" y="386" type="line"/>
      <point x="190" y="720" type="line"/>
      <point x="70" y="720" type="line"/>
    </contour>
    <component base="acutecomb" xOffset="76"/>
  </outline>
</glyph>
<glyph name="Iigrave-cy" format="2">
  <advance width="718"/>
  <unicode hex="040D"/>
  <outline>
    <contour>
      <point x="70" y="0" type="line"/>
      <point x="192" y="0" type="line"/>
      <point x="526" y="508" type="line"/>
      <point x="526" y="0" type="line"/>
      <point x="648" y="0" type="line"/>
      <point x="648" y="720" type="line"/>
      <point x="526" y="720" type="line"/>
      <point x="192" y="212" type="line"/>
      <point x="192" y="720" type="line"/>
      <point x="70" y="720" type="line"/>
    </contour>
    <component base="gravecomb" xOffset="97"/>
  </outline>
</glyph>
<glyph name="Be-cy" format="2">
  <advance width="638"/>
  <unicode hex="0411"/>
  <outline>
    <contour>
      <point x="70" y="0" type="line"/>
      <point x="368" y="0" type="line" smooth="yes"/>
      <point x="382" y="0"/>
      <point x="406" y="1"/>
      <point x="425" y="3" type="curve" smooth="yes"/>
      <point x="547" y="17"/>
      <point x="608" y="112"/>
      <point x="608" y="226" type="curve" smooth="yes"/>
      <point x="608" y="340"/>
      <point x="546" y="435"/>
      <point x="425" y="449" type="curve" smooth="yes"/>
      <point x="406" y="451"/>
      <point x="381" y="452"/>
      <point x="368" y="452" type="curve" smooth="yes"/>
      <point x="190" y="452" type="line"/>
      <point x="190" y="607" type="line"/>
      <point x="552" y="607" type="line"/>
      <point x="552" y="720" type="line"/>
      <point x="70" y="720" type="line"/>
    </contour>
    <contour>
      <point x="190" y="113" type="line"/>
      <point x="190" y="339" type="line"/>
      <point x="362" y="339" type="line" smooth="yes"/>
      <point x="376" y="339"/>
      <point x="394" y="338"/>
      <point x="408" y="335" type="curve" smooth="yes"/>
      <point x="468" y="322"/>
      <point x="487" y="272"/>
      <point x="487" y="226" type="curve" smooth="yes"/>
      <point x="487" y="180"/>
      <point x="468" y="130"/>
      <point x="408" y="117" type="curve" smooth="yes"/>
      <point x="394" y="114"/>
      <point x="376" y="113"/>
      <point x="362" y="113" type="curve" smooth="yes"/>
    </contour>
  </outline>
</glyph>
<glyph name="De-cy" format="2">
  <advance width="752"/>
  <unicode hex="0414"/>
  <outline>
    <contour>
      <point x="32" y="-120" type="line"/>
      <point x="152" y="-120" type="line"/>
      <point x="152" y="0" type="line"/>
      <point x="592" y="0" type="line"/>
      <point x="592" y="-120" type="line"/>
      <point x="712" y="-120" type="line"/>
      <point x="712" y="113" type="line"/>
      <point x="658" y="113" type="line"/>
      <point x="658" y="720" type="line"/>
      <point x="188" y="721" type="line"/>
      <point x="179" y="572"/>
      <point x="173" y="462"/>
      <point x="162" y="339" type="curve" smooth="yes"/>
      <point x="151" y="214"/>
      <point x="125" y="113"/>
      <point x="32" y="113" type="curve"/>
    </contour>
    <contour>
      <point x="219" y="113" type="line"/>
      <point x="261" y="164"/>
      <point x="268" y="210"/>
      <point x="278" y="317" type="curve" smooth="yes"/>
      <point x="289" y="427"/>
      <point x="292" y="503"/>
      <point x="299" y="608" type="curve"/>
      <point x="538" y="607" type="line"/>
      <point x="538" y="113" type="line"/>
    </contour>
  </outline>
</glyph>
<glyph name="Zhe-cy" format="2">
  <advance width="916"/>
  <unicode hex="0416"/>
  <outline>
    <contour>
      <point x="10" y="0" type="line"/>
      <point x="159" y="0" type="line"/>
      <point x="398" y="328" type="line"/>
      <point x="398" y="0" type="line"/>
      <point x="518" y="0" type="line"/>
      <point x="518" y="328" type="line"/>
      <point x="757" y="0" type="line"/>
      <point x="906" y="0" type="line"/>
      <point x="635" y="367" type="line"/>
      <point x="884" y="720" type="line"/>
      <point x="741" y="720" type="line"/>
      <point x="518" y="394" type="line"/>
      <point x="518" y="720" type="line"/>
      <point x="398" y="720" type="line"/>
      <point x="398" y="394" type="line"/>
      <point x="175" y="720" type="line"/>
      <point x="31" y="720" type="line"/>
      <point x="281" y="367" type="line"/>
    </contour>
  </outline>
</glyph>
<glyph name="Ze-cy" format="2">
  <advance width="649"/>
  <unicode hex="0417"/>
  <outline>
    <contour>
      <point x="325" y="-15" type="curve" smooth="yes"/>
      <point x="486" y="-15"/>
      <point x="611" y="72"/>
      <point x="611" y="213" type="curve" smooth="yes"/>
      <point x="611" y="292"/>
      <point x="574" y="343"/>
      <point x="511" y="369" type="curve"/>
      <point x="555" y="404"/>
      <point x="582" y="463"/>
      <point x="582" y="529" type="curve" smooth="yes"/>
      <point x="582" y="671"/>
      <point x="459" y="735"/>
      <point x="333" y="735" type="curve" smooth="yes"/>
      <point x="226" y="735"/>
      <point x="140" y="688"/>
      <point x="91" y="629" type="curve"/>
      <point x="176" y="543" type="line"/>
      <point x="203" y="586"/>
      <point x="258" y="622"/>
      <point x="330" y="622" type="curve" smooth="yes"/>
      <point x="405" y="622"/>
      <point x="455" y="585"/>
      <point x="455" y="524" type="curve" smooth="yes"/>
      <point x="455" y="462"/>
      <point x="400" y="430"/>
      <point x="324" y="427" type="curve" smooth="yes"/>
      <point x="306" y="426"/>
      <point x="266" y="426"/>
      <point x="254" y="426" type="curve"/>
      <point x="254" y="312" type="line"/>
      <point x="263" y="312"/>
      <point x="265" y="312"/>
      <point x="335" y="310" type="curve" smooth="yes"/>
      <point x="412" y="308"/>
      <point x="484" y="289"/>
      <point x="484" y="213" type="curve" smooth="yes"/>
      <point x="484" y="152"/>
      <point x="437" y="99"/>
      <point x="330" y="99" type="curve" smooth="yes"/>
      <point x="219" y="99"/>
      <point x="165" y="154"/>
      <point x="141" y="209" type="curve"/>
      <point x="38" y="139" type="line"/>
      <point x="80" y="61"/>
      <point x="173" y="-15"/>
    </contour>
  </outline>
</glyph>
<glyph name="Iishort-cy" format="2">
  <advance width="718"/>
  <unicode hex="0419"/>
  <outline>
    <contour>
      <point x="70" y="0" type="line"/>
      <point x="192" y="0" type="line"/>
      <point x="526" y="508" type="line"/>
      <point x="526" y="0" type="line"/>
      <point x="648" y="0" type="line"/>
      <point x="648" y="720" type="line"/>
      <point x="526" y="720" type="line"/>
      <point x="192" y="212" type="line"/>
      <point x="192" y="720" type="line"/>
      <point x="70" y="720" type="line"/>
    </contour>
    <component base="brevecomb" xOffset="87"/>
  </outline>
</glyph>
<glyph name="El-cy" format="2">
  <advance width="722"/>
  <unicode hex="041B"/>
  <outline>
    <contour>
      <point x="20" y="0" type="line"/>
      <point x="172" y="-32"/>
      <point x="210" y="55"/>
      <point x="236" y="194" type="curve" smooth="yes"/>
      <point x="265" y="347"/>
      <point x="276" y="516"/>
      <point x="282" y="607" type="curve"/>
      <point x="532" y="607" type="line"/>
      <point x="532" y="0" type="line"/>
      <point x="652" y="0" type="line"/>
      <point x="652" y="720" type="line"/>
      <point x="170" y="720" type="line"/>
      <point x="166" y="609"/>
      <point x="155" y="404"/>
      <point x="124" y="240" type="curve" smooth="yes"/>
      <point x="104" y="124"/>
      <point x="84" y="96"/>
      <point x="20" y="101" type="curve"/>
    </contour>
  </outline>
</glyph>
<glyph name="Pe-cy" format="2">
  <advance width="723"/>
  <unicode hex="041F"/>
  <outline>
    <contour>
      <point x="70" y="0" type="line"/>
      <point x="190" y="0" type="line"/>
      <point x="190" y="607" type="line"/>
      <point x="533" y="607" type="line"/>
      <point x="533" y="0" type="line"/>
      <point x="653" y="0" type="line"/>
      <point x="653" y="720" type="line"/>
      <point x="70" y="720" type="line"/>
    </contour>
  </outline>
</glyph>
<glyph name="U-cy" format="2">
  <advance width="636"/>
  <unicode hex="0423"/>
  <outline>
    <contour>
      <point x="165" y="0" type="line"/>
      <point x="294" y="0" type="line"/>
      <point x="632" y="720" type="line"/>
      <point x="504" y="720" type="line"/>
      <point x="323" y="321" type="line"/>
      <point x="148" y="720" type="line"/>
      <point x="12" y="720" type="line"/>
      <point x="260" y="194" type="line"/>
    </contour>
  </outline>
</glyph>
<glyph name="Ef-cy" format="2">
  <advance width="739"/>
  <unicode hex="0424"/>
  <outline>
    <contour>
      <point x="309" y="0" type="line"/>
      <point x="429" y="0" type="line"/>
      <point x="429" y="103" type="line"/>
      <point x="577" y="78"/>
      <point x="709" y="179"/>
      <point x="709" y="380" type="curve" smooth="yes"/>
      <point x="709" y="582"/>
      <point x="577" y="688"/>
      <point x="429" y="662" type="curve"/>
      <point x="429" y="720" type="line"/>
      <point x="309" y="720" type="line"/>
      <point x="309" y="662" type="line"/>
      <point x="161" y="688"/>
      <point x="30" y="582"/>
      <point x="30" y="380" type="curve" smooth="yes"/>
      <point x="30" y="179"/>
      <point x="161" y="78"/>
      <point x="309" y="103" type="curve"/>
    </contour>
    <contour>
      <point x="309" y="213" type="line"/>
      <point x="192" y="195"/>
      <point x="152" y="286"/>
      <point x="152" y="380" type="curve" smooth="yes"/>
      <point x="152" y="476"/>
      <point x="192" y="572"/>
      <point x="309" y="554" type="curve"/>
    </contour>
    <contour>
      <point x="429" y="213" type="curve"/>
      <point x="429" y="554" type="line"/>
      <point x="545" y="572"/>
      <point x="586" y="468"/>
      <point x="586" y="377" type="curve" smooth="yes"/>
      <point x="586" y="286"/>
      <point x="545" y="195"/>
    </contour>
  </outline>
</glyph>
<glyph name="Tse-cy" format="2">
  <advance width="750"/>
  <unicode hex="0426"/>
  <outline>
    <contour>
      <point x="620" y="-113" type="line"/>
      <point x="740" y="-113" type="line"/>
      <point x="740" y="107" type="line"/>
      <point x="660" y="107" type="line"/>
      <point x="660" y="703" type="line"/>
      <point x="540" y="703" type="line"/>
      <point x="540" y="107" type="line"/>
      <point x="190" y="107" type="line"/>
      <point x="190" y="720" type="line"/>
      <point x="70" y="720" type="line"/>
      <point x="70" y="0" type="line"/>
      <point x="620" y="0" type="line"/>
    </contour>
  </outline>
</glyph>
<glyph name="Che-cy" format="2">
  <advance width="676"/>
  <unicode hex="0427"/>
  <outline>
    <contour>
      <point x="485" y="0" type="line"/>
      <point x="606" y="0" type="line"/>
      <point x="606" y="720" type="line"/>
      <point x="485" y="720" type="line"/>
      <point x="485" y="351" type="line"/>
      <point x="500" y="412" type="line"/>
      <point x="477" y="382"/>
      <point x="420" y="351"/>
      <point x="343" y="351" type="curve" smooth="yes"/>
      <point x="204" y="351"/>
      <point x="192" y="453"/>
      <point x="192" y="552" type="curve" smooth="yes"/>
      <point x="192" y="720" type="line"/>
      <point x="70" y="720" type="line"/>
      <point x="70" y="515" type="line" smooth="yes"/>
      <point x="70" y="351"/>
      <point x="135" y="237"/>
      <point x="317" y="237" type="curve" smooth="yes"/>
      <point x="393" y="237"/>
      <point x="465" y="256"/>
      <point x="504" y="289" type="curve"/>
      <point x="485" y="320" type="line"/>
    </contour>
  </outline>
</glyph>
<glyph name="Hardsign-cy" format="2">
  <advance width="658"/>
  <unicode hex="042A"/>
  <outline>
    <contour>
      <point x="97" y="0" type="line"/>
      <point x="394" y="0" type="line" smooth="yes"/>
      <point x="408" y="0"/>
      <point x="433" y="1"/>
      <point x="452" y="4" type="curve" smooth="yes"/>
      <point x="577" y="23"/>
      <point x="635" y="116"/>
      <point x="635" y="234" type="curve" smooth="yes"/>
      <point x="635" y="353"/>
      <point x="576" y="445"/>
      <point x="452" y="465" type="curve" smooth="yes"/>
      <point x="433" y="468"/>
      <point x="407" y="469"/>
      <point x="394" y="469" type="curve" smooth="yes"/>
      <point x="217" y="469" type="line"/>
      <point x="217" y="720" type="line"/>
      <point x="-2" y="720" type="line"/>
      <point x="-2" y="626" type="line"/>
      <point x="97" y="626" type="line"/>
    </contour>
    <contour>
      <point x="217" y="113" type="line"/>
      <point x="217" y="356" type="line"/>
      <point x="389" y="356" type="line" smooth="yes"/>
      <point x="403" y="356"/>
      <point x="420" y="355"/>
      <point x="435" y="351" type="curve" smooth="yes"/>
      <point x="494" y="336"/>
      <point x="514" y="280"/>
      <point x="514" y="234" type="curve" smooth="yes"/>
      <point x="514" y="188"/>
      <point x="494" y="133"/>
      <point x="435" y="118" type="curve" smooth="yes"/>
      <point x="420" y="114"/>
      <point x="403" y="113"/>
      <point x="389" y="113" type="curve" smooth="yes"/>
    </contour>
  </outline>
</glyph>
<glyph name="Softsign-cy" format="2">
  <advance width="648"/>
  <unicode hex="042C"/>
  <outline>
    <contour>
      <point x="70" y="0" type="line"/>
      <point x="368" y="0" type="line" smooth="yes"/>
      <point x="382" y="0"/>
      <point x="406" y="1"/>
      <point x="425" y="4" type="curve" smooth="yes"/>
      <point x="550" y="23"/>
      <point x="608" y="116"/>
      <point x="608" y="234" type="curve" smooth="yes"/>
      <point x="608" y="353"/>
      <point x="549" y="445"/>
      <point x="425" y="465" type="curve" smooth="yes"/>
      <point x="406" y="468"/>
      <point x="381" y="469"/>
      <point x="368" y="469" type="curve" smooth="yes"/>
      <point x="190" y="469" type="line"/>
      <point x="190" y="720" type="line"/>
      <point x="70" y="720" type="line"/>
    </contour>
    <contour>
      <point x="190" y="113" type="line"/>
      <point x="190" y="356" type="line"/>
      <point x="362" y="356" type="line" smooth="yes"/>
      <point x="376" y="356"/>
      <point x="394" y="355"/>
      <point x="408" y="351" type="curve" smooth="yes"/>
      <point x="468" y="336"/>
      <point x="487" y="280"/>
      <point x="487" y="234" type="curve" smooth="yes"/>
      <point x="487" y="188"/>
      <point x="468" y="133"/>
      <point x="408" y="118" type="curve" smooth="yes"/>
      <point x="394" y="114"/>
      <point x="376" y="113"/>
      <point x="362" y="113" type="curve" smooth="yes"/>
    </contour>
  </outline>
</glyph>
<glyph name="Ereversed-cy" format="2">
  <advance width="720"/>
  <unicode hex="042D"/>
  <outline>
    <contour>
      <point x="352" y="-15" type="curve" smooth="yes"/>
      <point x="565" y="-15"/>
      <point x="690" y="150"/>
      <point x="690" y="360" type="curve" smooth="yes"/>
      <point x="689" y="583"/>
      <point x="562" y="735"/>
      <point x="352" y="735" type="curve" smooth="yes"/>
      <point x="183" y="735"/>
      <point x="66" y="645"/>
      <point x="30" y="488" type="curve"/>
      <point x="151" y="471" type="line"/>
      <point x="175" y="562"/>
      <point x="246" y="620"/>
      <point x="345" y="621" type="curve" smooth="yes"/>
      <point x="469" y="623"/>
      <point x="543" y="539"/>
      <point x="560" y="417" type="curve"/>
      <point x="304" y="417" type="line"/>
      <point x="304" y="304" type="line"/>
      <point x="559" y="304" type="line"/>
      <point x="553" y="257"/>
      <point x="540" y="213"/>
      <point x="511" y="175" type="curve" smooth="yes"/>
      <point x="474" y="124"/>
      <point x="411" y="100"/>
      <point x="345" y="99" type="curve" smooth="yes"/>
      <point x="250" y="98"/>
      <point x="180" y="157"/>
      <point x="153" y="242" type="curve"/>
      <point x="35" y="213" type="line"/>
      <point x="79" y="61"/>
      <point x="192" y="-15"/>
    </contour>
  </outline>
</glyph>
<glyph name="be-cy" format="2">
  <advance width="599"/>
  <unicode hex="0431"/>
  <outline>
    <contour>
      <point x="295" y="-16" type="curve" smooth="yes"/>
      <point x="451" y="-18"/>
      <point x="559" y="90"/>
      <point x="559" y="249" type="curve" smooth="yes"/>
      <point x="559" y="393"/>
      <point x="472" y="506"/>
      <point x="328" y="506" type="curve" smooth="yes"/>
      <point x="265" y="506"/>
      <point x="198" y="483"/>
      <point x="157" y="422" type="curve"/>
      <point x="162" y="482"/>
      <point x="186" y="542"/>
      <point x="234" y="572" type="curve" smooth="yes"/>
      <point x="303" y="615"/>
      <point x="436" y="610"/>
      <point x="512" y="628" type="curve"/>
      <point x="500" y="735" type="line"/>
      <point x="382" y="712"/>
      <point x="258" y="715"/>
      <point x="171" y="654" type="curve" smooth="yes"/>
      <point x="132" y="627"/>
      <point x="96" y="586"/>
      <point x="76" y="540" type="curve" smooth="yes"/>
      <point x="47" y="470"/>
      <point x="36" y="342"/>
      <point x="42" y="257" type="curve" smooth="yes"/>
      <point x="55" y="90"/>
      <point x="140" y="-14"/>
    </contour>
    <contour>
      <point x="301" y="97" type="curve" smooth="yes"/>
      <point x="217" y="97"/>
      <point x="170" y="151"/>
      <point x="170" y="244" type="curve" smooth="yes"/>
      <point x="170" y="336"/>
      <point x="215" y="392"/>
      <point x="301" y="392" type="curve" smooth="yes"/>
      <point x="385" y="392"/>
      <point x="432" y="336"/>
      <point x="432" y="244" type="curve" smooth="yes"/>
      <point x="432" y="155"/>
      <point x="387" y="97"/>
    </contour>
  </outline>
</glyph>
<glyph name="ve-cy" format="2">
  <advance width="560"/>
  <unicode hex="0432"/>
  <outline>
    <contour>
      <point x="70" y="0" type="line"/>
      <point x="335" y="0" type="line" smooth="yes"/>
      <point x="368" y="0"/>
      <point x="402" y="2"/>
      <point x="427" y="10" type="curve" smooth="yes"/>
      <point x="494" y="29"/>
      <point x="530" y="80"/>
      <point x="530" y="153" type="curve" smooth="yes"/>
      <point x="530" y="217"/>
      <point x="502" y="250"/>
      <point x="465" y="267" type="curve" smooth="yes"/>
      <point x="454" y="273"/>
      <point x="440" y="277"/>
      <point x="428" y="279" type="curve"/>
      <point x="440" y="283"/>
      <point x="452" y="289"/>
      <point x="463" y="299" type="curve" smooth="yes"/>
      <point x="487" y="319"/>
      <point x="503" y="347"/>
      <point x="503" y="393" type="curve" smooth="yes"/>
      <point x="503" y="471"/>
      <point x="456" y="514"/>
      <point x="404" y="529" type="curve" smooth="yes"/>
      <point x="382" y="536"/>
      <point x="351" y="540"/>
      <point x="315" y="540" type="curve" smooth="yes"/>
      <point x="70" y="540" type="line"/>
    </contour>
    <contour>
      <point x="192" y="93" type="line"/>
      <point x="192" y="222" type="line"/>
      <point x="324" y="222" type="line" smooth="yes"/>
      <point x="334" y="222"/>
      <point x="352" y="222"/>
      <point x="365" y="217" type="curve" smooth="yes"/>
      <point x="388" y="210"/>
      <point x="407" y="191"/>
      <point x="407" y="158" type="curve" smooth="yes"/>
      <point x="407" y="134"/>
      <point x="396" y="109"/>
      <point x="372" y="100" type="curve" smooth="yes"/>
      <point x="359" y="96"/>
      <point x="341" y="93"/>
      <point x="327" y="93" type="curve" smooth="yes"/>
    </contour>
    <contour>
      <point x="192" y="317" type="line"/>
      <point x="192" y="446" type="line"/>
      <point x="290" y="446" type="line" smooth="yes"/>
      <point x="296" y="446"/>
      <point x="325" y="446"/>
      <point x="342" y="440" type="curve" smooth="yes"/>
      <point x="368" y="432"/>
      <point x="379" y="408"/>
      <point x="379" y="381" type="curve" smooth="yes"/>
      <point x="379" y="356"/>
      <point x="368" y="334"/>
      <point x="347" y="325" type="curve" smooth="yes"/>
      <point x="333" y="319"/>
      <point x="312" y="317"/>
      <point x="292" y="317" type="curve" smooth="yes"/>
    </contour>
  </outline>
</glyph>
<glyph name="de-cy" format="2">
  <advance width="633"/>
  <unicode hex="0434"/>
  <outline>
    <contour>
      <point x="30" y="-120" type="line"/>
      <point x="144" y="-120" type="line"/>
      <point x="144" y="0" type="line"/>
      <point x="490" y="0" type="line"/>
      <point x="490" y="-120" type="line"/>
      <point x="603" y="-120" type="line"/>
      <point x="603" y="94" type="line"/>
      <point x="549" y="94" type="line"/>
      <point x="549" y="540" type="line"/>
      <point x="147" y="540" type="line"/>
      <point x="142" y="419"/>
      <point x="135" y="316"/>
      <point x="122" y="228" type="curve" smooth="yes"/>
      <point x="108" y="129"/>
      <point x="88" y="94"/>
      <point x="30" y="94" type="curve"/>
    </contour>
    <contour>
      <point x="192" y="94" type="line"/>
      <point x="218" y="121"/>
      <point x="226" y="154"/>
      <point x="233" y="210" type="curve" smooth="yes"/>
      <point x="242" y="275"/>
      <point x="248" y="365"/>
      <point x="253" y="446" type="curve"/>
      <point x="429" y="446" type="line"/>
      <point x="429" y="94" type="line"/>
    </contour>
  </outline>
</glyph>
<glyph name="zhe-cy" format="2">
  <advance width="766"/>
  <unicode hex="0436"/>
  <outline>
    <contour>
      <point x="10" y="0" type="line"/>
      <point x="149" y="0" type="line"/>
      <point x="329" y="262" type="line"/>
      <point x="329" y="0" type="line"/>
      <point x="436" y="0" type="line"/>
      <point x="436" y="262" type="line"/>
      <point x="616" y="0" type="line"/>
      <point x="756" y="0" type="line"/>
      <point x="558" y="270" type="line"/>
      <point x="744" y="540" type="line"/>
      <point x="612" y="540" type="line"/>
      <point x="436" y="278" type="line"/>
      <point x="436" y="540" type="line"/>
      <point x="329" y="540" type="line"/>
      <point x="329" y="278" type="line"/>
      <point x="154" y="540" type="line"/>
      <point x="22" y="540" type="line"/>
      <point x="208" y="270" type="line"/>
    </contour>
  </outline>
</glyph>
<glyph name="ze-cy" format="2">
  <advance width="520"/>
  <unicode hex="0437"/>
  <outline>
    <contour>
      <point x="262" y="-15" type="curve" smooth="yes"/>
      <point x="380" y="-15"/>
      <point x="480" y="47"/>
      <point x="480" y="159" type="curve" smooth="yes"/>
      <point x="480" y="222"/>
      <point x="449" y="275"/>
      <point x="394" y="298" type="curve"/>
      <point x="396" y="259" type="line"/>
      <point x="443" y="299"/>
      <point x="463" y="343"/>
      <point x="463" y="394" type="curve" smooth="yes"/>
      <point x="463" y="500"/>
      <point x="369" y="555"/>
      <point x="265" y="555" type="curve" smooth="yes"/>
      <point x="182" y="555"/>
      <point x="106" y="522"/>
      <point x="47" y="468" type="curve"/>
      <point x="115" y="386" type="line"/>
      <point x="154" y="418"/>
      <point x="208" y="443"/>
      <point x="260" y="443" type="curve" smooth="yes"/>
      <point x="302" y="443"/>
      <point x="340" y="426"/>
      <point x="340" y="383" type="curve" smooth="yes"/>
      <point x="340" y="334"/>
      <point x="293" y="326"/>
      <point x="233" y="326" type="curve" smooth="yes"/>
      <point x="193" y="326" type="line"/>
      <point x="193" y="231" type="line"/>
      <point x="233" y="231" type="line" smooth="yes"/>
      <point x="298" y="231"/>
      <point x="357" y="230"/>
      <point x="357" y="172" type="curve" smooth="yes"/>
      <point x="357" y="126"/>
      <point x="320" y="98"/>
      <point x="260" y="98" type="curve" smooth="yes"/>
      <point x="202" y="98"/>
      <point x="155" y="124"/>
      <point x="117" y="170" type="curve"/>
      <point x="22" y="106" type="line"/>
      <point x="70" y="30"/>
      <point x="159" y="-15"/>
    </contour>
  </outline>
</glyph>
<glyph name="ii-cy" format="2">
  <advance width="609"/>
  <unicode hex="0438"/>
  <outline>
    <contour>
      <point x="539" y="540" type="line"/>
      <point x="443" y="540" type="line"/>
      <point x="185" y="196" type="line"/>
      <point x="185" y="540" type="line"/>
      <point x="70" y="540" type="line"/>
      <point x="70" y="0" type="line"/>
      <point x="166" y="0" type="line"/>
      <point x="424" y="353" type="line"/>
      <point x="424" y="0" type="line"/>
      <point x="539" y="0" type="line"/>
    </contour>
  </outline>
</glyph>
<glyph name="ka-cy" format="2">
  <advance width="539"/>
  <unicode hex="043A"/>
  <outline>
    <contour>
      <point x="70" y="0" type="line"/>
      <point x="193" y="0" type="line"/>
      <point x="193" y="260" type="line"/>
      <point x="399" y="0" type="line"/>
      <point x="559" y="0" type="line"/>
      <point x="331" y="270" type="line"/>
      <point x="541" y="540" type="line"/>
      <point x="390" y="540" type="line"/>
      <point x="193" y="280" type="line"/>
      <point x="193" y="540" type="line"/>
      <point x="71" y="540" type="line"/>
    </contour>
  </outline>
</glyph>
<glyph name="el-cy" format="2">
  <advance width="605"/>
  <unicode hex="043B"/>
  <outline>
    <contour>
      <point x="20" y="0" type="line"/>
      <point x="143" y="-28"/>
      <point x="189" y="15"/>
      <point x="211" y="133" type="curve" smooth="yes"/>
      <point x="225" y="202"/>
      <point x="237" y="339"/>
      <point x="244" y="427" type="curve"/>
      <point x="415" y="427" type="line"/>
      <point x="415" y="0" type="line"/>
      <point x="535" y="0" type="line"/>
      <point x="535" y="540" type="line"/>
      <point x="137" y="540" type="line"/>
      <point x="130" y="402"/>
      <point x="120" y="268"/>
      <point x="103" y="179" type="curve" smooth="yes"/>
      <point x="92" y="115"/>
      <point x="79" y="90"/>
      <point x="20" y="101" type="curve"/>
    </contour>
  </outline>
</glyph>
<glyph name="em-cy" format="2">
  <advance width="725"/>
  <unicode hex="043C"/>
  <outline>
    <contour>
      <point x="70" y="0" type="line"/>
      <point x="185" y="0" type="line"/>
      <point x="185" y="298" type="line"/>
      <point x="339" y="0" type="line"/>
      <point x="386" y="0" type="line"/>
      <point x="540" y="298" type="line"/>
      <point x="540" y="0" type="line"/>
      <point x="655" y="0" type="line"/>
      <point x="655" y="540" type="line"/>
      <point x="556" y="540" type="line"/>
      <point x="362" y="167" type="line"/>
      <point x="169" y="540" type="line"/>
      <point x="70" y="540" type="line"/>
    </contour>
  </outline>
</glyph>
<glyph name="te-cy" format="2">
  <advance width="532"/>
  <unicode hex="0442"/>
  <outline>
    <contour>
      <point x="206" y="0" type="line"/>
      <point x="326" y="0" type="line"/>
      <point x="326" y="433" type="line"/>
      <point x="507" y="433" type="line"/>
      <point x="507" y="540" type="line"/>
      <point x="25" y="540" type="line"/>
      <point x="25" y="433" type="line"/>
      <point x="206" y="433" type="line"/>
    </contour>
  </outline>
</glyph>
<glyph name="ef-cy" format="2">
  <advance width="753"/>
  <unicode hex="0444"/>
  <outline>
    <contour>
      <point x="323" y="-225" type="line"/>
      <point x="430" y="-225" type="line"/>
      <point x="430" y="-9" type="line"/>
      <point x="588" y="-34"/>
      <point x="713" y="70"/>
      <point x="713" y="270" type="curve" smooth="yes"/>
      <point x="713" y="469"/>
      <point x="588" y="574"/>
      <point x="430" y="549" type="curve"/>
      <point x="430" y="712" type="line"/>
      <point x="323" y="712" type="line"/>
      <point x="323" y="549" type="line"/>
      <point x="165" y="574"/>
      <point x="40" y="469"/>
      <point x="40" y="270" type="curve" smooth="yes"/>
      <point x="40" y="70"/>
      <point x="165" y="-34"/>
      <point x="323" y="-9" type="curve"/>
    </contour>
    <contour>
      <point x="323" y="98" type="line"/>
      <point x="219" y="81"/>
      <point x="162" y="152"/>
      <point x="162" y="270" type="curve" smooth="yes"/>
      <point x="162" y="388"/>
      <point x="215" y="459"/>
      <point x="323" y="441" type="curve"/>
    </contour>
    <contour>
      <point x="430" y="98" type="curve"/>
      <point x="430" y="441" type="line"/>
      <point x="538" y="459"/>
      <point x="590" y="391"/>
      <point x="590" y="270" type="curve" smooth="yes"/>
      <point x="590" y="149"/>
      <point x="534" y="81"/>
    </contour>
  </outline>
</glyph>
<glyph name="tse-cy" format="2">
  <advance width="653"/>
  <unicode hex="0446"/>
  <outline>
    <contour>
      <point x="523" y="-113" type="line"/>
      <point x="643" y="-113" type="line"/>
      <point x="643" y="107" type="line"/>
      <point x="539" y="107" type="line"/>
      <point x="539" y="540" type="line"/>
      <point x="418" y="540" type="line"/>
      <point x="418" y="113" type="line"/>
      <point x="190" y="113" type="line"/>
      <point x="190" y="540" type="line"/>
      <point x="70" y="540" type="line"/>
      <point x="70" y="0" type="line"/>
      <point x="523" y="0" type="line"/>
    </contour>
  </outline>
</glyph>
<glyph name="che-cy" format="2">
  <advance width="576"/>
  <unicode hex="0447"/>
  <outline>
    <contour>
      <point x="384" y="0" type="line"/>
      <point x="506" y="0" type="line"/>
      <point x="506" y="540" type="line"/>
      <point x="384" y="540" type="line"/>
      <point x="384" y="291" type="line"/>
      <point x="359" y="272"/>
      <point x="322" y="258"/>
      <point x="274" y="258" type="curve" smooth="yes"/>
      <point x="213" y="258"/>
      <point x="181" y="281"/>
      <point x="169" y="335" type="curve" smooth="yes"/>
      <point x="162" y="362"/>
      <point x="162" y="394"/>
      <point x="162" y="409" type="curve" smooth="yes"/>
      <point x="162" y="540" type="line"/>
      <point x="40" y="540" type="line"/>
      <point x="40" y="409" type="line" smooth="yes"/>
      <point x="40" y="390"/>
      <point x="40" y="339"/>
      <point x="48" y="298" type="curve" smooth="yes"/>
      <point x="68" y="203"/>
      <point x="135" y="151"/>
      <point x="246" y="151" type="curve" smooth="yes"/>
      <point x="298" y="151"/>
      <point x="347" y="163"/>
      <point x="384" y="182" type="curve"/>
    </contour>
  </outline>
</glyph>
<glyph name="sha-cy" format="2">
  <advance width="791"/>
  <unicode hex="0448"/>
  <outline>
    <contour>
      <point x="70" y="0" type="line"/>
      <point x="721" y="0" type="line"/>
      <point x="721" y="540" type="line"/>
      <point x="606" y="540" type="line"/>
      <point x="606" y="107" type="line"/>
      <point x="453" y="107" type="line"/>
      <point x="453" y="540" type="line"/>
      <point x="338" y="540" type="line"/>
      <point x="338" y="107" type="line"/>
      <point x="185" y="107" type="line"/>
      <point x="185" y="540" type="line"/>
      <point x="70" y="540" type="line"/>
    </contour>
  </outline>
</glyph>
<glyph name="shcha-cy" format="2">
  <advance width="771"/>
  <unicode hex="0449"/>
  <outline>
    <contour>
      <point x="641" y="-113" type="line"/>
      <point x="761" y="-113" type="line"/>
      <point x="761" y="107" type="line"/>
      <point x="721" y="107" type="line"/>
      <point x="721" y="540" type="line"/>
      <point x="606" y="540" type="line"/>
      <point x="606" y="107" type="line"/>
      <point x="453" y="107" type="line"/>
      <point x="453" y="540" type="line"/>
      <point x="338" y="540" type="line"/>
      <point x="338" y="107" type="line"/>
      <point x="185" y="107" type="line"/>
      <point x="185" y="540" type="line"/>
      <point x="70" y="540" type="line"/>
      <point x="70" y="0" type="line"/>
      <point x="641" y="0" type="line"/>
    </contour>
  </outline>
</glyph>
<glyph name="hardsign-cy" format="2">
  <advance width="598"/>
  <unicode hex="044A"/>
  <outline>
    <contour>
      <point x="98" y="0" type="line"/>
      <point x="317" y="0" type="line" smooth="yes"/>
      <point x="348" y="0"/>
      <point x="391" y="1"/>
      <point x="418" y="7" type="curve" smooth="yes"/>
      <point x="506" y="28"/>
      <point x="558" y="84"/>
      <point x="558" y="179" type="curve" smooth="yes"/>
      <point x="558" y="280"/>
      <point x="505" y="335"/>
      <point x="414" y="354" type="curve" smooth="yes"/>
      <point x="388" y="359"/>
      <point x="346" y="360"/>
      <point x="316" y="360" type="curve" smooth="yes"/>
      <point x="219" y="360" type="line"/>
      <point x="219" y="540" type="line"/>
      <point x="20" y="540" type="line"/>
      <point x="20" y="446" type="line"/>
      <point x="98" y="446" type="line"/>
    </contour>
    <contour>
      <point x="219" y="94" type="line"/>
      <point x="219" y="266" type="line"/>
      <point x="328" y="266" type="line" smooth="yes"/>
      <point x="342" y="266"/>
      <point x="359" y="265"/>
      <point x="375" y="260" type="curve" smooth="yes"/>
      <point x="408" y="252"/>
      <point x="435" y="223"/>
      <point x="435" y="179" type="curve" smooth="yes"/>
      <point x="435" y="138"/>
      <point x="408" y="108"/>
      <point x="378" y="100" type="curve" smooth="yes"/>
      <point x="361" y="95"/>
      <point x="342" y="94"/>
      <point x="328" y="94" type="curve" smooth="yes"/>
    </contour>
  </outline>
</glyph>
<glyph name="yeru-cy" format="2">
  <advance width="740"/>
  <unicode hex="044B"/>
  <outline>
    <contour>
      <point x="70" y="0" type="line"/>
      <point x="252" y="0" type="line" smooth="yes"/>
      <point x="282" y="0"/>
      <point x="326" y="1"/>
      <point x="352" y="7" type="curve" smooth="yes"/>
      <point x="441" y="28"/>
      <point x="493" y="84"/>
      <point x="493" y="179" type="curve" smooth="yes"/>
      <point x="493" y="280"/>
      <point x="440" y="335"/>
      <point x="349" y="354" type="curve" smooth="yes"/>
      <point x="323" y="359"/>
      <point x="281" y="360"/>
      <point x="251" y="360" type="curve" smooth="yes"/>
      <point x="190" y="360" type="line"/>
      <point x="190" y="540" type="line"/>
      <point x="70" y="540" type="line"/>
    </contour>
    <contour>
      <point x="190" y="94" type="line"/>
      <point x="190" y="266" type="line"/>
      <point x="263" y="266" type="line" smooth="yes"/>
      <point x="276" y="266"/>
      <point x="294" y="265"/>
      <point x="310" y="260" type="curve" smooth="yes"/>
      <point x="343" y="252"/>
      <point x="370" y="223"/>
      <point x="370" y="179" type="curve" smooth="yes"/>
      <point x="370" y="138"/>
      <point x="343" y="108"/>
      <point x="313" y="100" type="curve" smooth="yes"/>
      <point x="296" y="95"/>
      <point x="277" y="94"/>
      <point x="263" y="94" type="curve" smooth="yes"/>
    </contour>
    <component base="idotless" xOffset="470"/>
  </outline>
</glyph>
<glyph name="softsign-cy" format="2">
  <advance width="570"/>
  <unicode hex="044C"/>
  <outline>
    <contour>
      <point x="70" y="0" type="line"/>
      <point x="289" y="0" type="line" smooth="yes"/>
      <point x="319" y="0"/>
      <point x="363" y="1"/>
      <point x="389" y="7" type="curve" smooth="yes"/>
      <point x="478" y="28"/>
      <point x="530" y="84"/>
      <point x="530" y="179" type="curve" smooth="yes"/>
      <point x="530" y="280"/>
      <point x="477" y="335"/>
      <point x="386" y="354" type="curve" smooth="yes"/>
      <point x="360" y="359"/>
      <point x="318" y="360"/>
      <point x="287" y="360" type="curve" smooth="yes"/>
      <point x="190" y="360" type="line"/>
      <point x="190" y="540" type="line"/>
      <point x="70" y="540" type="line"/>
    </contour>
    <contour>
      <point x="190" y="94" type="line"/>
      <point x="190" y="266" type="line"/>
      <point x="300" y="266" type="line" smooth="yes"/>
      <point x="313" y="266"/>
      <point x="331" y="265"/>
      <point x="346" y="260" type="curve" smooth="yes"/>
      <point x="380" y="252"/>
      <point x="407" y="223"/>
      <point x="407" y="179" type="curve" smooth="yes"/>
      <point x="407" y="138"/>
      <point x="380" y="108"/>
      <point x="350" y="100" type="curve" smooth="yes"/>
      <point x="333" y="95"/>
      <point x="314" y="94"/>
      <point x="300" y="94" type="curve" smooth="yes"/>
    </contour>
  </outline>
</glyph>
<glyph name="ereversed-cy" format="2">
  <advance width="576"/>
  <unicode hex="044D"/>
  <outline>
    <contour>
      <point x="272" y="-15" type="curve" smooth="yes"/>
      <point x="438" y="-15"/>
      <point x="536" y="106"/>
      <point x="536" y="269" type="curve" smooth="yes"/>
      <point x="536" y="436"/>
      <point x="434" y="555"/>
      <point x="271" y="555" type="curve" smooth="yes"/>
      <point x="148" y="555"/>
      <point x="57" y="489"/>
      <point x="32" y="383" type="curve"/>
      <point x="152" y="350" type="line"/>
      <point x="171" y="410"/>
      <point x="217" y="442"/>
      <point x="275" y="442" type="curve" smooth="yes"/>
      <point x="351" y="442"/>
      <point x="394" y="389"/>
      <point x="405" y="318" type="curve"/>
      <point x="225" y="318" type="line"/>
      <point x="225" y="223" type="line"/>
      <point x="405" y="223" type="line"/>
      <point x="392" y="146"/>
      <point x="348" y="98"/>
      <point x="272" y="98" type="curve" smooth="yes"/>
      <point x="208" y="98"/>
      <point x="173" y="128"/>
      <point x="154" y="183" type="curve"/>
      <point x="32" y="156" type="line"/>
      <point x="65" y="46"/>
      <point x="152" y="-15"/>
    </contour>
  </outline>
</glyph>
<glyph name="iu-cy" format="2">
  <advance width="852"/>
  <unicode hex="044E"/>
  <outline>
    <contour>
      <point x="542" y="-15" type="curve" smooth="yes"/>
      <point x="703" y="-15"/>
      <point x="812" y="102"/>
      <point x="812" y="271" type="curve" smooth="yes"/>
      <point x="812" y="436"/>
      <point x="705" y="555"/>
      <point x="545" y="555" type="curve" smooth="yes"/>
      <point x="415" y="555"/>
      <point x="316" y="474"/>
      <point x="295" y="330" type="curve"/>
      <point x="190" y="330" type="line"/>
      <point x="190" y="540" type="line"/>
      <point x="70" y="540" type="line"/>
      <point x="70" y="0" type="line"/>
      <point x="190" y="0" type="line"/>
      <point x="190" y="210" type="line"/>
      <point x="296" y="210" type="line"/>
      <point x="317" y="68"/>
      <point x="414" y="-15"/>
    </contour>
    <contour>
      <point x="541" y="98" type="curve" smooth="yes"/>
      <point x="449" y="98"/>
      <point x="401" y="165"/>
      <point x="401" y="271" type="curve" smooth="yes"/>
      <point x="401" y="374"/>
      <point x="447" y="442"/>
      <point x="541" y="442" type="curve" smooth="yes"/>
      <point x="636" y="442"/>
      <point x="684" y="376"/>
      <point x="684" y="270" type="curve" smooth="yes"/>
      <point x="684" y="168"/>
      <point x="638" y="98"/>
    </contour>
  </outline>
</glyph>
<glyph name="ia-cy" format="2">
  <advance width="584"/>
  <unicode hex="044F"/>
  <outline>
    <contour>
      <point x="393" y="0" type="line"/>
      <point x="514" y="0" type="line"/>
      <point x="514" y="540" type="line"/>
      <point x="295" y="540" type="line" smooth="yes"/>
      <point x="270" y="540"/>
      <point x="230" y="540"/>
      <point x="194" y="533" type="curve" smooth="yes"/>
      <point x="111" y="516"/>
      <point x="54" y="456"/>
      <point x="54" y="359" type="curve" smooth="yes"/>
      <point x="54" y="259"/>
      <point x="115" y="201"/>
      <point x="198" y="186" type="curve" smooth="yes"/>
      <point x="231" y="180"/>
      <point x="272" y="180"/>
      <point x="296" y="180" type="curve" smooth="yes"/>
      <point x="393" y="180" type="line"/>
    </contour>
    <contour>
      <point x="40" y="0" type="line"/>
      <point x="167" y="0" type="line"/>
      <point x="294" y="207" type="line"/>
      <point x="169" y="207" type="line"/>
    </contour>
    <contour>
      <point x="284" y="274" type="line" smooth="yes"/>
      <point x="272" y="274"/>
      <point x="254" y="275"/>
      <point x="237" y="280" type="curve" smooth="yes"/>
      <point x="205" y="288"/>
      <point x="177" y="318"/>
      <point x="177" y="360" type="curve" smooth="yes"/>
      <point x="177" y="401"/>
      <point x="205" y="431"/>
      <point x="234" y="440" type="curve" smooth="yes"/>
      <point x="252" y="445"/>
      <point x="271" y="446"/>
      <point x="284" y="446" type="curve" smooth="yes"/>
      <point x="393" y="446" type="line"/>
      <point x="393" y="274" type="line"/>
    </contour>
  </outline>
</glyph>
<glyph name="dje-cy" format="2">
  <advance width="626"/>
  <unicode hex="0452"/>
  <outline>
    <contour>
      <point x="469" y="-225" type="curve" smooth="yes"/>
      <point x="532" y="-210"/>
      <point x="566" y="-164"/>
      <point x="566" y="-89" type="curve" smooth="yes"/>
      <point x="566" y="302" type="line" smooth="yes"/>
      <point x="566" y="366"/>
      <point x="552" y="555"/>
      <point x="353" y="555" type="curve" smooth="yes"/>
      <point x="276" y="555"/>
      <point x="216" y="527"/>
      <point x="176" y="479" type="curve"/>
      <point x="176" y="583" type="line"/>
      <point x="282" y="583" type="line"/>
      <point x="282" y="677" type="line"/>
      <point x="176" y="677" type="line"/>
      <point x="176" y="720" type="line"/>
      <point x="70" y="720" type="line"/>
      <point x="70" y="677" type="line"/>
      <point x="15" y="677" type="line"/>
      <point x="15" y="583" type="line"/>
      <point x="70" y="583" type="line"/>
      <point x="70" y="0" type="line"/>
      <point x="191" y="0" type="line"/>
      <point x="191" y="278" type="line" smooth="yes"/>
      <point x="191" y="408"/>
      <point x="256" y="442"/>
      <point x="317" y="442" type="curve" smooth="yes"/>
      <point x="433" y="442"/>
      <point x="444" y="327"/>
      <point x="444" y="260" type="curve" smooth="yes"/>
      <point x="444" y="-64" type="line" smooth="yes"/>
      <point x="444" y="-144"/>
      <point x="391" y="-137"/>
      <point x="354" y="-134" type="curve"/>
      <point x="354" y="-220" type="line"/>
      <point x="380" y="-226"/>
      <point x="427" y="-234"/>
    </contour>
  </outline>
</glyph>
<glyph name="lje-cy" format="2">
  <advance width="856"/>
  <unicode hex="0459"/>
  <outline>
    <contour>
      <point x="20" y="0" type="line"/>
      <point x="143" y="-28"/>
      <point x="189" y="15"/>
      <point x="211" y="133" type="curve" smooth="yes"/>
      <point x="225" y="202"/>
      <point x="237" y="339"/>
      <point x="244" y="427" type="curve"/>
      <point x="393" y="427" type="line"/>
      <point x="393" y="0" type="line"/>
      <point x="575" y="0" type="line" smooth="yes"/>
      <point x="599" y="0"/>
      <point x="640" y="0"/>
      <point x="676" y="7" type="curve" smooth="yes"/>
      <point x="759" y="24"/>
      <point x="816" y="83"/>
      <point x="816" y="181" type="curve" smooth="yes"/>
      <point x="816" y="282"/>
      <point x="756" y="338"/>
      <point x="672" y="354" type="curve" smooth="yes"/>
      <point x="641" y="360"/>
      <point x="610" y="360"/>
      <point x="574" y="360" type="curve" smooth="yes"/>
      <point x="514" y="360" type="line"/>
      <point x="514" y="540" type="line"/>
      <point x="137" y="540" type="line"/>
      <point x="130" y="402"/>
      <point x="120" y="268"/>
      <point x="103" y="179" type="curve" smooth="yes"/>
      <point x="92" y="115"/>
      <point x="79" y="90"/>
      <point x="20" y="101" type="curve"/>
    </contour>
    <contour>
      <point x="514" y="94" type="line"/>
      <point x="514" y="266" type="line"/>
      <point x="586" y="266" type="line" smooth="yes"/>
      <point x="598" y="266"/>
      <point x="616" y="265"/>
      <point x="633" y="260" type="curve" smooth="yes"/>
      <point x="665" y="252"/>
      <point x="693" y="224"/>
      <point x="693" y="180" type="curve" smooth="yes"/>
      <point x="693" y="137"/>
      <point x="666" y="108"/>
      <point x="636" y="100" type="curve" smooth="yes"/>
      <point x="619" y="95"/>
      <point x="601" y="94"/>
      <point x="586" y="94" type="curve" smooth="yes"/>
    </contour>
  </outline>
</glyph>
<glyph name="nje-cy" format="2">
  <advance width="836"/>
  <unicode hex="045A"/>
  <outline>
    <contour>
      <point x="70" y="0" type="line"/>
      <point x="190" y="0" type="line"/>
      <point x="190" y="266" type="line"/>
      <point x="373" y="266" type="line"/>
      <point x="373" y="0" type="line"/>
      <point x="555" y="0" type="line" smooth="yes"/>
      <point x="579" y="0"/>
      <point x="620" y="0"/>
      <point x="655" y="7" type="curve" smooth="yes"/>
      <point x="739" y="24"/>
      <point x="796" y="83"/>
      <point x="796" y="181" type="curve" smooth="yes"/>
      <point x="796" y="282"/>
      <point x="735" y="338"/>
      <point x="652" y="354" type="curve" smooth="yes"/>
      <point x="621" y="360"/>
      <point x="590" y="360"/>
      <point x="554" y="360" type="curve" smooth="yes"/>
      <point x="493" y="360" type="line"/>
      <point x="493" y="540" type="line"/>
      <point x="373" y="540" type="line"/>
      <point x="373" y="360" type="line"/>
      <point x="190" y="360" type="line"/>
      <point x="190" y="540" type="line"/>
      <point x="70" y="540" type="line"/>
    </contour>
    <contour>
      <point x="493" y="94" type="line"/>
      <point x="493" y="266" type="line"/>
      <point x="566" y="266" type="line" smooth="yes"/>
      <point x="577" y="266"/>
      <point x="596" y="265"/>
      <point x="613" y="260" type="curve" smooth="yes"/>
      <point x="645" y="252"/>
      <point x="673" y="224"/>
      <point x="673" y="180" type="curve" smooth="yes"/>
      <point x="673" y="137"/>
      <point x="645" y="108"/>
      <point x="616" y="100" type="curve" smooth="yes"/>
      <point x="599" y="95"/>
      <point x="581" y="94"/>
      <point x="566" y="94" type="curve" smooth="yes"/>
    </contour>
  </outline>
</glyph>
<glyph name="dzhe-cy" format="2">
  <advance width="609"/>
  <unicode hex="045F"/>
  <outline>
    <contour>
      <point x="252" y="-120" type="line"/>
      <point x="372" y="-120" type="line"/>
      <point x="372" y="0" type="line"/>
      <point x="539" y="0" type="line"/>
      <point x="539" y="540" type="line"/>
      <point x="418" y="540" type="line"/>
      <point x="418" y="113" type="line"/>
      <point x="190" y="113" type="line"/>
      <point x="190" y="540" type="line"/>
      <point x="70" y="540" type="line"/>
      <point x="70" y="0" type="line"/>
      <point x="252" y="0" type="line"/>
    </contour>
  </outline>
</glyph>
<glyph name="Gheupturn-cy" format="2">
  <advance width="555"/>
  <unicode hex="0490"/>
  <outline>
    <contour>
      <point x="70" y="0" type="line"/>
      <point x="190" y="0" type="line"/>
      <point x="190" y="607" type="line"/>
      <point x="545" y="607" type="line"/>
      <point x="545" y="833" type="line"/>
      <point x="425" y="833" type="line"/>
      <point x="425" y="720" type="line"/>
      <point x="70" y="720" type="line"/>
    </contour>
  </outline>
</glyph>
<glyph name="gheupturn-cy" format="2">
  <advance width="480"/>
  <unicode hex="0491"/>
  <outline>
    <contour>
      <point x="70" y="0" type="line"/>
      <point x="190" y="0" type="line"/>
      <point x="190" y="427" type="line"/>
      <point x="455" y="427" type="line"/>
      <point x="455" y="653" type="line"/>
      <point x="335" y="653" type="line"/>
      <point x="335" y="540" type="line"/>
      <point x="70" y="540" type="line"/>
    </contour>
  </outline>
</glyph>
<glyph name="Obarred-cy" format="2">
  <advance width="769"/>
  <unicode hex="04E8"/>
  <outline>
    <contour>
      <point x="132" y="300" type="line"/>
      <point x="630" y="300" type="line"/>
      <point x="630" y="420" type="line"/>
      <point x="132" y="420" type="line"/>
    </contour>
    <component base="O"/>
  </outline>
</glyph>
<glyph name="Germandbls" format="2">
  <advance width="635"/>
  <unicode hex="1E9E"/>
  <outline>
    <contour>
      <point x="346" y="-15" type="curve" smooth="yes"/>
      <point x="494" y="-15"/>
      <point x="575" y="76"/>
      <point x="575" y="213" type="curve" smooth="yes"/>
      <point x="575" y="338"/>
      <point x="506" y="406"/>
      <point x="410" y="424" type="curve"/>
      <point x="526" y="550" type="line"/>
      <point x="507" y="659"/>
      <point x="424" y="735"/>
      <point x="300" y="735" type="curve" smooth="yes"/>
      <point x="190" y="735"/>
      <point x="117" y="685"/>
      <point x="86" y="594" type="curve" smooth="yes"/>
      <point x="73" y="557"/>
      <point x="70" y="514"/>
      <point x="70" y="469" type="curve" smooth="yes"/>
      <point x="70" y="0" type="line"/>
      <point x="192" y="0" type="line"/>
      <point x="192" y="468" type="line" smooth="yes"/>
      <point x="192" y="508"/>
      <point x="194" y="539"/>
      <point x="208" y="566" type="curve" smooth="yes"/>
      <point x="228" y="603"/>
      <point x="263" y="622"/>
      <point x="300" y="622" type="curve" smooth="yes"/>
      <point x="352" y="622"/>
      <point x="388" y="596"/>
      <point x="400" y="553" type="curve"/>
      <point x="271" y="411" type="line"/>
      <point x="308" y="316" type="line"/>
      <point x="395" y="335"/>
      <point x="452" y="282"/>
      <point x="452" y="217" type="curve" smooth="yes"/>
      <point x="452" y="142"/>
      <point x="404" y="103"/>
      <point x="330" y="103" type="curve" smooth="yes"/>
      <point x="298" y="103"/>
      <point x="272" y="110"/>
      <point x="252" y="118" type="curve"/>
      <point x="252" y="0" type="line"/>
      <point x="276" y="-10"/>
      <point x="303" y="-15"/>
    </contour>
  </outline>
</glyph>
<glyph name="fraction" format="2">
  <advance width="258"/>
  <unicode hex="2044"/>
  <outline>
    <contour>
      <point x="-82" y="0" type="line"/>
      <point x="410" y="673" type="line"/>
      <point x="340" y="726" type="line"/>
      <point x="-152" y="52" type="line"/>
    </contour>
  </outline>
</glyph>
<glyph name="zerosuperior" format="2">
  <advance width="468"/>
  <unicode hex="2070"/>
  <outline>
    <contour>
      <point x="234" y="259" type="curve" smooth="yes"/>
      <point x="337" y="259"/>
      <point x="398" y="325"/>
      <point x="398" y="432" type="curve" smooth="yes"/>
      <point x="398" y="556" type="line" smooth="yes"/>
      <point x="398" y="664"/>
      <point x="333" y="729"/>
      <point x="234" y="729" type="curve" smooth="yes"/>
      <point x="135" y="729"/>
      <point x="70" y="661"/>
      <point x="70" y="556" type="curve" smooth="yes"/>
      <point x="70" y="432" type="line" smooth="yes"/>
      <point x="70" y="324"/>
      <point x="135" y="259"/>
    </contour>
    <contour>
      <point x="234" y="332" type="curve" smooth="yes"/>
      <point x="179" y="332"/>
      <point x="150" y="372"/>
      <point x="150" y="432" type="curve" smooth="yes"/>
      <point x="150" y="556" type="line" smooth="yes"/>
      <point x="150" y="618"/>
      <point x="182" y="656"/>
      <point x="234" y="656" type="curve" smooth="yes"/>
      <point x="289" y="656"/>
      <point x="319" y="616"/>
      <point x="319" y="556" type="curve" smooth="yes"/>
      <point x="319" y="432" type="line" smooth="yes"/>
      <point x="319" y="369"/>
      <point x="287" y="332"/>
    </contour>
  </outline>
</glyph>
<glyph name="foursuperior" format="2">
  <advance width="419"/>
  <unicode hex="2074"/>
  <outline>
    <contour>
      <point x="249" y="270" type="line"/>
      <point x="327" y="270" type="line"/>
      <point x="327" y="343" type="line"/>
      <point x="369" y="343" type="line"/>
      <point x="369" y="416" type="line"/>
      <point x="327" y="416" type="line"/>
      <point x="327" y="532" type="line"/>
      <point x="249" y="532" type="line"/>
      <point x="249" y="416" type="line"/>
      <point x="139" y="416" type="line"/>
      <point x="283" y="720" type="line"/>
      <point x="194" y="720" type="line"/>
      <point x="50" y="416" type="line"/>
      <point x="50" y="343" type="line"/>
      <point x="249" y="343" type="line"/>
    </contour>
  </outline>
</glyph>
<glyph name="fivesuperior" format="2">
  <advance width="405"/>
  <unicode hex="2075"/>
  <outline>
    <contour>
      <point x="196" y="260" type="curve" smooth="yes"/>
      <point x="282" y="260"/>
      <point x="355" y="326"/>
      <point x="355" y="411" type="curve" smooth="yes"/>
      <point x="355" y="496"/>
      <point x="294" y="558"/>
      <point x="210" y="558" type="curve" smooth="yes"/>
      <point x="181" y="558"/>
      <point x="148" y="548"/>
      <point x="125" y="527" type="curve"/>
      <point x="140" y="508" type="line"/>
      <point x="150" y="674" type="line"/>
      <point x="121" y="648" type="line"/>
      <point x="324" y="648" type="line"/>
      <point x="324" y="720" type="line"/>
      <point x="79" y="720" type="line"/>
      <point x="66" y="481" type="line"/>
      <point x="132" y="460" type="line"/>
      <point x="143" y="473"/>
      <point x="166" y="489"/>
      <point x="199" y="489" type="curve" smooth="yes"/>
      <point x="241" y="489"/>
      <point x="276" y="454"/>
      <point x="276" y="411" type="curve" smooth="yes"/>
      <point x="276" y="369"/>
      <point x="242" y="334"/>
      <point x="199" y="334" type="curve" smooth="yes"/>
      <point x="166" y="334"/>
      <point x="134" y="356"/>
      <point x="125" y="391" type="curve"/>
      <point x="50" y="371" type="line"/>
      <point x="69" y="305"/>
      <point x="128" y="260"/>
    </contour>
  </outline>
</glyph>
<glyph name="sixsuperior" format="2">
  <advance width="438"/>
  <unicode hex="2076"/>
  <outline>
    <contour>
      <point x="228" y="257" type="curve" smooth="yes"/>
      <point x="314" y="257"/>
      <point x="385" y="323"/>
      <point x="385" y="409" type="curve" smooth="yes"/>
      <point x="385" y="494"/>
      <point x="325" y="557"/>
      <point x="239" y="557" type="curve" smooth="yes"/>
      <point x="199" y="557"/>
      <point x="161" y="540"/>
      <point x="135" y="509" type="curve"/>
      <point x="150" y="493" type="line"/>
      <point x="150" y="569" type="line" smooth="yes"/>
      <point x="150" y="614"/>
      <point x="184" y="656"/>
      <point x="237" y="656" type="curve" smooth="yes"/>
      <point x="261" y="656"/>
      <point x="283" y="645"/>
      <point x="300" y="627" type="curve"/>
      <point x="356" y="682" type="line"/>
      <point x="323" y="715"/>
      <point x="282" y="729"/>
      <point x="237" y="729" type="curve" smooth="yes"/>
      <point x="136" y="729"/>
      <point x="70" y="663"/>
      <point x="70" y="558" type="curve" smooth="yes"/>
      <point x="70" y="421" type="line" smooth="yes"/>
      <point x="70" y="324"/>
      <point x="138" y="257"/>
    </contour>
    <contour>
      <point x="228" y="331" type="curve" smooth="yes"/>
      <point x="184" y="331"/>
      <point x="150" y="367"/>
      <point x="150" y="409" type="curve" smooth="yes"/>
      <point x="150" y="452"/>
      <point x="185" y="486"/>
      <point x="228" y="486" type="curve" smooth="yes"/>
      <point x="271" y="486"/>
      <point x="306" y="452"/>
      <point x="306" y="409" type="curve" smooth="yes"/>
      <point x="306" y="365"/>
      <point x="271" y="331"/>
    </contour>
  </outline>
</glyph>
<glyph name="sevensuperior" format="2">
  <advance width="369"/>
  <unicode hex="2077"/>
  <outline>
    <contour>
      <point x="81" y="270" type="line"/>
      <point x="166" y="270" type="line"/>
      <point x="319" y="647" type="line"/>
      <point x="319" y="720" type="line"/>
      <point x="40" y="720" type="line"/>
      <point x="40" y="647" type="line"/>
      <point x="236" y="647" type="line"/>
    </contour>
  </outline>
</glyph>
